Mirza-SemiBold.ufo
<glyph name="quotedbl" format="1">
  <advance width="311"/>
  <unicode hex="0022"/>
  <outline>
    <contour>
      <point x="266" y="310" type="line"/>
      <point x="266" y="403"/>
      <point x="267" y="470"/>
      <point x="278" y="549" type="curve"/>
      <point x="237" y="549"/>
      <point x="210" y="544"/>
      <point x="176" y="532" type="curve"/>
      <point x="176" y="375" type="line"/>
      <point x="199" y="354"/>
      <point x="221" y="333"/>
      <point x="239" y="310" type="curve"/>
    </contour>
    <contour>
      <point x="113" y="310" type="line"/>
      <point x="113" y="403"/>
      <point x="114" y="470"/>
      <point x="125" y="549" type="curve"/>
      <point x="84" y="549"/>
      <point x="57" y="544"/>
      <point x="23" y="532" type="curve"/>
      <point x="23" y="375" type="line"/>
      <point x="46" y="354"/>
      <point x="68" y="333"/>
      <point x="86" y="310" type="curve"/>
    </contour>
  </outline>
</glyph>
<glyph name="period" format="1">
  <advance width="210"/>
  <unicode hex="002E"/>
  <outline>
    <contour>
      <point x="137" y="12"/>
      <point x="164" y="38"/>
      <point x="190" y="70" type="curve"/>
      <point x="158" y="97"/>
      <point x="131" y="123"/>
      <point x="105" y="155" type="curve"/>
      <point x="73" y="129"/>
      <point x="46" y="102"/>
      <point x="20" y="70" type="curve"/>
      <point x="52" y="44"/>
      <point x="79" y="17"/>
      <point x="105" y="-15" type="curve"/>
    </contour>
  </outline>
</glyph>
<glyph name="uni0601" format="1">
  <advance width="455"/>
  <unicode hex="0601"/>
  <outline>
    <contour>
      <point x="878" y="91"/>
      <point x="863" y="70"/>
      <point x="846" y="43" type="curve"/>
      <point x="893" y="-23" type="line"/>
      <point x="883" y="-48"/>
      <point x="867" y="-61"/>
      <point x="834" y="-61" type="curve" smooth="yes"/>
      <point x="811" y="-61"/>
      <point x="794" y="-55"/>
      <point x="784" y="-44" type="curve" smooth="yes"/>
      <point x="771" y="-29"/>
      <point x="769" y="-10"/>
      <point x="770" y="12" type="curve" smooth="yes"/>
      <point x="771" y="22"/>
      <point x="772" y="31"/>
      <point x="773" y="41" type="curve"/>
      <point x="731" y="24" type="line"/>
      <point x="730" y="16"/>
      <point x="729" y="7"/>
      <point x="728" y="-1" type="curve"/>
      <point x="720" y="-34"/>
      <point x="704" y="-61"/>
      <point x="663" y="-61" type="curve" smooth="yes"/>
      <point x="615" y="-61"/>
      <point x="605" y="-28"/>
      <point x="603" y="-2" type="curve"/>
      <point x="602" y="9"/>
      <point x="603" y="22"/>
      <point x="605" y="41" type="curve"/>
      <point x="564" y="24" type="line"/>
      <point x="561" y="6"/>
      <point x="558" y="-10"/>
      <point x="548" y="-25" type="curve"/>
      <point x="536" y="-44"/>
      <point x="518" y="-57"/>
      <point x="491" y="-57" type="curve" smooth="yes"/>
      <point x="-38" y="-57" type="line" smooth="yes"/>
      <point x="-69" y="-57"/>
      <point x="-90" y="-49"/>
      <point x="-104" y="-35" type="curve"/>
      <point x="-124" y="-11"/>
      <point x="-117" y="36"/>
      <point x="-116" y="47" type="curve"/>
      <point x="-158" y="30" type="line"/>
      <point x="-159" y="11"/>
      <point x="-170" y="-57"/>
      <point x="-242" y="-57" type="curve" smooth="yes"/>
      <point x="-257" y="-57"/>
      <point x="-276" y="-57"/>
      <point x="-291" y="-57" type="curve" smooth="yes"/>
      <point x="-321" y="-57"/>
      <point x="-341" y="-37"/>
      <point x="-359" y="-12" type="curve" smooth="yes"/>
      <point x="-376" y="14"/>
      <point x="-401" y="49"/>
      <point x="-444" y="49" type="curve" smooth="yes"/>
      <point x="-486" y="49"/>
      <point x="-525" y="15"/>
      <point x="-565" y="-58" type="curve" smooth="yes"/>
      <point x="-588" y="-101"/>
      <point x="-606" y="-147"/>
      <point x="-626" y="-209" type="curve"/>
      <point x="-579" y="-195" type="line"/>
      <point x="-572" y="-177"/>
      <point x="-556" y="-145"/>
      <point x="-542" y="-120" type="curve" smooth="yes"/>
      <point x="-513" y="-70"/>
      <point x="-486" y="-50"/>
      <point x="-461" y="-50" type="curve" smooth="yes"/>
      <point x="-433" y="-50"/>
      <point x="-419" y="-72"/>
      <point x="-405" y="-99" type="curve" smooth="yes"/>
      <point x="-394" y="-120"/>
      <point x="-384" y="-138"/>
      <point x="-369" y="-152" type="curve" smooth="yes"/>
      <point x="-350" y="-172"/>
      <point x="-326" y="-183"/>
      <point x="-292" y="-183" type="curve" smooth="yes"/>
      <point x="-230" y="-182" type="line" smooth="yes"/>
      <point x="-198" y="-182"/>
      <point x="-173" y="-171"/>
      <point x="-155" y="-157" type="curve" smooth="yes"/>
      <point x="-138" y="-142"/>
      <point x="-131" y="-128"/>
      <point x="-129" y="-124" type="curve"/>
      <point x="-128" y="-128"/>
      <point x="-123" y="-142"/>
      <point x="-106" y="-156" type="curve" smooth="yes"/>
      <point x="-90" y="-170"/>
      <point x="-65" y="-182"/>
      <point x="-24" y="-182" type="curve" smooth="yes"/>
      <point x="484" y="-182" type="line" smooth="yes"/>
      <point x="515" y="-182"/>
      <point x="534" y="-173"/>
      <point x="548" y="-162" type="curve" smooth="yes"/>
      <point x="565" y="-148"/>
      <point x="572" y="-130"/>
      <point x="574" y="-125" type="curve"/>
      <point x="579" y="-144"/>
      <point x="599" y="-180"/>
      <point x="653" y="-180" type="curve" smooth="yes"/>
      <point x="712" y="-180"/>
      <point x="739" y="-142"/>
      <point x="745" y="-122" type="curve"/>
      <point x="752" y="-142"/>
      <point x="777" y="-173"/>
      <point x="832" y="-173" type="curve" smooth="yes"/>
      <point x="872" y="-173"/>
      <point x="902" y="-153"/>
      <point x="924" y="-115" type="curve" smooth="yes"/>
      <point x="945" y="-80"/>
      <point x="950" y="-38"/>
      <point x="950" y="-29" type="curve" smooth="yes"/>
      <point x="950" y="67"/>
      <point x="903" y="108"/>
      <point x="899" y="113" type="curve"/>
    </contour>
  </outline>
</glyph>
<glyph name="uni0602" format="1">
  <advance width="600"/>
  <unicode hex="0602"/>
  <outline>
    <contour>
      <point x="-242" y="-64"/>
      <point x="-230" y="-106"/>
      <point x="-196" y="-136" type="curve" smooth="yes"/>
      <point x="-164" y="-165"/>
      <point x="-112" y="-183"/>
      <point x="-35" y="-183" type="curve"/>
      <point x="198" y="-183" type="line"/>
      <point x="348" y="-183"/>
      <point x="541" y="-183"/>
      <point x="595" y="-184" type="curve"/>
      <point x="642" y="-149"/>
      <point x="681" y="-99"/>
      <point x="707" y="-43" type="curve"/>
      <point x="659" y="-50"/>
      <point x="570" y="-56"/>
      <point x="186" y="-58" type="curve"/>
      <point x="-21" y="-58" type="line"/>
      <point x="-15" y="-12"/>
      <point x="-21" y="30"/>
      <point x="-37" y="62" type="curve" smooth="yes"/>
      <point x="-56" y="100"/>
      <point x="-88" y="123"/>
      <point x="-130" y="123" type="curve" smooth="yes"/>
      <point x="-198" y="123"/>
      <point x="-236" y="53"/>
      <point x="-239" y="-19" type="curve" smooth="yes"/>
    </contour>
    <contour>
      <point x="-124" y="-57" type="line"/>
      <point x="-170" y="-57"/>
      <point x="-177" y="-26"/>
      <point x="-177" y="-14" type="curve" smooth="yes"/>
      <point x="-177" y="6"/>
      <point x="-162" y="32"/>
      <point x="-131" y="32" type="curve" smooth="yes"/>
      <point x="-87" y="32"/>
      <point x="-75" y="-23"/>
      <point x="-76" y="-58" type="curve"/>
    </contour>
  </outline>
</glyph>
<glyph name="uni0608" format="1">
  <advance width="676"/>
  <unicode hex="0608"/>
  <outline>
    <contour>
      <point x="388" y="295"/>
      <point x="358" y="271"/>
      <point x="337" y="227" type="curve" smooth="yes"/>
      <point x="323" y="199"/>
      <point x="313" y="164"/>
      <point x="313" y="128" type="curve" smooth="yes"/>
      <point x="313" y="85"/>
      <point x="325" y="47"/>
      <point x="349" y="25" type="curve" smooth="yes"/>
      <point x="363" y="13"/>
      <point x="387" y="0"/>
      <point x="437" y="0" type="curve" smooth="yes"/>
      <point x="473" y="0" type="line"/>
      <point x="472" y="-20"/>
      <point x="463" y="-57"/>
      <point x="431" y="-88" type="curve" smooth="yes"/>
      <point x="399" y="-119"/>
      <point x="354" y="-133"/>
      <point x="291" y="-133" type="curve" smooth="yes"/>
      <point x="222" y="-133"/>
      <point x="176" y="-119"/>
      <point x="149" y="-86" type="curve" smooth="yes"/>
      <point x="112" y="-38"/>
      <point x="131" y="33"/>
      <point x="135" y="52" type="curve"/>
      <point x="100" y="65" type="line"/>
      <point x="94" y="51"/>
      <point x="70" y="-6"/>
      <point x="65" y="-67" type="curve" smooth="yes"/>
      <point x="62" y="-101"/>
      <point x="65" y="-129"/>
      <point x="77" y="-159" type="curve" smooth="yes"/>
      <point x="93" y="-197"/>
      <point x="120" y="-225"/>
      <point x="155" y="-244" type="curve" smooth="yes"/>
      <point x="190" y="-263"/>
      <point x="236" y="-274"/>
      <point x="285" y="-274" type="curve" smooth="yes"/>
      <point x="329" y="-274"/>
      <point x="366" y="-266"/>
      <point x="399" y="-250" type="curve" smooth="yes"/>
      <point x="429" y="-235"/>
      <point x="455" y="-214"/>
      <point x="477" y="-186" type="curve" smooth="yes"/>
      <point x="524" y="-124"/>
      <point x="536" y="-46"/>
      <point x="537" y="0" type="curve"/>
      <point x="577" y="4"/>
      <point x="617" y="10"/>
      <point x="652" y="52" type="curve"/>
      <point x="652" y="170" type="line"/>
      <point x="619" y="133"/>
      <point x="572" y="125"/>
      <point x="535" y="125" type="curve"/>
      <point x="531" y="158"/>
      <point x="522" y="206"/>
      <point x="503" y="240" type="curve" smooth="yes"/>
      <point x="491" y="262"/>
      <point x="465" y="295"/>
      <point x="424" y="295" type="curve" smooth="yes"/>
    </contour>
    <contour>
      <point x="452" y="213"/>
      <point x="463" y="147"/>
      <point x="468" y="126" type="curve"/>
      <point x="418" y="126" type="line" smooth="yes"/>
      <point x="377" y="126"/>
      <point x="360" y="137"/>
      <point x="360" y="164" type="curve" smooth="yes"/>
      <point x="360" y="195"/>
      <point x="384" y="213"/>
      <point x="407" y="213" type="curve" smooth="yes"/>
    </contour>
    <contour>
      <point x="67" y="45"/>
      <point x="29" y="26"/>
      <point x="-16" y="14" type="curve"/>
      <point x="23" y="-39" type="line"/>
      <point x="110" y="0" type="line"/>
      <point x="100" y="65" type="line"/>
    </contour>
    <contour>
      <point x="416" y="327" type="move" name="top"/>
    </contour>
    <contour>
      <point x="286" y="-310" type="move" name="bottom"/>
    </contour>
  </outline>
</glyph>
<glyph name="uni060C" format="1">
  <advance width="196"/>
  <unicode hex="060C"/>
  <outline>
    <contour>
      <point x="73" y="179"/>
      <point x="28" y="100"/>
      <point x="20" y="13" type="curve"/>
      <point x="50" y="-18" type="line"/>
      <point x="85" y="-18"/>
      <point x="128" y="-5"/>
      <point x="158" y="14" type="curve"/>
      <point x="147" y="40"/>
      <point x="141" y="71"/>
      <point x="141" y="107" type="curve" smooth="yes"/>
      <point x="141" y="147"/>
      <point x="153" y="186"/>
      <point x="176" y="213" type="curve"/>
      <point x="150" y="240" type="line"/>
    </contour>
  </outline>
</glyph>
<glyph name="uni060F" format="1">
  <advance width="520"/>
  <unicode hex="060F"/>
  <outline>
    <contour>
      <point x="508" y="-57"/>
      <point x="462" y="21"/>
      <point x="371" y="21" type="curve" smooth="yes"/>
      <point x="302" y="21"/>
      <point x="259" y="-29"/>
      <point x="233" y="-83" type="curve" smooth="yes"/>
      <point x="213" y="-127"/>
      <point x="203" y="-174"/>
      <point x="200" y="-200" type="curve"/>
      <point x="192" y="-194"/>
      <point x="137" y="-146"/>
      <point x="144" y="-56" type="curve" smooth="yes"/>
      <point x="149" y="-1"/>
      <point x="176" y="49"/>
      <point x="232" y="88" type="curve" smooth="yes"/>
      <point x="278" y="120"/>
      <point x="340" y="143"/>
      <point x="413" y="163" type="curve"/>
      <point x="425" y="194"/>
      <point x="432" y="223"/>
      <point x="439" y="258" type="curve"/>
      <point x="377" y="239"/>
      <point x="297" y="212"/>
      <point x="260" y="197" type="curve"/>
      <point x="209" y="209"/>
      <point x="185" y="233"/>
      <point x="171" y="259" type="curve"/>
      <point x="189" y="276"/>
      <point x="212" y="293"/>
      <point x="251" y="303" type="curve" smooth="yes"/>
      <point x="295" y="315"/>
      <point x="323" y="310"/>
      <point x="355" y="301" type="curve"/>
      <point x="383" y="341" type="line"/>
      <point x="347" y="372"/>
      <point x="298" y="394"/>
      <point x="253" y="394" type="curve" smooth="yes"/>
      <point x="205" y="394"/>
      <point x="161" y="359"/>
      <point x="137" y="325" type="curve" smooth="yes"/>
      <point x="112" y="288"/>
      <point x="102" y="249"/>
      <point x="109" y="215" type="curve" smooth="yes"/>
      <point x="115" y="185"/>
      <point x="142" y="155"/>
      <point x="172" y="135" type="curve"/>
      <point x="136" y="102"/>
      <point x="77" y="30"/>
      <point x="65" y="-92" type="curve" smooth="yes"/>
      <point x="57" y="-176"/>
      <point x="80" y="-239"/>
      <point x="122" y="-286" type="curve" smooth="yes"/>
      <point x="141" y="-307"/>
      <point x="163" y="-324"/>
      <point x="187" y="-336" type="curve"/>
      <point x="186" y="-359"/>
      <point x="185" y="-380"/>
      <point x="184" y="-386" type="curve"/>
      <point x="237" y="-412" type="line"/>
      <point x="238" y="-397"/>
      <point x="240" y="-373"/>
      <point x="241" y="-355" type="curve"/>
      <point x="278" y="-361"/>
      <point x="364" y="-361"/>
      <point x="428" y="-315" type="curve" smooth="yes"/>
      <point x="477" y="-280"/>
      <point x="508" y="-222"/>
      <point x="509" y="-143" type="curve"/>
    </contour>
    <contour>
      <point x="445" y="-148"/>
      <point x="425" y="-185"/>
      <point x="386" y="-207" type="curve" smooth="yes"/>
      <point x="351" y="-227"/>
      <point x="302" y="-233"/>
      <point x="256" y="-221" type="curve"/>
      <point x="256" y="-221"/>
      <point x="258" y="-176"/>
      <point x="277" y="-131" type="curve" smooth="yes"/>
      <point x="294" y="-88"/>
      <point x="325" y="-46"/>
      <point x="381" y="-45" type="curve" smooth="yes"/>
      <point x="416" y="-44"/>
      <point x="443" y="-75"/>
      <point x="444" y="-110" type="curve" smooth="yes"/>
    </contour>
    <contour>
      <point x="254" y="424" type="move" name="top"/>
    </contour>
    <contour>
      <point x="297" y="-468" type="move" name="bottom"/>
    </contour>
  </outline>
</glyph>
<glyph name="uni0611" format="1">
  <advance width="0"/>
  <unicode hex="0611"/>
  <outline>
    <contour>
      <point x="62" y="804"/>
      <point x="31" y="795"/>
      <point x="18" y="795" type="curve"/>
      <point x="2" y="802"/>
      <point x="-8" y="820"/>
      <point x="-10" y="831" type="curve"/>
      <point x="-4" y="835"/>
      <point x="9" y="841"/>
      <point x="25" y="841" type="curve" smooth="yes"/>
      <point x="37" y="841"/>
      <point x="47" y="838"/>
      <point x="55" y="833" type="curve"/>
      <point x="67" y="844" type="line"/>
      <point x="58" y="858"/>
      <point x="42" y="873"/>
      <point x="21" y="873" type="curve" smooth="yes"/>
      <point x="9" y="873"/>
      <point x="-5" y="865"/>
      <point x="-16" y="855" type="curve" smooth="yes"/>
      <point x="-29" y="844"/>
      <point x="-36" y="830"/>
      <point x="-36" y="817" type="curve" smooth="yes"/>
      <point x="-36" y="807"/>
      <point x="-29" y="797"/>
      <point x="-26" y="795" type="curve"/>
      <point x="-42" y="797"/>
      <point x="-54" y="808"/>
      <point x="-62" y="819" type="curve"/>
      <point x="-70" y="809"/>
      <point x="-77" y="799"/>
      <point x="-83" y="787" type="curve"/>
      <point x="-78" y="779"/>
      <point x="-70" y="769"/>
      <point x="-64" y="759" type="curve"/>
      <point x="-61" y="753"/>
      <point x="-48" y="730"/>
      <point x="-43" y="702" type="curve"/>
      <point x="-39" y="705" type="line"/>
      <point x="-34" y="716"/>
      <point x="-32" y="727"/>
      <point x="-32" y="735" type="curve" smooth="yes"/>
      <point x="-32" y="742"/>
      <point x="-33" y="750"/>
      <point x="-34" y="759" type="curve"/>
      <point x="-25" y="755"/>
      <point x="-17" y="753"/>
      <point x="-7" y="753" type="curve" smooth="yes"/>
      <point x="19" y="753"/>
      <point x="43" y="763"/>
      <point x="54" y="768" type="curve" smooth="yes"/>
      <point x="59" y="770"/>
      <point x="63" y="771"/>
      <point x="67" y="772" type="curve"/>
      <point x="74" y="785"/>
      <point x="77" y="795"/>
      <point x="80" y="811" type="curve"/>
      <point x="78" y="810"/>
      <point x="73" y="808"/>
      <point x="70" y="807" type="curve"/>
    </contour>
    <contour>
      <point x="-2" y="873" type="move" name="top"/>
    </contour>
    <contour>
      <point x="-2" y="682" type="move" name="_top"/>
    </contour>
  </outline>
</glyph>
<glyph name="uni0612" format="1">
  <advance width="0"/>
  <unicode hex="0612"/>
  <outline>
    <contour>
      <point x="99" y="860"/>
      <point x="95" y="865"/>
      <point x="94" y="866" type="curve"/>
      <point x="85" y="856"/>
      <point x="78" y="845"/>
      <point x="71" y="833" type="curve"/>
      <point x="73" y="831"/>
      <point x="80" y="826"/>
      <point x="87" y="816" type="curve" smooth="yes"/>
      <point x="92" y="808"/>
      <point x="97" y="800"/>
      <point x="97" y="789" type="curve" smooth="yes"/>
      <point x="97" y="771"/>
      <point x="84" y="759"/>
      <point x="64" y="746" type="curve" smooth="yes"/>
      <point x="55" y="741"/>
      <point x="41" y="732"/>
      <point x="29" y="726" type="curve" smooth="yes"/>
      <point x="16" y="719"/>
      <point x="11" y="716"/>
      <point x="3" y="712" type="curve"/>
      <point x="11" y="701" type="line"/>
      <point x="19" y="703"/>
      <point x="29" y="704"/>
      <point x="36" y="704" type="curve" smooth="yes"/>
      <point x="43" y="704"/>
      <point x="48" y="703"/>
      <point x="56" y="703" type="curve" smooth="yes"/>
      <point x="68" y="703"/>
      <point x="77" y="705"/>
      <point x="85" y="711" type="curve" smooth="yes"/>
      <point x="92" y="716"/>
      <point x="99" y="724"/>
      <point x="104" y="733" type="curve" smooth="yes"/>
      <point x="117" y="754"/>
      <point x="120" y="781"/>
      <point x="120" y="798" type="curve" smooth="yes"/>
      <point x="120" y="824"/>
      <point x="112" y="841"/>
      <point x="104" y="853" type="curve" smooth="yes"/>
    </contour>
    <contour>
      <point x="34" y="802"/>
      <point x="37" y="814"/>
      <point x="40" y="826" type="curve"/>
      <point x="36" y="826"/>
      <point x="30" y="826"/>
      <point x="24" y="826" type="curve" smooth="yes"/>
      <point x="-14" y="825"/>
      <point x="-39" y="833"/>
      <point x="-50" y="837" type="curve" smooth="yes"/>
      <point x="-62" y="840"/>
      <point x="-70" y="842"/>
      <point x="-77" y="842" type="curve" smooth="yes"/>
      <point x="-89" y="842"/>
      <point x="-99" y="837"/>
      <point x="-107" y="822" type="curve" smooth="yes"/>
      <point x="-112" y="815"/>
      <point x="-117" y="807"/>
      <point x="-119" y="801" type="curve"/>
      <point x="-109" y="793" type="line"/>
      <point x="-103" y="803"/>
      <point x="-97" y="809"/>
      <point x="-80" y="809" type="curve" smooth="yes"/>
      <point x="-69" y="809"/>
      <point x="-58" y="805"/>
      <point x="-51" y="803" type="curve"/>
      <point x="-60" y="799"/>
      <point x="-71" y="794"/>
      <point x="-79" y="787" type="curve" smooth="yes"/>
      <point x="-92" y="778"/>
      <point x="-102" y="766"/>
      <point x="-110" y="753" type="curve" smooth="yes"/>
      <point x="-116" y="743"/>
      <point x="-121" y="732"/>
      <point x="-123" y="719" type="curve"/>
      <point x="-110" y="719" type="line"/>
      <point x="-93" y="775"/>
      <point x="-23" y="796"/>
      <point x="28" y="789" type="curve"/>
    </contour>
    <contour>
      <point x="-2" y="866" type="move" name="top"/>
    </contour>
    <contour>
      <point x="-2" y="681" type="move" name="_top"/>
    </contour>
  </outline>
</glyph>
<glyph name="uni0613" format="1">
  <advance width="0"/>
  <unicode hex="0613"/>
  <outline>
    <contour>
      <point x="-132" y="778"/>
      <point x="-124" y="768"/>
      <point x="-119" y="758" type="curve"/>
      <point x="-116" y="752"/>
      <point x="-103" y="729"/>
      <point x="-98" y="701" type="curve"/>
      <point x="-93" y="704" type="line"/>
      <point x="-88" y="715"/>
      <point x="-87" y="727"/>
      <point x="-87" y="734" type="curve" smooth="yes"/>
      <point x="-87" y="741"/>
      <point x="-88" y="749"/>
      <point x="-89" y="757" type="curve"/>
      <point x="-84" y="755"/>
      <point x="-79" y="754"/>
      <point x="-73" y="753" type="curve" smooth="yes"/>
      <point x="-66" y="752"/>
      <point x="-58" y="752"/>
      <point x="-48" y="752" type="curve" smooth="yes"/>
      <point x="-26" y="752"/>
      <point x="-1" y="761"/>
      <point x="20" y="777" type="curve"/>
      <point x="29" y="785"/>
      <point x="38" y="794"/>
      <point x="44" y="803" type="curve"/>
      <point x="50" y="813"/>
      <point x="53" y="824"/>
      <point x="53" y="835" type="curve" smooth="yes"/>
      <point x="53" y="843"/>
      <point x="49" y="853"/>
      <point x="39" y="861" type="curve" smooth="yes"/>
      <point x="30" y="867"/>
      <point x="20" y="871"/>
      <point x="13" y="871" type="curve" smooth="yes"/>
      <point x="-13" y="871"/>
      <point x="-38" y="846"/>
      <point x="-50" y="833" type="curve" smooth="yes"/>
      <point x="-65" y="818"/>
      <point x="-74" y="805"/>
      <point x="-80" y="794" type="curve"/>
      <point x="-97" y="795"/>
      <point x="-108" y="807"/>
      <point x="-117" y="818" type="curve"/>
      <point x="-125" y="808"/>
      <point x="-132" y="798"/>
      <point x="-138" y="787" type="curve"/>
    </contour>
    <contour>
      <point x="-55" y="802"/>
      <point x="-49" y="810"/>
      <point x="-42" y="817" type="curve"/>
      <point x="-32" y="827"/>
      <point x="-21" y="837"/>
      <point x="-3" y="837" type="curve" smooth="yes"/>
      <point x="5" y="837"/>
      <point x="12" y="833"/>
      <point x="16" y="830" type="curve"/>
      <point x="22" y="825"/>
      <point x="24" y="819"/>
      <point x="25" y="814" type="curve"/>
      <point x="21" y="810"/>
      <point x="16" y="805"/>
      <point x="3" y="800" type="curve"/>
      <point x="-5" y="797"/>
      <point x="-14" y="794"/>
      <point x="-27" y="794" type="curve" smooth="yes"/>
      <point x="-61" y="794" type="line"/>
    </contour>
    <contour>
      <point x="1" y="905"/>
      <point x="8" y="897"/>
      <point x="14" y="891" type="curve"/>
      <point x="21" y="897"/>
      <point x="31" y="906"/>
      <point x="35" y="911" type="curve"/>
      <point x="31" y="918"/>
      <point x="22" y="928"/>
      <point x="12" y="933" type="curve"/>
      <point x="8" y="929"/>
      <point x="-2" y="918"/>
      <point x="-8" y="912" type="curve"/>
    </contour>
    <contour>
      <point x="23" y="704" type="line"/>
      <point x="31" y="706"/>
      <point x="41" y="707"/>
      <point x="47" y="707" type="curve" smooth="yes"/>
      <point x="55" y="707"/>
      <point x="60" y="706"/>
      <point x="68" y="706" type="curve" smooth="yes"/>
      <point x="80" y="706"/>
      <point x="88" y="709"/>
      <point x="97" y="714" type="curve"/>
      <point x="105" y="719"/>
      <point x="111" y="728"/>
      <point x="116" y="736" type="curve"/>
      <point x="128" y="757"/>
      <point x="132" y="784"/>
      <point x="132" y="801" type="curve" smooth="yes"/>
      <point x="132" y="827"/>
      <point x="125" y="844"/>
      <point x="116" y="856" type="curve" smooth="yes"/>
      <point x="111" y="863"/>
      <point x="106" y="868"/>
      <point x="106" y="869" type="curve"/>
      <point x="97" y="859"/>
      <point x="90" y="848"/>
      <point x="83" y="836" type="curve"/>
      <point x="85" y="834"/>
      <point x="92" y="829"/>
      <point x="98" y="819" type="curve" smooth="yes"/>
      <point x="104" y="812"/>
      <point x="109" y="803"/>
      <point x="109" y="792" type="curve" smooth="yes"/>
      <point x="109" y="775"/>
      <point x="95" y="763"/>
      <point x="75" y="750" type="curve"/>
      <point x="68" y="744"/>
      <point x="53" y="736"/>
      <point x="41" y="729" type="curve" smooth="yes"/>
      <point x="34" y="725"/>
      <point x="26" y="721"/>
      <point x="15" y="715" type="curve"/>
    </contour>
    <contour>
      <point x="-3" y="933" type="move" name="top"/>
    </contour>
    <contour>
      <point x="-3" y="681" type="move" name="_top"/>
    </contour>
  </outline>
</glyph>
<glyph name="uni0616" format="1">
  <advance width="0"/>
  <unicode hex="0616"/>
  <outline>
    <contour>
      <point x="-117" y="727"/>
      <point x="-115" y="718"/>
      <point x="-105" y="710" type="curve"/>
      <point x="-95" y="704"/>
      <point x="-80" y="700"/>
      <point x="-61" y="700" type="curve" smooth="yes"/>
      <point x="20" y="700" type="line"/>
      <point x="29" y="712"/>
      <point x="35" y="721"/>
      <point x="41" y="733" type="curve"/>
      <point x="-66" y="733" type="line" smooth="yes"/>
      <point x="-83" y="733"/>
      <point x="-93" y="735"/>
      <point x="-93" y="742" type="curve" smooth="yes"/>
      <point x="-93" y="745"/>
      <point x="-90" y="749"/>
      <point x="-86" y="750" type="curve" smooth="yes"/>
      <point x="-81" y="752"/>
      <point x="-75" y="754"/>
      <point x="-71" y="756" type="curve"/>
      <point x="-65" y="759"/>
      <point x="-56" y="765"/>
      <point x="-54" y="768" type="curve" smooth="yes"/>
      <point x="-51" y="770"/>
      <point x="-45" y="776"/>
      <point x="-31" y="776" type="curve" smooth="yes"/>
      <point x="28" y="776" type="line" smooth="yes"/>
      <point x="33" y="776"/>
      <point x="38" y="776"/>
      <point x="42" y="778" type="curve" smooth="yes"/>
      <point x="48" y="780"/>
      <point x="54" y="784"/>
      <point x="58" y="789" type="curve"/>
      <point x="64" y="797"/>
      <point x="68" y="807"/>
      <point x="68" y="820" type="curve" smooth="yes"/>
      <point x="68" y="828"/>
      <point x="67" y="841"/>
      <point x="64" y="861" type="curve" smooth="yes"/>
      <point x="63" y="868"/>
      <point x="62" y="876"/>
      <point x="61" y="881" type="curve"/>
      <point x="58" y="895"/>
      <point x="66" y="900"/>
      <point x="70" y="902" type="curve"/>
      <point x="60" y="913"/>
      <point x="53" y="920"/>
      <point x="49" y="932" type="curve"/>
      <point x="31" y="906" type="line"/>
      <point x="38" y="883"/>
      <point x="46" y="846"/>
      <point x="50" y="820" type="curve"/>
      <point x="47" y="815"/>
      <point x="39" y="808"/>
      <point x="27" y="808" type="curve" smooth="yes"/>
      <point x="-7" y="808" type="line" smooth="yes"/>
      <point x="-19" y="808"/>
      <point x="-29" y="806"/>
      <point x="-36" y="802" type="curve"/>
      <point x="-42" y="798"/>
      <point x="-47" y="795"/>
      <point x="-49" y="791" type="curve"/>
      <point x="-54" y="786"/>
      <point x="-64" y="782"/>
      <point x="-73" y="776" type="curve"/>
      <point x="-83" y="772"/>
      <point x="-93" y="767"/>
      <point x="-101" y="761" type="curve"/>
      <point x="-111" y="753"/>
      <point x="-117" y="744"/>
      <point x="-117" y="732" type="curve" smooth="yes"/>
    </contour>
    <contour>
      <point x="83" y="907"/>
      <point x="83" y="892"/>
      <point x="86" y="866" type="curve"/>
      <point x="87" y="848"/>
      <point x="89" y="837"/>
      <point x="90" y="829" type="curve" smooth="yes"/>
      <point x="92" y="820"/>
      <point x="93" y="816"/>
      <point x="93" y="809" type="curve"/>
      <point x="94" y="794"/>
      <point x="94" y="778"/>
      <point x="93" y="776" type="curve"/>
      <point x="103" y="776" type="line"/>
      <point x="104" y="778"/>
      <point x="106" y="784"/>
      <point x="108" y="793" type="curve"/>
      <point x="112" y="813"/>
      <point x="115" y="839"/>
      <point x="109" y="886" type="curve"/>
      <point x="108" y="898"/>
      <point x="107" y="917"/>
      <point x="107" y="932" type="curve"/>
      <point x="99" y="932" type="line"/>
      <point x="95" y="928"/>
      <point x="89" y="919"/>
      <point x="83" y="908" type="curve"/>
    </contour>
    <contour>
      <point x="-2" y="932" type="move" name="top"/>
    </contour>
    <contour>
      <point x="-2" y="680" type="move" name="_top"/>
    </contour>
  </outline>
</glyph>
<glyph name="uni061F" format="1">
  <advance width="384"/>
  <unicode hex="061F"/>
  <outline>
    <contour>
      <point x="254" y="287" type="line"/>
      <point x="194" y="313"/>
      <point x="162" y="355"/>
      <point x="162" y="406" type="curve" smooth="yes"/>
      <point x="162" y="461"/>
      <point x="192" y="492"/>
      <point x="245" y="492" type="curve" smooth="yes"/>
      <point x="289" y="492"/>
      <point x="330" y="469"/>
      <point x="353" y="431" type="curve"/>
      <point x="363" y="460"/>
      <point x="367" y="484"/>
      <point x="367" y="517" type="curve"/>
      <point x="322" y="547"/>
      <point x="270" y="563"/>
      <point x="213" y="563" type="curve" smooth="yes"/>
      <point x="96" y="563"/>
      <point x="33" y="509"/>
      <point x="33" y="410" type="curve" smooth="yes"/>
      <point x="33" y="315"/>
      <point x="123" y="244"/>
      <point x="233" y="230" type="curve"/>
    </contour>
    <contour>
      <point x="249" y="33"/>
      <point x="276" y="60"/>
      <point x="308" y="86" type="curve"/>
      <point x="282" y="118"/>
      <point x="255" y="145"/>
      <point x="223" y="171" type="curve"/>
      <point x="197" y="139"/>
      <point x="170" y="113"/>
      <point x="138" y="86" type="curve"/>
      <point x="164" y="54"/>
      <point x="191" y="28"/>
      <point x="223" y="1" type="curve"/>
    </contour>
  </outline>
</glyph>
<glyph name="uni0621" format="1">
  <advance width="355"/>
  <unicode hex="0621"/>
  <outline>
    <contour>
      <point x="293" y="122"/>
      <point x="275" y="119"/>
      <point x="257" y="116" type="curve" smooth="yes"/>
      <point x="231" y="112"/>
      <point x="215" y="112"/>
      <point x="191" y="118" type="curve" smooth="yes"/>
      <point x="159" y="127"/>
      <point x="148" y="140"/>
      <point x="146" y="153" type="curve"/>
      <point x="161" y="163"/>
      <point x="184" y="174"/>
      <point x="215" y="174" type="curve" smooth="yes"/>
      <point x="231" y="174"/>
      <point x="246" y="171"/>
      <point x="258" y="165" type="curve"/>
      <point x="275" y="181" type="line"/>
      <point x="273" y="205"/>
      <point x="253" y="232"/>
      <point x="210" y="232" type="curve" smooth="yes"/>
      <point x="181" y="232"/>
      <point x="153" y="222"/>
      <point x="127" y="200" type="curve" smooth="yes"/>
      <point x="109" y="185"/>
      <point x="92" y="164"/>
      <point x="85" y="155" type="curve" smooth="yes"/>
      <point x="79" y="148"/>
      <point x="77" y="141"/>
      <point x="77" y="133" type="curve" smooth="yes"/>
      <point x="77" y="110"/>
      <point x="95" y="87"/>
      <point x="131" y="77" type="curve"/>
      <point x="104" y="61"/>
      <point x="79" y="45"/>
      <point x="62" y="27" type="curve" smooth="yes"/>
      <point x="53" y="18"/>
      <point x="53" y="10"/>
      <point x="55" y="6" type="curve" smooth="yes"/>
      <point x="57" y="-5"/>
      <point x="65" y="-10"/>
      <point x="73" y="-11" type="curve" smooth="yes"/>
      <point x="82" y="-6"/>
      <point x="122" y="20"/>
      <point x="176" y="38" type="curve" smooth="yes"/>
      <point x="211" y="49"/>
      <point x="242" y="58"/>
      <point x="277" y="60" type="curve"/>
      <point x="292" y="82"/>
      <point x="302" y="101"/>
      <point x="312" y="125" type="curve"/>
    </contour>
    <contour>
      <point x="181" y="270" type="move" name="top"/>
    </contour>
    <contour>
      <point x="177" y="2" type="move" name="bottom"/>
    </contour>
  </outline>
</glyph>
<glyph name="uni062F" format="1">
  <advance width="440"/>
  <unicode hex="062F"/>
  <outline>
    <contour>
      <point x="386" y="230"/>
      <point x="363" y="291"/>
      <point x="308" y="341" type="curve" smooth="yes"/>
      <point x="261" y="382"/>
      <point x="207" y="403"/>
      <point x="201" y="405" type="curve"/>
      <point x="187" y="369"/>
      <point x="178" y="335"/>
      <point x="170" y="297" type="curve"/>
      <point x="261" y="262"/>
      <point x="317" y="187"/>
      <point x="327" y="175" type="curve"/>
      <point x="319" y="165"/>
      <point x="289" y="115"/>
      <point x="212" y="115" type="curve" smooth="yes"/>
      <point x="171" y="115" type="line" smooth="yes"/>
      <point x="122" y="115"/>
      <point x="102" y="134"/>
      <point x="97" y="178" type="curve" smooth="yes"/>
      <point x="93" y="184"/>
      <point x="90" y="192"/>
      <point x="90" y="199" type="curve"/>
      <point x="52" y="185" type="line"/>
      <point x="51" y="178"/>
      <point x="31" y="93"/>
      <point x="75" y="37" type="curve" smooth="yes"/>
      <point x="98" y="8"/>
      <point x="136" y="-9"/>
      <point x="191" y="-9" type="curve" smooth="yes"/>
      <point x="250" y="-9"/>
      <point x="299" y="10"/>
      <point x="334" y="46" type="curve" smooth="yes"/>
      <point x="367" y="80"/>
      <point x="386" y="131"/>
      <point x="386" y="179" type="curve" smooth="yes"/>
    </contour>
    <contour>
      <point x="188" y="435" type="move" name="top"/>
    </contour>
    <contour>
      <point x="192" y="-38" type="move" name="bottom"/>
    </contour>
  </outline>
</glyph>
<glyph name="uni0631" format="1">
  <advance width="332"/>
  <unicode hex="0631"/>
  <outline>
    <contour>
      <point x="178" y="232"/>
      <point x="157" y="201"/>
      <point x="137" y="166" type="curve"/>
      <point x="142" y="161"/>
      <point x="161" y="145"/>
      <point x="182" y="118" type="curve" smooth="yes"/>
      <point x="198" y="96"/>
      <point x="213" y="71"/>
      <point x="213" y="39" type="curve" smooth="yes"/>
      <point x="213" y="-13"/>
      <point x="172" y="-47"/>
      <point x="114" y="-84" type="curve" smooth="yes"/>
      <point x="90" y="-101"/>
      <point x="49" y="-125"/>
      <point x="13" y="-145" type="curve" smooth="yes"/>
      <point x="-24" y="-165"/>
      <point x="-38" y="-172"/>
      <point x="-60" y="-184" type="curve"/>
      <point x="-37" y="-217" type="line"/>
      <point x="-13" y="-210"/>
      <point x="15" y="-207"/>
      <point x="35" y="-207" type="curve" smooth="yes"/>
      <point x="57" y="-207"/>
      <point x="72" y="-210"/>
      <point x="93" y="-210" type="curve" smooth="yes"/>
      <point x="128" y="-210"/>
      <point x="153" y="-203"/>
      <point x="178" y="-186" type="curve" smooth="yes"/>
      <point x="200" y="-171"/>
      <point x="219" y="-148"/>
      <point x="234" y="-123" type="curve" smooth="yes"/>
      <point x="269" y="-61"/>
      <point x="279" y="17"/>
      <point x="279" y="65" type="curve" smooth="yes"/>
      <point x="279" y="141"/>
      <point x="256" y="190"/>
      <point x="233" y="224" type="curve" smooth="yes"/>
      <point x="218" y="247"/>
      <point x="205" y="259"/>
      <point x="202" y="262" type="curve"/>
    </contour>
    <contour>
      <point x="81" y="30" type="move" name="center"/>
    </contour>
    <contour>
      <point x="64" y="-243" type="move" name="bottom"/>
    </contour>
    <contour>
      <point x="159" y="290" type="move" name="top"/>
    </contour>
  </outline>
</glyph>
<glyph name="uni0633" format="1">
  <advance width="914"/>
  <unicode hex="0633"/>
  <outline>
    <contour>
      <point x="787" y="272"/>
      <point x="771" y="251"/>
      <point x="756" y="226" type="curve"/>
      <point x="802" y="159" type="line"/>
      <point x="796" y="141"/>
      <point x="776" y="122"/>
      <point x="744" y="122" type="curve" smooth="yes"/>
      <point x="686" y="122"/>
      <point x="673" y="162"/>
      <point x="682" y="224" type="curve"/>
      <point x="641" y="207" type="line"/>
      <point x="637" y="166"/>
      <point x="620" y="122"/>
      <point x="565" y="122" type="curve" smooth="yes"/>
      <point x="536" y="122"/>
      <point x="493" y="147"/>
      <point x="473" y="195" type="curve"/>
      <point x="451" y="169"/>
      <point x="427" y="137"/>
      <point x="409" y="103" type="curve"/>
      <point x="447" y="52"/>
      <point x="494" y="-13"/>
      <point x="494" y="-51" type="curve" smooth="yes"/>
      <point x="494" y="-84"/>
      <point x="460" y="-109"/>
      <point x="414" y="-125" type="curve" smooth="yes"/>
      <point x="382" y="-137"/>
      <point x="342" y="-144"/>
      <point x="300" y="-144" type="curve" smooth="yes"/>
      <point x="234" y="-144"/>
      <point x="177" y="-127"/>
      <point x="149" y="-92" type="curve" smooth="yes"/>
      <point x="122" y="-59"/>
      <point x="123" y="-13"/>
      <point x="134" y="42" type="curve"/>
      <point x="99" y="54" type="line"/>
      <point x="80" y="12"/>
      <point x="67" y="-37"/>
      <point x="64" y="-75" type="curve" smooth="yes"/>
      <point x="62" y="-105"/>
      <point x="65" y="-139"/>
      <point x="78" y="-170" type="curve" smooth="yes"/>
      <point x="94" y="-208"/>
      <point x="122" y="-237"/>
      <point x="161" y="-257" type="curve" smooth="yes"/>
      <point x="197" y="-275"/>
      <point x="239" y="-284"/>
      <point x="291" y="-284" type="curve" smooth="yes"/>
      <point x="332" y="-284"/>
      <point x="367" y="-279"/>
      <point x="398" y="-269" type="curve" smooth="yes"/>
      <point x="439" y="-257"/>
      <point x="473" y="-234"/>
      <point x="499" y="-202" type="curve" smooth="yes"/>
      <point x="535" y="-160"/>
      <point x="554" y="-102"/>
      <point x="554" y="-34" type="curve" smooth="yes"/>
      <point x="554" y="-21"/>
      <point x="554" y="-2"/>
      <point x="552" y="11" type="curve"/>
      <point x="577" y="4"/>
      <point x="601" y="5"/>
      <point x="619" y="15" type="curve" smooth="yes"/>
      <point x="636" y="23"/>
      <point x="649" y="39"/>
      <point x="655" y="61" type="curve"/>
      <point x="658" y="55"/>
      <point x="665" y="40"/>
      <point x="682" y="28" type="curve" smooth="yes"/>
      <point x="695" y="18"/>
      <point x="715" y="10"/>
      <point x="742" y="10" type="curve" smooth="yes"/>
      <point x="779" y="10"/>
      <point x="809" y="31"/>
      <point x="830" y="60" type="curve" smooth="yes"/>
      <point x="851" y="91"/>
      <point x="861" y="130"/>
      <point x="861" y="153" type="curve" smooth="yes"/>
      <point x="861" y="250"/>
      <point x="813" y="291"/>
      <point x="809" y="296" type="curve"/>
    </contour>
    <contour>
      <point x="667" y="-114" type="move" name="center"/>
    </contour>
    <contour>
      <point x="298" y="-314" type="move" name="bottom"/>
    </contour>
    <contour>
      <point x="651" y="257" type="move" name="top"/>
    </contour>
  </outline>
</glyph>
<glyph name="uni0639" format="1">
  <advance width="520"/>
  <unicode hex="0639"/>
  <outline>
    <contour>
      <point x="377" y="239"/>
      <point x="297" y="212"/>
      <point x="260" y="197" type="curve"/>
      <point x="209" y="209"/>
      <point x="185" y="233"/>
      <point x="171" y="259" type="curve"/>
      <point x="189" y="276"/>
      <point x="212" y="295"/>
      <point x="251" y="305" type="curve" smooth="yes"/>
      <point x="295" y="317"/>
      <point x="323" y="312"/>
      <point x="355" y="303" type="curve"/>
      <point x="383" y="341" type="line"/>
      <point x="347" y="372"/>
      <point x="298" y="394"/>
      <point x="253" y="394" type="curve" smooth="yes"/>
      <point x="205" y="394"/>
      <point x="161" y="359"/>
      <point x="137" y="325" type="curve" smooth="yes"/>
      <point x="112" y="288"/>
      <point x="102" y="249"/>
      <point x="109" y="215" type="curve" smooth="yes"/>
      <point x="115" y="185"/>
      <point x="142" y="155"/>
      <point x="172" y="135" type="curve"/>
      <point x="136" y="102"/>
      <point x="77" y="30"/>
      <point x="65" y="-92" type="curve" smooth="yes"/>
      <point x="57" y="-176"/>
      <point x="80" y="-239"/>
      <point x="122" y="-286" type="curve" smooth="yes"/>
      <point x="166" y="-334"/>
      <point x="226" y="-361"/>
      <point x="297" y="-361" type="curve" smooth="yes"/>
      <point x="346" y="-361"/>
      <point x="372" y="-348"/>
      <point x="398" y="-334" type="curve" smooth="yes"/>
      <point x="423" y="-321"/>
      <point x="453" y="-306"/>
      <point x="496" y="-307" type="curve"/>
      <point x="509" y="-267" type="line"/>
      <point x="469" y="-260"/>
      <point x="440" y="-258"/>
      <point x="411" y="-257" type="curve"/>
      <point x="392" y="-256"/>
      <point x="348" y="-252"/>
      <point x="317" y="-247" type="curve" smooth="yes"/>
      <point x="257" y="-237"/>
      <point x="209" y="-216"/>
      <point x="179" y="-180" type="curve" smooth="yes"/>
      <point x="157" y="-153"/>
      <point x="140" y="-106"/>
      <point x="144" y="-56" type="curve" smooth="yes"/>
      <point x="148" y="-1"/>
      <point x="176" y="49"/>
      <point x="232" y="88" type="curve" smooth="yes"/>
      <point x="278" y="120"/>
      <point x="340" y="143"/>
      <point x="413" y="163" type="curve"/>
      <point x="425" y="194"/>
      <point x="432" y="223"/>
      <point x="439" y="258" type="curve"/>
    </contour>
    <contour>
      <point x="307" y="-57" type="move" name="center"/>
    </contour>
    <contour>
      <point x="297" y="-391" type="move" name="bottom"/>
    </contour>
    <contour>
      <point x="254" y="424" type="move" name="top"/>
    </contour>
  </outline>
</glyph>
<glyph name="uni0643" format="1">
  <advance width="779"/>
  <unicode hex="0643"/>
  <outline>
    <contour>
      <point x="692" y="517"/>
      <point x="665" y="555"/>
      <point x="647" y="597" type="curve"/>
      <point x="578" y="495" type="line"/>
      <point x="591" y="454"/>
      <point x="603" y="410"/>
      <point x="617" y="351" type="curve" smooth="yes"/>
      <point x="629" y="303"/>
      <point x="641" y="243"/>
      <point x="649" y="168" type="curve"/>
      <point x="634" y="145"/>
      <point x="617" y="127"/>
      <point x="571" y="122" type="curve"/>
      <point x="546" y="121"/>
      <point x="512" y="119"/>
      <point x="448" y="119" type="curve" smooth="yes"/>
      <point x="380" y="119"/>
      <point x="293" y="121"/>
      <point x="239" y="128" type="curve" smooth="yes"/>
      <point x="200" y="133"/>
      <point x="158" y="144"/>
      <point x="132" y="175" type="curve" smooth="yes"/>
      <point x="119" y="190"/>
      <point x="107" y="213"/>
      <point x="105" y="245" type="curve"/>
      <point x="68" y="255" type="line"/>
      <point x="60" y="193"/>
      <point x="62" y="144"/>
      <point x="78" y="105" type="curve" smooth="yes"/>
      <point x="90" y="77"/>
      <point x="110" y="52"/>
      <point x="138" y="35" type="curve" smooth="yes"/>
      <point x="163" y="20"/>
      <point x="196" y="6"/>
      <point x="238" y="0" type="curve" smooth="yes"/>
      <point x="277" y="-6"/>
      <point x="336" y="-8"/>
      <point x="391" y="-8" type="curve" smooth="yes"/>
      <point x="442" y="-8"/>
      <point x="534" y="-6"/>
      <point x="576" y="-3" type="curve" smooth="yes"/>
      <point x="611" y="-1"/>
      <point x="651" y="10"/>
      <point x="682" y="49" type="curve" smooth="yes"/>
      <point x="705" y="78"/>
      <point x="720" y="120"/>
      <point x="721" y="171" type="curve" smooth="yes"/>
      <point x="720" y="205"/>
      <point x="717" y="224"/>
      <point x="702" y="326" type="curve" smooth="yes"/>
      <point x="697" y="358"/>
      <point x="695" y="378"/>
      <point x="692" y="400" type="curve"/>
      <point x="689" y="443"/>
      <point x="694" y="458"/>
      <point x="725" y="482" type="curve"/>
    </contour>
    <contour>
      <point x="475" y="283"/>
      <point x="449" y="287"/>
      <point x="418" y="287" type="curve" smooth="yes"/>
      <point x="398" y="287"/>
      <point x="381" y="290"/>
      <point x="381" y="301" type="curve"/>
      <point x="394" y="312"/>
      <point x="414" y="322"/>
      <point x="439" y="329" type="curve"/>
      <point x="451" y="344"/>
      <point x="458" y="356"/>
      <point x="469" y="380" type="curve"/>
      <point x="444" y="375"/>
      <point x="416" y="367"/>
      <point x="386" y="352" type="curve"/>
      <point x="352" y="333"/>
      <point x="334" y="310"/>
      <point x="334" y="282" type="curve" smooth="yes"/>
      <point x="334" y="257"/>
      <point x="355" y="247"/>
      <point x="387" y="247" type="curve" smooth="yes"/>
      <point x="408" y="246"/>
      <point x="417" y="245"/>
      <point x="417" y="238" type="curve"/>
      <point x="417" y="224"/>
      <point x="334" y="199"/>
      <point x="281" y="185" type="curve"/>
      <point x="322" y="176"/>
      <point x="363" y="175"/>
      <point x="408" y="182" type="curve" smooth="yes"/>
      <point x="456" y="211"/>
      <point x="475" y="233"/>
      <point x="475" y="259" type="curve" smooth="yes"/>
    </contour>
    <contour>
      <point x="397" y="398" type="move" name="top"/>
    </contour>
    <contour>
      <point x="399" y="-47" type="move" name="bottom"/>
    </contour>
  </outline>
</glyph>
<glyph name="uni0649" format="1">
  <advance width="682"/>
  <unicode hex="0649"/>
  <outline>
    <contour>
      <point x="448" y="155"/>
      <point x="413" y="165"/>
      <point x="412" y="181" type="curve"/>
      <point x="413" y="187"/>
      <point x="421" y="211"/>
      <point x="442" y="235" type="curve" smooth="yes"/>
      <point x="468" y="262"/>
      <point x="507" y="282"/>
      <point x="559" y="282" type="curve"/>
      <point x="563" y="278"/>
      <point x="586" y="243"/>
      <point x="593" y="229" type="curve"/>
      <point x="626" y="245" type="line"/>
      <point x="626" y="250"/>
      <point x="629" y="330"/>
      <point x="592" y="370" type="curve" smooth="yes"/>
      <point x="577" y="386"/>
      <point x="556" y="395"/>
      <point x="532" y="395" type="curve" smooth="yes"/>
      <point x="481" y="395"/>
      <point x="430" y="360"/>
      <point x="387" y="276" type="curve" smooth="yes"/>
      <point x="355" y="213"/>
      <point x="340" y="146"/>
      <point x="340" y="122" type="curve" smooth="yes"/>
      <point x="340" y="101"/>
      <point x="350" y="79"/>
      <point x="378" y="63" type="curve" smooth="yes"/>
      <point x="397" y="53"/>
      <point x="422" y="45"/>
      <point x="453" y="40" type="curve" smooth="yes"/>
      <point x="507" y="32"/>
      <point x="536" y="26"/>
      <point x="547" y="24" type="curve"/>
      <point x="538" y="16"/>
      <point x="512" y="-8"/>
      <point x="465" y="-28" type="curve" smooth="yes"/>
      <point x="432" y="-41"/>
      <point x="378" y="-58"/>
      <point x="301" y="-58" type="curve" smooth="yes"/>
      <point x="230" y="-58"/>
      <point x="179" y="-43"/>
      <point x="150" y="-8" type="curve" smooth="yes"/>
      <point x="113" y="37"/>
      <point x="131" y="118"/>
      <point x="135" y="138" type="curve"/>
      <point x="100" y="150" type="line"/>
      <point x="94" y="137"/>
      <point x="67" y="61"/>
      <point x="64" y="10" type="curve" smooth="yes"/>
      <point x="62" y="-32"/>
      <point x="70" y="-71"/>
      <point x="92" y="-102" type="curve" smooth="yes"/>
      <point x="116" y="-138"/>
      <point x="153" y="-163"/>
      <point x="198" y="-176" type="curve" smooth="yes"/>
      <point x="242" y="-190"/>
      <point x="295" y="-192"/>
      <point x="349" y="-183" type="curve" smooth="yes"/>
      <point x="405" y="-176"/>
      <point x="468" y="-155"/>
      <point x="513" y="-126" type="curve" smooth="yes"/>
      <point x="581" y="-80"/>
      <point x="629" y="-8"/>
      <point x="629" y="71" type="curve" smooth="yes"/>
      <point x="629" y="98"/>
      <point x="617" y="138"/>
      <point x="494" y="150" type="curve" smooth="yes"/>
    </contour>
    <contour>
      <point x="207" y="149" type="move" name="top"/>
    </contour>
    <contour>
      <point x="312" y="-230" type="move" name="bottom"/>
    </contour>
  </outline>
</glyph>
<glyph name="uni064B" format="1">
  <advance width="0"/>
  <unicode hex="064B"/>
  <outline>
    <contour>
      <point x="46" y="791"/>
      <point x="-38" y="759"/>
      <point x="-80" y="736" type="curve"/>
      <point x="-84" y="727"/>
      <point x="-88" y="713"/>
      <point x="-91" y="700" type="curve"/>
      <point x="-64" y="711"/>
      <point x="35" y="754"/>
      <point x="79" y="768" type="curve"/>
      <point x="85" y="782"/>
      <point x="88" y="790"/>
      <point x="90" y="804" type="curve"/>
    </contour>
    <contour>
      <point x="46" y="864"/>
      <point x="-38" y="832"/>
      <point x="-80" y="809" type="curve"/>
      <point x="-84" y="800"/>
      <point x="-88" y="786"/>
      <point x="-91" y="773" type="curve"/>
      <point x="-64" y="784"/>
      <point x="35" y="827"/>
      <point x="79" y="841" type="curve"/>
      <point x="85" y="855"/>
      <point x="88" y="862"/>
      <point x="90" y="876" type="curve"/>
    </contour>
    <contour>
      <point x="0" y="876" type="move" name="top"/>
    </contour>
    <contour>
      <point x="0" y="670" type="move" name="_top"/>
    </contour>
  </outline>
</glyph>
<glyph name="uni064C" format="1">
  <advance width="0"/>
  <unicode hex="064C"/>
  <outline>
    <contour>
      <point x="68" y="789" type="line"/>
      <point x="86" y="825"/>
      <point x="93" y="867"/>
      <point x="64" y="882" type="curve"/>
      <point x="43" y="893"/>
      <point x="17" y="886"/>
      <point x="-8" y="857" type="curve" smooth="yes"/>
      <point x="-20" y="842"/>
      <point x="-21" y="828"/>
      <point x="-17" y="814" type="curve" smooth="yes"/>
      <point x="-12" y="797"/>
      <point x="3" y="784"/>
      <point x="24" y="776" type="curve"/>
      <point x="9" y="759"/>
      <point x="-10" y="746"/>
      <point x="-34" y="741" type="curve"/>
      <point x="-19" y="768"/>
      <point x="-40" y="802"/>
      <point x="-57" y="801" type="curve" smooth="yes"/>
      <point x="-63" y="800"/>
      <point x="-76" y="796"/>
      <point x="-87" y="789" type="curve"/>
      <point x="-92" y="779"/>
      <point x="-93" y="776"/>
      <point x="-94" y="765" type="curve"/>
      <point x="-85" y="772"/>
      <point x="-62" y="781"/>
      <point x="-51" y="769" type="curve" smooth="yes"/>
      <point x="-45" y="762"/>
      <point x="-46" y="749"/>
      <point x="-57" y="739" type="curve"/>
      <point x="-63" y="738"/>
      <point x="-70" y="738"/>
      <point x="-78" y="739" type="curve"/>
      <point x="-85" y="728"/>
      <point x="-89" y="720"/>
      <point x="-95" y="702" type="curve"/>
      <point x="-60" y="700"/>
      <point x="-28" y="704"/>
      <point x="0" y="717" type="curve" smooth="yes"/>
      <point x="22" y="727"/>
      <point x="38" y="739"/>
      <point x="50" y="759" type="curve"/>
      <point x="83" y="746" type="line"/>
      <point x="84" y="765"/>
      <point x="84" y="768"/>
      <point x="82" y="783" type="curve"/>
    </contour>
    <contour>
      <point x="26" y="811" type="line" smooth="yes"/>
      <point x="11" y="818"/>
      <point x="6" y="828"/>
      <point x="6" y="834" type="curve"/>
      <point x="6" y="842"/>
      <point x="12" y="851"/>
      <point x="23" y="854" type="curve" smooth="yes"/>
      <point x="35" y="856"/>
      <point x="44" y="852"/>
      <point x="49" y="844" type="curve" smooth="yes"/>
      <point x="56" y="834"/>
      <point x="54" y="817"/>
      <point x="45" y="801" type="curve"/>
    </contour>
    <contour>
      <point x="-5" y="889" type="move" name="top"/>
    </contour>
    <contour>
      <point x="-5" y="671" type="move" name="_top"/>
    </contour>
  </outline>
</glyph>
<glyph name="uni064F" format="1">
  <advance width="0"/>
  <unicode hex="064F"/>
  <outline>
    <contour>
      <point x="70" y="792" type="line"/>
      <point x="88" y="827"/>
      <point x="95" y="869"/>
      <point x="67" y="884" type="curve" smooth="yes"/>
      <point x="46" y="895"/>
      <point x="19" y="885"/>
      <point x="-5" y="856" type="curve" smooth="yes"/>
      <point x="-19" y="839"/>
      <point x="-23" y="823"/>
      <point x="-20" y="809" type="curve" smooth="yes"/>
      <point x="-15" y="791"/>
      <point x="0" y="779"/>
      <point x="19" y="770" type="curve"/>
      <point x="-5" y="749"/>
      <point x="-34" y="741"/>
      <point x="-75" y="745" type="curve"/>
      <point x="-82" y="733"/>
      <point x="-86" y="722"/>
      <point x="-92" y="705" type="curve"/>
      <point x="-30" y="700"/>
      <point x="0" y="712"/>
      <point x="20" y="727" type="curve" smooth="yes"/>
      <point x="36" y="738"/>
      <point x="45" y="748"/>
      <point x="52" y="758" type="curve"/>
      <point x="86" y="745" type="line"/>
      <point x="87" y="764"/>
      <point x="86" y="771"/>
      <point x="85" y="785" type="curve"/>
    </contour>
    <contour>
      <point x="29" y="811" type="line" smooth="yes"/>
      <point x="14" y="819"/>
      <point x="9" y="828"/>
      <point x="9" y="835" type="curve" smooth="yes"/>
      <point x="9" y="842"/>
      <point x="15" y="851"/>
      <point x="26" y="854" type="curve" smooth="yes"/>
      <point x="34" y="856"/>
      <point x="42" y="854"/>
      <point x="50" y="846" type="curve" smooth="yes"/>
      <point x="59" y="838"/>
      <point x="57" y="818"/>
      <point x="48" y="801" type="curve"/>
    </contour>
    <contour>
      <point x="-3" y="889" type="move" name="top"/>
    </contour>
    <contour>
      <point x="-3" y="673" type="move" name="_top"/>
    </contour>
  </outline>
</glyph>
<glyph name="uni0651" format="1">
  <advance width="0"/>
  <unicode hex="0651"/>
  <outline>
    <contour>
      <point x="85" y="821"/>
      <point x="82" y="819"/>
      <point x="80" y="818" type="curve"/>
      <point x="77" y="792"/>
      <point x="64" y="774"/>
      <point x="40" y="773" type="curve" smooth="yes"/>
      <point x="19" y="771"/>
      <point x="7" y="787"/>
      <point x="5" y="811" type="curve"/>
      <point x="1" y="809"/>
      <point x="-2" y="809"/>
      <point x="-6" y="808" type="curve"/>
      <point x="-6" y="770"/>
      <point x="-28" y="749"/>
      <point x="-52" y="749" type="curve" smooth="yes"/>
      <point x="-73" y="749"/>
      <point x="-78" y="767"/>
      <point x="-79" y="787" type="curve"/>
      <point x="-82" y="785"/>
      <point x="-85" y="783"/>
      <point x="-90" y="783" type="curve"/>
      <point x="-92" y="765"/>
      <point x="-92" y="748"/>
      <point x="-88" y="734" type="curve" smooth="yes"/>
      <point x="-82" y="712"/>
      <point x="-68" y="700"/>
      <point x="-47" y="700" type="curve" smooth="yes"/>
      <point x="-32" y="700"/>
      <point x="-17" y="706"/>
      <point x="-8" y="723" type="curve" smooth="yes"/>
      <point x="-3" y="732"/>
      <point x="0" y="742"/>
      <point x="0" y="756" type="curve"/>
      <point x="5" y="738"/>
      <point x="18" y="726"/>
      <point x="37" y="726" type="curve" smooth="yes"/>
      <point x="48" y="726"/>
      <point x="63" y="730"/>
      <point x="75" y="747" type="curve" smooth="yes"/>
      <point x="84" y="761"/>
      <point x="92" y="784"/>
      <point x="89" y="822" type="curve"/>
    </contour>
    <contour>
      <point x="-1" y="822" type="move" name="top"/>
    </contour>
    <contour>
      <point x="-1" y="669" type="move" name="_top"/>
    </contour>
  </outline>
</glyph>
<glyph name="uni0652" format="1">
  <advance width="0"/>
  <unicode hex="0652"/>
  <outline>
    <contour>
      <point x="-31" y="815"/>
      <point x="-53" y="789"/>
      <point x="-53" y="752" type="curve" smooth="yes"/>
      <point x="-53" y="737"/>
      <point x="-43" y="700"/>
      <point x="-1" y="700" type="curve" smooth="yes"/>
      <point x="22" y="700"/>
      <point x="38" y="708"/>
      <point x="46" y="722" type="curve" smooth="yes"/>
      <point x="53" y="735"/>
      <point x="54" y="750"/>
      <point x="54" y="759" type="curve" smooth="yes"/>
      <point x="54" y="792"/>
      <point x="31" y="821"/>
      <point x="-8" y="837" type="curve"/>
    </contour>
    <contour>
      <point x="15" y="784"/>
      <point x="35" y="772"/>
      <point x="35" y="758" type="curve" smooth="yes"/>
      <point x="35" y="741"/>
      <point x="17" y="741"/>
      <point x="12" y="741" type="curve" smooth="yes"/>
      <point x="-11" y="741"/>
      <point x="-30" y="755"/>
      <point x="-30" y="769" type="curve" smooth="yes"/>
      <point x="-30" y="780"/>
      <point x="-22" y="791"/>
      <point x="-17" y="798" type="curve"/>
    </contour>
    <contour>
      <point x="1" y="840" type="move" name="top"/>
    </contour>
    <contour>
      <point x="1" y="664" type="move" name="_top"/>
    </contour>
  </outline>
</glyph>
<glyph name="uni0655" format="1">
  <advance width="0"/>
  <unicode hex="0655"/>
  <outline>
    <contour>
      <point x="80" y="-287"/>
      <point x="68" y="-290"/>
      <point x="55" y="-292" type="curve" smooth="yes"/>
      <point x="36" y="-294"/>
      <point x="24" y="-295"/>
      <point x="7" y="-290" type="curve" smooth="yes"/>
      <point x="-16" y="-284"/>
      <point x="-24" y="-274"/>
      <point x="-26" y="-263" type="curve"/>
      <point x="-14" y="-256"/>
      <point x="2" y="-248"/>
      <point x="25" y="-248" type="curve" smooth="yes"/>
      <point x="36" y="-248"/>
      <point x="46" y="-251"/>
      <point x="56" y="-255" type="curve"/>
      <point x="67" y="-243" type="line"/>
      <point x="65" y="-227"/>
      <point x="53" y="-208"/>
      <point x="21" y="-208" type="curve" smooth="yes"/>
      <point x="0" y="-208"/>
      <point x="-20" y="-215"/>
      <point x="-39" y="-231" type="curve" smooth="yes"/>
      <point x="-52" y="-241"/>
      <point x="-64" y="-256"/>
      <point x="-69" y="-263" type="curve" smooth="yes"/>
      <point x="-73" y="-268"/>
      <point x="-74" y="-273"/>
      <point x="-74" y="-279" type="curve" smooth="yes"/>
      <point x="-74" y="-295"/>
      <point x="-62" y="-311"/>
      <point x="-34" y="-320" type="curve"/>
      <point x="-55" y="-330"/>
      <point x="-75" y="-343"/>
      <point x="-87" y="-357" type="curve" smooth="yes"/>
      <point x="-91" y="-363"/>
      <point x="-91" y="-368"/>
      <point x="-90" y="-371" type="curve" smooth="yes"/>
      <point x="-88" y="-380"/>
      <point x="-79" y="-382"/>
      <point x="-78" y="-382" type="curve" smooth="yes"/>
      <point x="-71" y="-378"/>
      <point x="-42" y="-360"/>
      <point x="-3" y="-347" type="curve" smooth="yes"/>
      <point x="21" y="-338"/>
      <point x="43" y="-332"/>
      <point x="69" y="-330" type="curve"/>
      <point x="79" y="-315"/>
      <point x="86" y="-303"/>
      <point x="93" y="-285" type="curve"/>
    </contour>
    <contour>
      <point x="2" y="-178" type="move" name="_bottom"/>
    </contour>
    <contour>
      <point x="2" y="-382" type="move" name="bottom"/>
    </contour>
  </outline>
</glyph>
<glyph name="uni0659" format="1">
  <advance width="0"/>
  <unicode hex="0659"/>
  <outline>
    <contour>
      <point x="63" y="743"/>
      <point x="-37" y="741"/>
      <point x="-88" y="734" type="curve"/>
      <point x="-96" y="725"/>
      <point x="-108" y="709"/>
      <point x="-112" y="699" type="curve"/>
      <point x="-80" y="701"/>
      <point x="39" y="708"/>
      <point x="89" y="706" type="curve"/>
      <point x="99" y="718"/>
      <point x="104" y="724"/>
      <point x="112" y="740" type="curve"/>
    </contour>
    <contour>
      <point x="0" y="741" type="move" name="top"/>
    </contour>
    <contour>
      <point x="0" y="679" type="move" name="_top"/>
    </contour>
  </outline>
</glyph>
<glyph name="uni065C" format="1">
  <advance width="0"/>
  <unicode hex="065C"/>
  <outline>
    <contour>
      <point x="26" y="-288"/>
      <point x="45" y="-268"/>
      <point x="45" y="-243" type="curve" smooth="yes"/>
      <point x="45" y="-218"/>
      <point x="26" y="-199"/>
      <point x="0" y="-199" type="curve" smooth="yes"/>
      <point x="-25" y="-199"/>
      <point x="-44" y="-218"/>
      <point x="-44" y="-243" type="curve" smooth="yes"/>
      <point x="-44" y="-268"/>
      <point x="-25" y="-288"/>
      <point x="0" y="-288" type="curve" smooth="yes"/>
    </contour>
    <contour>
      <point x="0" y="-179" type="move" name="_bottom"/>
    </contour>
    <contour>
      <point x="0" y="-288" type="move" name="bottom"/>
    </contour>
  </outline>
</glyph>
<glyph name="uni065D" format="1">
  <advance width="0"/>
  <unicode hex="065D"/>
  <outline>
    <contour>
      <point x="-64" y="797" type="line"/>
      <point x="-81" y="764"/>
      <point x="-87" y="725"/>
      <point x="-61" y="712" type="curve" smooth="yes"/>
      <point x="-42" y="702"/>
      <point x="-17" y="711"/>
      <point x="4" y="738" type="curve" smooth="yes"/>
      <point x="17" y="753"/>
      <point x="21" y="767"/>
      <point x="18" y="780" type="curve" smooth="yes"/>
      <point x="14" y="797"/>
      <point x="-1" y="808"/>
      <point x="-18" y="815" type="curve"/>
      <point x="4" y="835"/>
      <point x="31" y="844"/>
      <point x="69" y="840" type="curve"/>
      <point x="75" y="850"/>
      <point x="80" y="860"/>
      <point x="85" y="876" type="curve"/>
      <point x="29" y="880"/>
      <point x="0" y="869"/>
      <point x="-19" y="855" type="curve" smooth="yes"/>
      <point x="-33" y="845"/>
      <point x="-40" y="837"/>
      <point x="-48" y="826" type="curve"/>
      <point x="-78" y="839" type="line"/>
      <point x="-79" y="822"/>
      <point x="-79" y="816"/>
      <point x="-77" y="803" type="curve"/>
    </contour>
    <contour>
      <point x="-27" y="778" type="line"/>
      <point x="-14" y="771"/>
      <point x="-10" y="763"/>
      <point x="-10" y="757" type="curve" smooth="yes"/>
      <point x="-10" y="750"/>
      <point x="-14" y="742"/>
      <point x="-25" y="739" type="curve" smooth="yes"/>
      <point x="-32" y="737"/>
      <point x="-40" y="739"/>
      <point x="-47" y="747" type="curve" smooth="yes"/>
      <point x="-55" y="755"/>
      <point x="-54" y="772"/>
      <point x="-44" y="788" type="curve"/>
    </contour>
    <contour>
      <point x="2" y="877" type="move" name="top"/>
    </contour>
    <contour>
      <point x="2" y="688" type="move" name="_top"/>
    </contour>
  </outline>
</glyph>
<glyph name="uni065E" format="1">
  <advance width="0"/>
  <unicode hex="065E"/>
  <outline>
    <contour>
      <point x="-69" y="833"/>
      <point x="-58" y="821"/>
      <point x="-49" y="810" type="curve"/>
      <point x="-37" y="820"/>
      <point x="-23" y="835"/>
      <point x="-18" y="841" type="curve"/>
      <point x="-24" y="853"/>
      <point x="-38" y="866"/>
      <point x="-51" y="874" type="curve"/>
      <point x="-57" y="867"/>
      <point x="-73" y="850"/>
      <point x="-82" y="843" type="curve"/>
    </contour>
    <contour>
      <point x="-81" y="731"/>
      <point x="-80" y="711"/>
      <point x="-79" y="700" type="curve"/>
      <point x="-52" y="720"/>
      <point x="40" y="793"/>
      <point x="83" y="820" type="curve"/>
      <point x="83" y="842"/>
      <point x="83" y="854"/>
      <point x="82" y="871" type="curve"/>
      <point x="39" y="846"/>
      <point x="-41" y="787"/>
      <point x="-80" y="751" type="curve"/>
    </contour>
    <contour>
      <point x="29" y="725"/>
      <point x="40" y="713"/>
      <point x="49" y="702" type="curve"/>
      <point x="61" y="712"/>
      <point x="75" y="727"/>
      <point x="80" y="733" type="curve"/>
      <point x="74" y="745"/>
      <point x="60" y="758"/>
      <point x="47" y="766" type="curve"/>
      <point x="41" y="759"/>
      <point x="25" y="742"/>
      <point x="16" y="735" type="curve"/>
    </contour>
    <contour>
      <point x="1" y="894" type="move" name="_bottom"/>
    </contour>
    <contour>
      <point x="1" y="700" type="move" name="bottom"/>
    </contour>
  </outline>
</glyph>
<glyph name="uni0660" format="1">
  <advance width="245"/>
  <unicode hex="0660"/>
  <outline>
    <contour>
      <point x="47" y="206" type="line"/>
      <point x="129" y="126" type="line"/>
      <point x="209" y="206" type="line"/>
      <point x="129" y="287" type="line"/>
    </contour>
  </outline>
</glyph>
<glyph name="uni0664" format="1">
  <advance width="388"/>
  <unicode hex="0664"/>
  <outline>
    <contour>
      <point x="309" y="117" type="line"/>
      <point x="292" y="94"/>
      <point x="272" y="81"/>
      <point x="229" y="81" type="curve" smooth="yes"/>
      <point x="183" y="81"/>
      <point x="162" y="106"/>
      <point x="152" y="128" type="curve"/>
      <point x="158" y="136"/>
      <point x="176" y="160"/>
      <point x="195" y="186" type="curve" smooth="yes"/>
      <point x="224" y="227"/>
      <point x="238" y="254"/>
      <point x="240" y="272" type="curve" smooth="yes"/>
      <point x="245" y="291"/>
      <point x="228" y="303"/>
      <point x="207" y="315" type="curve" smooth="yes"/>
      <point x="192" y="324"/>
      <point x="164" y="335"/>
      <point x="148" y="349" type="curve" smooth="yes"/>
      <point x="135" y="361"/>
      <point x="128" y="375"/>
      <point x="125" y="384" type="curve"/>
      <point x="155" y="414"/>
      <point x="191" y="435"/>
      <point x="241" y="452" type="curve"/>
      <point x="249" y="489"/>
      <point x="254" y="516"/>
      <point x="254" y="553" type="curve"/>
      <point x="155" y="511"/>
      <point x="83" y="444"/>
      <point x="51" y="351" type="curve" smooth="yes"/>
      <point x="41" y="321"/>
      <point x="50" y="292"/>
      <point x="100" y="271" type="curve" smooth="yes"/>
      <point x="137" y="256"/>
      <point x="155" y="244"/>
      <point x="149" y="231" type="curve" smooth="yes"/>
      <point x="141" y="207"/>
      <point x="47" y="128"/>
      <point x="47" y="69" type="curve" smooth="yes"/>
      <point x="47" y="57"/>
      <point x="73" y="0"/>
      <point x="186" y="0" type="curve" smooth="yes"/>
      <point x="278" y="0"/>
      <point x="327" y="54"/>
      <point x="352" y="133" type="curve"/>
    </contour>
  </outline>
</glyph>
<glyph name="uni0665" format="1">
  <advance width="404"/>
  <unicode hex="0665"/>
  <outline>
    <contour>
      <point x="367" y="307"/>
      <point x="353" y="367"/>
      <point x="328" y="412" type="curve" smooth="yes"/>
      <point x="299" y="466"/>
      <point x="258" y="495"/>
      <point x="214" y="495" type="curve" smooth="yes"/>
      <point x="193" y="495"/>
      <point x="172" y="484"/>
      <point x="153" y="463" type="curve" smooth="yes"/>
      <point x="120" y="430"/>
      <point x="93" y="374"/>
      <point x="75" y="318" type="curve" smooth="yes"/>
      <point x="63" y="281"/>
      <point x="55" y="242"/>
      <point x="51" y="204" type="curve" smooth="yes"/>
      <point x="47" y="175"/>
      <point x="46" y="146"/>
      <point x="48" y="118" type="curve"/>
      <point x="48" y="117"/>
      <point x="57" y="92"/>
      <point x="77" y="70" type="curve" smooth="yes"/>
      <point x="100" y="46"/>
      <point x="136" y="23"/>
      <point x="190" y="23" type="curve" smooth="yes"/>
      <point x="220" y="23"/>
      <point x="246" y="29"/>
      <point x="269" y="41" type="curve" smooth="yes"/>
      <point x="291" y="52"/>
      <point x="310" y="68"/>
      <point x="325" y="88" type="curve" smooth="yes"/>
      <point x="353" y="127"/>
      <point x="368" y="184"/>
      <point x="367" y="247" type="curve" smooth="yes"/>
    </contour>
    <contour>
      <point x="320" y="208"/>
      <point x="315" y="192"/>
      <point x="299" y="176" type="curve" smooth="yes"/>
      <point x="278" y="154"/>
      <point x="246" y="141"/>
      <point x="201" y="141" type="curve" smooth="yes"/>
      <point x="173" y="141"/>
      <point x="148" y="147"/>
      <point x="133" y="162" type="curve" smooth="yes"/>
      <point x="118" y="174"/>
      <point x="115" y="190"/>
      <point x="115" y="201" type="curve"/>
      <point x="115" y="203"/>
      <point x="118" y="246"/>
      <point x="131" y="288" type="curve" smooth="yes"/>
      <point x="139" y="316"/>
      <point x="150" y="341"/>
      <point x="164" y="357" type="curve" smooth="yes"/>
      <point x="178" y="374"/>
      <point x="194" y="383"/>
      <point x="214" y="383" type="curve" smooth="yes"/>
      <point x="233" y="383"/>
      <point x="249" y="376"/>
      <point x="263" y="362" type="curve" smooth="yes"/>
      <point x="279" y="346"/>
      <point x="291" y="324"/>
      <point x="299" y="303" type="curve" smooth="yes"/>
      <point x="313" y="270"/>
      <point x="319" y="240"/>
      <point x="322" y="221" type="curve"/>
    </contour>
  </outline>
</glyph>
<glyph name="uni0666" format="1">
  <advance width="426"/>
  <unicode hex="0666"/>
  <outline>
    <contour>
      <point x="325" y="156"/>
      <point x="302" y="222"/>
      <point x="307" y="338" type="curve" smooth="yes"/>
      <point x="307" y="340"/>
      <point x="311" y="445"/>
      <point x="313" y="504" type="curve"/>
      <point x="297" y="514" type="line"/>
      <point x="264" y="496"/>
      <point x="226" y="483"/>
      <point x="182" y="483" type="curve" smooth="yes"/>
      <point x="114" y="483"/>
      <point x="90" y="511"/>
      <point x="92" y="557" type="curve"/>
      <point x="52" y="548" type="line"/>
      <point x="47" y="496"/>
      <point x="53" y="448"/>
      <point x="78" y="420" type="curve" smooth="yes"/>
      <point x="101" y="393"/>
      <point x="136" y="378"/>
      <point x="174" y="378" type="curve"/>
      <point x="200" y="378"/>
      <point x="211" y="382"/>
      <point x="237" y="390" type="curve"/>
      <point x="237" y="225" type="line"/>
      <point x="237" y="168"/>
      <point x="251" y="127"/>
      <point x="268" y="92" type="curve" smooth="yes"/>
      <point x="289" y="47"/>
      <point x="318" y="25"/>
      <point x="371" y="0" type="curve"/>
      <point x="382" y="45"/>
      <point x="389" y="80"/>
      <point x="389" y="127" type="curve"/>
    </contour>
  </outline>
</glyph>
<glyph name="uni0667" format="1">
  <advance width="462"/>
  <unicode hex="0667"/>
  <outline>
    <contour>
      <point x="417" y="479"/>
      <point x="405" y="512"/>
      <point x="385" y="552" type="curve"/>
      <point x="350" y="498"/>
      <point x="322" y="447"/>
      <point x="300" y="398" type="curve" smooth="yes"/>
      <point x="286" y="367"/>
      <point x="273" y="338"/>
      <point x="263" y="312" type="curve" smooth="yes"/>
      <point x="249" y="273"/>
      <point x="241" y="242"/>
      <point x="236" y="222" type="curve"/>
      <point x="231" y="243"/>
      <point x="222" y="275"/>
      <point x="209" y="313" type="curve" smooth="yes"/>
      <point x="199" y="339"/>
      <point x="188" y="367"/>
      <point x="175" y="396" type="curve" smooth="yes"/>
      <point x="152" y="445"/>
      <point x="123" y="497"/>
      <point x="86" y="553" type="curve"/>
      <point x="69" y="517"/>
      <point x="57" y="486"/>
      <point x="47" y="442" type="curve"/>
      <point x="112" y="348"/>
      <point x="161" y="251"/>
      <point x="187" y="157" type="curve" smooth="yes"/>
      <point x="205" y="96"/>
      <point x="209" y="60"/>
      <point x="212" y="0" type="curve"/>
      <point x="258" y="0" type="line"/>
      <point x="263" y="58"/>
      <point x="269" y="109"/>
      <point x="285" y="161" type="curve" smooth="yes"/>
      <point x="313" y="256"/>
      <point x="360" y="349"/>
      <point x="425" y="442" type="curve"/>
    </contour>
  </outline>
</glyph>
<glyph name="uni0668" format="1">
  <advance width="462"/>
  <unicode hex="0668"/>
  <outline>
    <contour>
      <point x="55" y="74"/>
      <point x="67" y="41"/>
      <point x="87" y="1" type="curve"/>
      <point x="122" y="55"/>
      <point x="150" y="106"/>
      <point x="172" y="155" type="curve" smooth="yes"/>
      <point x="187" y="186"/>
      <point x="199" y="215"/>
      <point x="209" y="241" type="curve" smooth="yes"/>
      <point x="223" y="280"/>
      <point x="231" y="311"/>
      <point x="236" y="331" type="curve"/>
      <point x="242" y="310"/>
      <point x="250" y="278"/>
      <point x="264" y="240" type="curve" smooth="yes"/>
      <point x="273" y="214"/>
      <point x="284" y="186"/>
      <point x="298" y="157" type="curve" smooth="yes"/>
      <point x="320" y="108"/>
      <point x="349" y="56"/>
      <point x="386" y="0" type="curve"/>
      <point x="403" y="36"/>
      <point x="415" y="67"/>
      <point x="425" y="111" type="curve"/>
      <point x="360" y="205"/>
      <point x="311" y="302"/>
      <point x="285" y="396" type="curve" smooth="yes"/>
      <point x="268" y="457"/>
      <point x="263" y="493"/>
      <point x="260" y="553" type="curve"/>
      <point x="214" y="553" type="line"/>
      <point x="210" y="495"/>
      <point x="203" y="444"/>
      <point x="187" y="392" type="curve" smooth="yes"/>
      <point x="159" y="297"/>
      <point x="113" y="204"/>
      <point x="47" y="111" type="curve"/>
    </contour>
  </outline>
</glyph>
<glyph name="uni0669" format="1">
  <advance width="375"/>
  <unicode hex="0669"/>
  <outline>
    <contour>
      <point x="271" y="162"/>
      <point x="260" y="225"/>
      <point x="260" y="333" type="curve" smooth="yes"/>
      <point x="260" y="428"/>
      <point x="243" y="498"/>
      <point x="210" y="534" type="curve" smooth="yes"/>
      <point x="193" y="552"/>
      <point x="173" y="561"/>
      <point x="151" y="561" type="curve" smooth="yes"/>
      <point x="117" y="561"/>
      <point x="90" y="545"/>
      <point x="68" y="505" type="curve" smooth="yes"/>
      <point x="53" y="477"/>
      <point x="43" y="440"/>
      <point x="43" y="412" type="curve" smooth="yes"/>
      <point x="43" y="377"/>
      <point x="50" y="345"/>
      <point x="71" y="325" type="curve" smooth="yes"/>
      <point x="87" y="310"/>
      <point x="105" y="302"/>
      <point x="144" y="302" type="curve" smooth="yes"/>
      <point x="159" y="302"/>
      <point x="180" y="307"/>
      <point x="187" y="315" type="curve"/>
      <point x="188" y="223" type="line"/>
      <point x="188" y="166"/>
      <point x="200" y="121"/>
      <point x="220" y="84" type="curve" smooth="yes"/>
      <point x="241" y="47"/>
      <point x="272" y="18"/>
      <point x="318" y="0" type="curve"/>
      <point x="329" y="45"/>
      <point x="334" y="80"/>
      <point x="335" y="124" type="curve"/>
    </contour>
    <contour>
      <point x="183" y="413"/>
      <point x="169" y="400"/>
      <point x="140" y="400" type="curve" smooth="yes"/>
      <point x="100" y="400"/>
      <point x="88" y="423"/>
      <point x="88" y="442" type="curve" smooth="yes"/>
      <point x="88" y="460"/>
      <point x="100" y="484"/>
      <point x="135" y="484" type="curve" smooth="yes"/>
      <point x="154" y="484"/>
      <point x="171" y="472"/>
      <point x="181" y="452" type="curve" smooth="yes"/>
      <point x="187" y="439"/>
      <point x="188" y="432"/>
      <point x="191" y="422" type="curve"/>
    </contour>
  </outline>
</glyph>
<glyph name="uni066B" format="1">
  <advance width="209"/>
  <unicode hex="066B"/>
  <outline>
    <contour>
      <point x="132" y="125" type="line"/>
      <point x="0" y="-200" type="line"/>
      <point x="78" y="-200" type="line"/>
      <point x="209" y="125" type="line"/>
    </contour>
  </outline>
</glyph>
<glyph name="uni0670" format="1">
  <advance width="0"/>
  <unicode hex="0670"/>
  <outline>
    <contour>
      <point x="24" y="757"/>
      <point x="20" y="802"/>
      <point x="3" y="834" type="curve"/>
      <point x="-12" y="826"/>
      <point x="-18" y="819"/>
      <point x="-30" y="808" type="curve"/>
      <point x="-16" y="787"/>
      <point x="-3" y="756"/>
      <point x="-6" y="705" type="curve"/>
      <point x="17" y="712" type="line"/>
    </contour>
    <contour>
      <point x="-6" y="834" type="move" name="top"/>
    </contour>
    <contour>
      <point x="-6" y="685" type="move" name="_top"/>
    </contour>
  </outline>
</glyph>
<glyph name="uni06A1" format="1">
  <advance width="836"/>
  <unicode hex="06A1"/>
  <outline>
    <contour>
      <point x="625" y="449"/>
      <point x="598" y="422"/>
      <point x="581" y="393" type="curve" smooth="yes"/>
      <point x="561" y="359"/>
      <point x="550" y="315"/>
      <point x="550" y="281" type="curve" smooth="yes"/>
      <point x="550" y="248"/>
      <point x="561" y="222"/>
      <point x="580" y="205" type="curve" smooth="yes"/>
      <point x="598" y="190"/>
      <point x="624" y="181"/>
      <point x="657" y="181" type="curve" smooth="yes"/>
      <point x="677" y="181"/>
      <point x="704" y="184"/>
      <point x="720" y="195" type="curve"/>
      <point x="716" y="174"/>
      <point x="703" y="156"/>
      <point x="683" y="144" type="curve" smooth="yes"/>
      <point x="662" y="129"/>
      <point x="635" y="120"/>
      <point x="589" y="120" type="curve" smooth="yes"/>
      <point x="570" y="120"/>
      <point x="443" y="119"/>
      <point x="415" y="119" type="curve"/>
      <point x="375" y="119"/>
      <point x="287" y="119"/>
      <point x="239" y="126" type="curve" smooth="yes"/>
      <point x="199" y="131"/>
      <point x="156" y="147"/>
      <point x="132" y="175" type="curve" smooth="yes"/>
      <point x="118" y="191"/>
      <point x="107" y="214"/>
      <point x="105" y="245" type="curve"/>
      <point x="68" y="255" type="line"/>
      <point x="60" y="193"/>
      <point x="62" y="145"/>
      <point x="78" y="105" type="curve" smooth="yes"/>
      <point x="101" y="50"/>
      <point x="151" y="15"/>
      <point x="237" y="0" type="curve"/>
      <point x="274" y="-6"/>
      <point x="322" y="-9"/>
      <point x="412" y="-9" type="curve" smooth="yes"/>
      <point x="573" y="-9"/>
      <point x="653" y="-1"/>
      <point x="704" y="39" type="curve" smooth="yes"/>
      <point x="735" y="63"/>
      <point x="756" y="99"/>
      <point x="769" y="144" type="curve" smooth="yes"/>
      <point x="781" y="187"/>
      <point x="785" y="236"/>
      <point x="781" y="281" type="curve" smooth="yes"/>
      <point x="774" y="365"/>
      <point x="733" y="449"/>
      <point x="664" y="449" type="curve" smooth="yes"/>
    </contour>
    <contour>
      <point x="697" y="281"/>
      <point x="682" y="272"/>
      <point x="653" y="272" type="curve" smooth="yes"/>
      <point x="604" y="272"/>
      <point x="597" y="298"/>
      <point x="597" y="312" type="curve" smooth="yes"/>
      <point x="597" y="333"/>
      <point x="613" y="360"/>
      <point x="646" y="360" type="curve" smooth="yes"/>
      <point x="688" y="360"/>
      <point x="703" y="312"/>
      <point x="707" y="291" type="curve"/>
    </contour>
    <contour>
      <point x="620" y="-112" type="move" name="center"/>
    </contour>
    <contour>
      <point x="402" y="-45" type="move" name="bottom"/>
    </contour>
    <contour>
      <point x="664" y="479" type="move" name="top"/>
    </contour>
  </outline>
</glyph>
<glyph name="uni06A9" format="1">
  <advance width="797"/>
  <unicode hex="06A9"/>
  <outline>
    <contour>
      <point x="60" y="193"/>
      <point x="62" y="144"/>
      <point x="78" y="105" type="curve" smooth="yes"/>
      <point x="101" y="49"/>
      <point x="151" y="14"/>
      <point x="237" y="0" type="curve" smooth="yes"/>
      <point x="274" y="-6"/>
      <point x="322" y="-8"/>
      <point x="412" y="-8" type="curve"/>
      <point x="463" y="-7"/>
      <point x="511" y="-9"/>
      <point x="564" y="-5" type="curve"/>
      <point x="649" y="-3"/>
      <point x="701" y="51"/>
      <point x="701" y="142" type="curve" smooth="yes"/>
      <point x="701" y="193"/>
      <point x="684" y="239"/>
      <point x="658" y="281" type="curve" smooth="yes"/>
      <point x="637" y="316"/>
      <point x="605" y="350"/>
      <point x="566" y="381" type="curve"/>
      <point x="626" y="414"/>
      <point x="698" y="449"/>
      <point x="755" y="473" type="curve"/>
      <point x="767" y="517"/>
      <point x="772" y="551"/>
      <point x="777" y="595" type="curve"/>
      <point x="673" y="546"/>
      <point x="551" y="481"/>
      <point x="476" y="421" type="curve"/>
      <point x="469" y="390"/>
      <point x="464" y="368"/>
      <point x="459" y="326" type="curve"/>
      <point x="503" y="276" type="line"/>
      <point x="514" y="298" type="line"/>
      <point x="565" y="259"/>
      <point x="632" y="189"/>
      <point x="632" y="157" type="curve"/>
      <point x="625" y="146"/>
      <point x="603" y="122"/>
      <point x="570" y="122" type="curve"/>
      <point x="516" y="119"/>
      <point x="467" y="121"/>
      <point x="415" y="120" type="curve"/>
      <point x="375" y="120"/>
      <point x="287" y="121"/>
      <point x="239" y="127" type="curve" smooth="yes"/>
      <point x="199" y="133"/>
      <point x="156" y="146"/>
      <point x="132" y="175" type="curve" smooth="yes"/>
      <point x="118" y="191"/>
      <point x="107" y="213"/>
      <point x="105" y="245" type="curve"/>
      <point x="68" y="254" type="line"/>
    </contour>
    <contour>
      <point x="597" y="555" type="move" name="top"/>
    </contour>
    <contour>
      <point x="392" y="-42" type="move" name="bottom"/>
    </contour>
  </outline>
</glyph>
<glyph name="uni06BA" format="1">
  <advance width="608"/>
  <unicode hex="06BA"/>
  <outline>
    <contour>
      <point x="449" y="273"/>
      <point x="427" y="242"/>
      <point x="409" y="208" type="curve"/>
      <point x="442" y="165"/>
      <point x="494" y="92"/>
      <point x="494" y="54" type="curve" smooth="yes"/>
      <point x="494" y="19"/>
      <point x="460" y="-7"/>
      <point x="409" y="-22" type="curve" smooth="yes"/>
      <point x="378" y="-33"/>
      <point x="341" y="-39"/>
      <point x="300" y="-39" type="curve" smooth="yes"/>
      <point x="234" y="-39"/>
      <point x="177" y="-22"/>
      <point x="149" y="13" type="curve" smooth="yes"/>
      <point x="122" y="46"/>
      <point x="123" y="92"/>
      <point x="134" y="147" type="curve"/>
      <point x="99" y="159" type="line"/>
      <point x="80" y="117"/>
      <point x="67" y="68"/>
      <point x="64" y="30" type="curve" smooth="yes"/>
      <point x="62" y="0"/>
      <point x="65" y="-34"/>
      <point x="78" y="-65" type="curve" smooth="yes"/>
      <point x="94" y="-103"/>
      <point x="122" y="-132"/>
      <point x="161" y="-152" type="curve" smooth="yes"/>
      <point x="197" y="-170"/>
      <point x="239" y="-179"/>
      <point x="291" y="-179" type="curve" smooth="yes"/>
      <point x="332" y="-179"/>
      <point x="367" y="-174"/>
      <point x="398" y="-165" type="curve" smooth="yes"/>
      <point x="429" y="-155"/>
      <point x="456" y="-140"/>
      <point x="482" y="-117" type="curve" smooth="yes"/>
      <point x="513" y="-88"/>
      <point x="554" y="-29"/>
      <point x="554" y="71" type="curve" smooth="yes"/>
      <point x="554" y="125"/>
      <point x="542" y="178"/>
      <point x="525" y="220" type="curve" smooth="yes"/>
      <point x="503" y="274"/>
      <point x="475" y="295"/>
      <point x="472" y="299" type="curve"/>
    </contour>
    <contour>
      <point x="286" y="42" type="move" name="top"/>
    </contour>
    <contour>
      <point x="300" y="-210" type="move" name="bottom"/>
    </contour>
  </outline>
</glyph>
<glyph name="uni06D6" format="1">
  <advance width="0"/>
  <unicode hex="06D6"/>
  <outline>
    <contour>
      <point x="163" y="864"/>
      <point x="155" y="867"/>
      <point x="149" y="867" type="curve" smooth="yes"/>
      <point x="132" y="867"/>
      <point x="114" y="852"/>
      <point x="101" y="839" type="curve" smooth="yes"/>
      <point x="90" y="825"/>
      <point x="81" y="812"/>
      <point x="78" y="808" type="curve"/>
      <point x="74" y="808"/>
      <point x="72" y="810"/>
      <point x="69" y="812" type="curve"/>
      <point x="65" y="818"/>
      <point x="65" y="825"/>
      <point x="67" y="835" type="curve"/>
      <point x="57" y="831" type="line"/>
      <point x="56" y="825"/>
      <point x="53" y="820"/>
      <point x="51" y="816" type="curve"/>
      <point x="48" y="811"/>
      <point x="44" y="808"/>
      <point x="37" y="808" type="curve" smooth="yes"/>
      <point x="15" y="808" type="line" smooth="yes"/>
      <point x="9" y="808"/>
      <point x="5" y="810"/>
      <point x="1" y="814" type="curve" smooth="yes"/>
      <point x="-1" y="817"/>
      <point x="-2" y="822"/>
      <point x="-2" y="826" type="curve" smooth="yes"/>
      <point x="-6" y="848"/>
      <point x="-12" y="919"/>
      <point x="-14" y="932" type="curve"/>
      <point x="-22" y="923"/>
      <point x="-28" y="915"/>
      <point x="-35" y="904" type="curve"/>
      <point x="-33" y="893"/>
      <point x="-28" y="862"/>
      <point x="-25" y="840" type="curve" smooth="yes"/>
      <point x="-25" y="836"/>
      <point x="-24" y="832"/>
      <point x="-24" y="825" type="curve"/>
      <point x="-23" y="821"/>
      <point x="-24" y="818"/>
      <point x="-27" y="814" type="curve" smooth="yes"/>
      <point x="-30" y="810"/>
      <point x="-36" y="808"/>
      <point x="-41" y="808" type="curve" smooth="yes"/>
      <point x="-77" y="808" type="line" smooth="yes"/>
      <point x="-89" y="808"/>
      <point x="-98" y="805"/>
      <point x="-105" y="802" type="curve" smooth="yes"/>
      <point x="-112" y="798"/>
      <point x="-115" y="794"/>
      <point x="-119" y="791" type="curve"/>
      <point x="-124" y="786"/>
      <point x="-134" y="781"/>
      <point x="-143" y="776" type="curve" smooth="yes"/>
      <point x="-152" y="772"/>
      <point x="-162" y="767"/>
      <point x="-171" y="761" type="curve" smooth="yes"/>
      <point x="-180" y="752"/>
      <point x="-187" y="743"/>
      <point x="-187" y="732" type="curve" smooth="yes"/>
      <point x="-187" y="727"/>
      <point x="-185" y="718"/>
      <point x="-174" y="710" type="curve" smooth="yes"/>
      <point x="-165" y="704"/>
      <point x="-150" y="700"/>
      <point x="-131" y="700" type="curve" smooth="yes"/>
      <point x="2" y="700" type="line"/>
      <point x="12" y="712"/>
      <point x="17" y="721"/>
      <point x="23" y="733" type="curve"/>
      <point x="-136" y="733" type="line" smooth="yes"/>
      <point x="-152" y="733"/>
      <point x="-162" y="735"/>
      <point x="-162" y="742" type="curve" smooth="yes"/>
      <point x="-162" y="745"/>
      <point x="-160" y="748"/>
      <point x="-156" y="750" type="curve"/>
      <point x="-150" y="751"/>
      <point x="-145" y="753"/>
      <point x="-141" y="756" type="curve" smooth="yes"/>
      <point x="-135" y="759"/>
      <point x="-126" y="764"/>
      <point x="-123" y="767" type="curve"/>
      <point x="-121" y="770"/>
      <point x="-115" y="775"/>
      <point x="-100" y="775" type="curve" smooth="yes"/>
      <point x="-35" y="775" type="line" smooth="yes"/>
      <point x="-16" y="775"/>
      <point x="-8" y="786"/>
      <point x="-7" y="792" type="curve"/>
      <point x="-5" y="786"/>
      <point x="3" y="775"/>
      <point x="20" y="775" type="curve" smooth="yes"/>
      <point x="36" y="776" type="line" smooth="yes"/>
      <point x="49" y="776"/>
      <point x="58" y="781"/>
      <point x="61" y="789" type="curve"/>
      <point x="62" y="786"/>
      <point x="65" y="784"/>
      <point x="70" y="783" type="curve"/>
      <point x="67" y="771" type="line"/>
      <point x="80" y="771" type="line"/>
      <point x="82" y="778" type="line"/>
      <point x="87" y="776"/>
      <point x="94" y="777"/>
      <point x="103" y="777" type="curve" smooth="yes"/>
      <point x="120" y="777"/>
      <point x="140" y="784"/>
      <point x="155" y="795" type="curve" smooth="yes"/>
      <point x="163" y="801"/>
      <point x="169" y="808"/>
      <point x="173" y="815" type="curve" smooth="yes"/>
      <point x="178" y="823"/>
      <point x="180" y="832"/>
      <point x="180" y="839" type="curve" smooth="yes"/>
      <point x="180" y="846"/>
      <point x="177" y="853"/>
      <point x="169" y="859" type="curve" smooth="yes"/>
    </contour>
    <contour>
      <point x="139" y="810"/>
      <point x="130" y="808"/>
      <point x="120" y="808" type="curve" smooth="yes"/>
      <point x="95" y="808" type="line"/>
      <point x="99" y="814"/>
      <point x="103" y="820"/>
      <point x="109" y="825" type="curve" smooth="yes"/>
      <point x="117" y="834"/>
      <point x="127" y="841"/>
      <point x="138" y="841" type="curve" smooth="yes"/>
      <point x="146" y="841"/>
      <point x="151" y="837"/>
      <point x="155" y="834" type="curve"/>
      <point x="158" y="831"/>
      <point x="159" y="827"/>
      <point x="160" y="824" type="curve"/>
      <point x="157" y="820"/>
      <point x="153" y="817"/>
      <point x="146" y="813" type="curve" smooth="yes"/>
    </contour>
    <contour>
      <point x="-3" y="932" type="move" name="top"/>
    </contour>
    <contour>
      <point x="-3" y="677" type="move" name="_top"/>
    </contour>
  </outline>
</glyph>
<glyph name="uni06D9" format="1">
  <advance width="0"/>
  <unicode hex="06D9"/>
  <outline>
    <contour>
      <point x="30" y="747"/>
      <point x="28" y="752"/>
      <point x="22" y="760" type="curve"/>
      <point x="13" y="749"/>
      <point x="3" y="743"/>
      <point x="-3" y="738" type="curve"/>
      <point x="6" y="740"/>
      <point x="20" y="740"/>
      <point x="33" y="742" type="curve"/>
    </contour>
    <contour>
      <point x="65" y="840" type="line"/>
      <point x="58" y="844" type="line"/>
      <point x="57" y="824"/>
      <point x="53" y="799"/>
      <point x="39" y="776" type="curve"/>
      <point x="48" y="760"/>
      <point x="53" y="744"/>
      <point x="52" y="731" type="curve"/>
      <point x="52" y="729"/>
      <point x="50" y="714"/>
      <point x="49" y="709" type="curve"/>
      <point x="25" y="703"/>
      <point x="-3" y="700"/>
      <point x="-39" y="700" type="curve"/>
      <point x="-39" y="716"/>
      <point x="-39" y="729"/>
      <point x="-37" y="743" type="curve"/>
      <point x="-29" y="745" type="line"/>
      <point x="-13" y="747"/>
      <point x="4" y="765"/>
      <point x="11" y="774" type="curve"/>
      <point x="-4" y="800"/>
      <point x="-24" y="822"/>
      <point x="-41" y="837" type="curve"/>
      <point x="-45" y="831" type="line"/>
      <point x="-54" y="837"/>
      <point x="-65" y="845"/>
      <point x="-75" y="853" type="curve"/>
      <point x="-73" y="866"/>
      <point x="-70" y="879"/>
      <point x="-68" y="884" type="curve" smooth="yes"/>
      <point x="-66" y="889"/>
      <point x="-62" y="889"/>
      <point x="-60" y="889" type="curve" smooth="yes"/>
      <point x="-57" y="889"/>
      <point x="-52" y="887"/>
      <point x="-42" y="878" type="curve" smooth="yes"/>
      <point x="-32" y="869"/>
      <point x="-21" y="858"/>
      <point x="-10" y="845" type="curve" smooth="yes"/>
      <point x="3" y="829"/>
      <point x="16" y="813"/>
      <point x="24" y="801" type="curve"/>
      <point x="29" y="814"/>
      <point x="32" y="827"/>
      <point x="32" y="840" type="curve" smooth="yes"/>
      <point x="33" y="856"/>
      <point x="30" y="872"/>
      <point x="26" y="884" type="curve"/>
      <point x="34" y="891"/>
      <point x="42" y="898"/>
      <point x="50" y="907" type="curve"/>
      <point x="55" y="889"/>
      <point x="64" y="874"/>
      <point x="76" y="867" type="curve"/>
    </contour>
    <contour>
      <point x="1" y="907" type="move" name="top"/>
    </contour>
    <contour>
      <point x="1" y="677" type="move" name="_top"/>
    </contour>
  </outline>
</glyph>
<glyph name="uni06DB" format="1">
  <advance width="0"/>
  <unicode hex="06DB"/>
  <outline>
    <contour>
      <point x="-43" y="724"/>
      <point x="-32" y="713"/>
      <point x="-25" y="703" type="curve"/>
      <point x="-15" y="711"/>
      <point x="-6" y="721"/>
      <point x="1" y="728" type="curve"/>
      <point x="10" y="721"/>
      <point x="19" y="711"/>
      <point x="25" y="703" type="curve"/>
      <point x="35" y="711"/>
      <point x="47" y="725"/>
      <point x="52" y="731" type="curve"/>
      <point x="47" y="741"/>
      <point x="35" y="753"/>
      <point x="23" y="760" type="curve"/>
      <point x="18" y="754"/>
      <point x="8" y="744"/>
      <point x="-1" y="736" type="curve"/>
      <point x="-7" y="745"/>
      <point x="-17" y="754"/>
      <point x="-27" y="760" type="curve"/>
      <point x="-32" y="754"/>
      <point x="-46" y="739"/>
      <point x="-55" y="732" type="curve"/>
    </contour>
    <contour>
      <point x="-19" y="772"/>
      <point x="-8" y="762"/>
      <point x="-1" y="752" type="curve"/>
      <point x="10" y="760"/>
      <point x="22" y="773"/>
      <point x="26" y="779" type="curve"/>
      <point x="21" y="790"/>
      <point x="9" y="802"/>
      <point x="-3" y="809" type="curve"/>
      <point x="-8" y="802"/>
      <point x="-22" y="788"/>
      <point x="-31" y="781" type="curve"/>
    </contour>
    <contour>
      <point x="-2" y="809" type="move" name="top"/>
    </contour>
    <contour>
      <point x="-1" y="682" type="move" name="_top"/>
    </contour>
  </outline>
</glyph>
<glyph name="uni06DC" format="1">
  <advance width="0"/>
  <unicode hex="06DC"/>
  <outline>
    <contour>
      <point x="101" y="893"/>
      <point x="95" y="886"/>
      <point x="90" y="877" type="curve"/>
      <point x="106" y="854" type="line"/>
      <point x="103" y="847"/>
      <point x="96" y="841"/>
      <point x="86" y="841" type="curve" smooth="yes"/>
      <point x="66" y="841"/>
      <point x="61" y="855"/>
      <point x="64" y="876" type="curve"/>
      <point x="50" y="871" type="line"/>
      <point x="49" y="857"/>
      <point x="43" y="841"/>
      <point x="25" y="841" type="curve" smooth="yes"/>
      <point x="14" y="841"/>
      <point x="-1" y="850"/>
      <point x="-8" y="866" type="curve"/>
      <point x="-16" y="858"/>
      <point x="-24" y="846"/>
      <point x="-30" y="835" type="curve"/>
      <point x="-17" y="818"/>
      <point x="-1" y="795"/>
      <point x="-1" y="782" type="curve" smooth="yes"/>
      <point x="-1" y="774"/>
      <point x="-7" y="766"/>
      <point x="-17" y="760" type="curve" smooth="yes"/>
      <point x="-30" y="754"/>
      <point x="-46" y="749"/>
      <point x="-66" y="749" type="curve" smooth="yes"/>
      <point x="-89" y="749"/>
      <point x="-108" y="755"/>
      <point x="-118" y="767" type="curve" smooth="yes"/>
      <point x="-127" y="779"/>
      <point x="-127" y="794"/>
      <point x="-123" y="814" type="curve"/>
      <point x="-135" y="818" type="line"/>
      <point x="-141" y="803"/>
      <point x="-146" y="786"/>
      <point x="-146" y="773" type="curve" smooth="yes"/>
      <point x="-147" y="763"/>
      <point x="-146" y="751"/>
      <point x="-142" y="740" type="curve" smooth="yes"/>
      <point x="-137" y="728"/>
      <point x="-127" y="717"/>
      <point x="-113" y="710" type="curve" smooth="yes"/>
      <point x="-101" y="704"/>
      <point x="-86" y="701"/>
      <point x="-69" y="701" type="curve" smooth="yes"/>
      <point x="-55" y="701"/>
      <point x="-43" y="703"/>
      <point x="-33" y="707" type="curve" smooth="yes"/>
      <point x="-22" y="710"/>
      <point x="-14" y="714"/>
      <point x="-5" y="723" type="curve" smooth="yes"/>
      <point x="6" y="733"/>
      <point x="20" y="753"/>
      <point x="20" y="788" type="curve" smooth="yes"/>
      <point x="20" y="793"/>
      <point x="20" y="798"/>
      <point x="20" y="803" type="curve"/>
      <point x="28" y="801"/>
      <point x="36" y="801"/>
      <point x="43" y="804" type="curve" smooth="yes"/>
      <point x="49" y="807"/>
      <point x="53" y="813"/>
      <point x="55" y="821" type="curve"/>
      <point x="56" y="819"/>
      <point x="58" y="814"/>
      <point x="64" y="809" type="curve" smooth="yes"/>
      <point x="69" y="806"/>
      <point x="76" y="803"/>
      <point x="85" y="803" type="curve" smooth="yes"/>
      <point x="98" y="803"/>
      <point x="108" y="811"/>
      <point x="115" y="820" type="curve" smooth="yes"/>
      <point x="123" y="831"/>
      <point x="126" y="845"/>
      <point x="126" y="852" type="curve" smooth="yes"/>
      <point x="126" y="885"/>
      <point x="109" y="899"/>
      <point x="108" y="901" type="curve"/>
    </contour>
    <contour>
      <point x="1" y="901" type="move" name="top"/>
    </contour>
    <contour>
      <point x="1" y="677" type="move" name="_top"/>
    </contour>
  </outline>
</glyph>
<glyph name="uni06DD" format="1">
  <advance width="953"/>
  <unicode hex="06DD"/>
  <outline>
    <contour>
      <point x="47" y="286"/>
      <point x="46" y="175"/>
      <point x="115" y="73" type="curve" smooth="yes"/>
      <point x="146" y="28"/>
      <point x="185" y="-11"/>
      <point x="229" y="-41" type="curve" smooth="yes"/>
      <point x="275" y="-73"/>
      <point x="328" y="-95"/>
      <point x="381" y="-107" type="curve" smooth="yes"/>
      <point x="458" y="-122"/>
      <point x="477" y="-162"/>
      <point x="477" y="-162" type="curve" smooth="yes"/>
      <point x="477" y="-162"/>
      <point x="496" y="-122"/>
      <point x="573" y="-107" type="curve" smooth="yes"/>
      <point x="626" y="-95"/>
      <point x="679" y="-73"/>
      <point x="725" y="-41" type="curve" smooth="yes"/>
      <point x="769" y="-11"/>
      <point x="807" y="28"/>
      <point x="838" y="73" type="curve" smooth="yes"/>
      <point x="908" y="175"/>
      <point x="907" y="286"/>
      <point x="907" y="296" type="curve" smooth="yes"/>
      <point x="907" y="305"/>
      <point x="908" y="416"/>
      <point x="838" y="518" type="curve" smooth="yes"/>
      <point x="807" y="563"/>
      <point x="769" y="601"/>
      <point x="725" y="632" type="curve" smooth="yes"/>
      <point x="679" y="664"/>
      <point x="626" y="686"/>
      <point x="573" y="697" type="curve" smooth="yes"/>
      <point x="496" y="712"/>
      <point x="477" y="752"/>
      <point x="477" y="752" type="curve" smooth="yes"/>
      <point x="477" y="752"/>
      <point x="458" y="712"/>
      <point x="381" y="697" type="curve" smooth="yes"/>
      <point x="328" y="686"/>
      <point x="275" y="664"/>
      <point x="229" y="632" type="curve" smooth="yes"/>
      <point x="185" y="601"/>
      <point x="146" y="563"/>
      <point x="115" y="518" type="curve" smooth="yes"/>
      <point x="46" y="416"/>
      <point x="47" y="309"/>
      <point x="47" y="296" type="curve" smooth="yes"/>
    </contour>
    <contour>
      <point x="105" y="254"/>
      <point x="147" y="253"/>
      <point x="149" y="296" type="curve"/>
      <point x="147" y="339"/>
      <point x="105" y="337"/>
      <point x="105" y="337" type="curve"/>
      <point x="131" y="357"/>
      <point x="141" y="388"/>
      <point x="141" y="388" type="curve" smooth="yes"/>
      <point x="141" y="388"/>
      <point x="172" y="375"/>
      <point x="172" y="345" type="curve"/>
      <point x="181" y="347"/>
      <point x="197" y="345"/>
      <point x="211" y="329" type="curve"/>
      <point x="223" y="316"/>
      <point x="255" y="296"/>
      <point x="255" y="296" type="curve" smooth="yes"/>
      <point x="255" y="296"/>
      <point x="223" y="275"/>
      <point x="211" y="261" type="curve"/>
      <point x="197" y="247"/>
      <point x="181" y="245"/>
      <point x="172" y="246" type="curve"/>
      <point x="172" y="216"/>
      <point x="141" y="203"/>
      <point x="141" y="203" type="curve" smooth="yes"/>
      <point x="141" y="203"/>
      <point x="131" y="234"/>
      <point x="105" y="254" type="curve"/>
    </contour>
    <contour>
      <point x="150" y="166"/>
      <point x="188" y="179"/>
      <point x="223" y="228" type="curve" smooth="yes"/>
      <point x="254" y="271"/>
      <point x="303" y="296"/>
      <point x="303" y="296" type="curve" smooth="yes"/>
      <point x="303" y="296"/>
      <point x="254" y="320"/>
      <point x="223" y="363" type="curve" smooth="yes"/>
      <point x="188" y="411"/>
      <point x="150" y="425"/>
      <point x="130" y="430" type="curve"/>
      <point x="151" y="474"/>
      <point x="197" y="531"/>
      <point x="268" y="565" type="curve" smooth="yes"/>
      <point x="327" y="593"/>
      <point x="377" y="604"/>
      <point x="398" y="608" type="curve"/>
      <point x="404" y="591"/>
      <point x="424" y="579"/>
      <point x="446" y="577" type="curve"/>
      <point x="453" y="530"/>
      <point x="477" y="521"/>
      <point x="477" y="521" type="curve" smooth="yes"/>
      <point x="477" y="521"/>
      <point x="500" y="530"/>
      <point x="508" y="577" type="curve"/>
      <point x="530" y="579"/>
      <point x="550" y="591"/>
      <point x="556" y="608" type="curve"/>
      <point x="577" y="604"/>
      <point x="626" y="593"/>
      <point x="686" y="565" type="curve" smooth="yes"/>
      <point x="757" y="531"/>
      <point x="803" y="474"/>
      <point x="823" y="430" type="curve"/>
      <point x="804" y="425"/>
      <point x="766" y="411"/>
      <point x="731" y="363" type="curve" smooth="yes"/>
      <point x="700" y="320"/>
      <point x="651" y="296"/>
      <point x="651" y="296" type="curve" smooth="yes"/>
      <point x="651" y="296"/>
      <point x="700" y="271"/>
      <point x="731" y="228" type="curve" smooth="yes"/>
      <point x="766" y="179"/>
      <point x="804" y="166"/>
      <point x="823" y="161" type="curve"/>
      <point x="803" y="118"/>
      <point x="757" y="60"/>
      <point x="686" y="26" type="curve" smooth="yes"/>
      <point x="626" y="-2"/>
      <point x="577" y="-13"/>
      <point x="556" y="-17" type="curve"/>
      <point x="550" y="-1"/>
      <point x="530" y="12"/>
      <point x="508" y="14" type="curve"/>
      <point x="500" y="61"/>
      <point x="477" y="69"/>
      <point x="477" y="69" type="curve" smooth="yes"/>
      <point x="477" y="69"/>
      <point x="453" y="61"/>
      <point x="446" y="14" type="curve"/>
      <point x="424" y="12"/>
      <point x="404" y="-1"/>
      <point x="398" y="-17" type="curve"/>
      <point x="377" y="-13"/>
      <point x="327" y="-2"/>
      <point x="268" y="26" type="curve" smooth="yes"/>
      <point x="197" y="60"/>
      <point x="151" y="118"/>
      <point x="130" y="161" type="curve"/>
    </contour>
    <contour>
      <point x="699" y="296"/>
      <point x="730" y="316"/>
      <point x="743" y="329" type="curve" smooth="yes"/>
      <point x="757" y="345"/>
      <point x="773" y="347"/>
      <point x="782" y="345" type="curve"/>
      <point x="782" y="375"/>
      <point x="813" y="388"/>
      <point x="813" y="388" type="curve" smooth="yes"/>
      <point x="813" y="388"/>
      <point x="823" y="357"/>
      <point x="849" y="337" type="curve"/>
      <point x="849" y="337"/>
      <point x="807" y="339"/>
      <point x="805" y="296" type="curve"/>
      <point x="807" y="252"/>
      <point x="849" y="254"/>
      <point x="849" y="254" type="curve"/>
      <point x="823" y="234"/>
      <point x="813" y="203"/>
      <point x="813" y="203" type="curve" smooth="yes"/>
      <point x="813" y="203"/>
      <point x="782" y="216"/>
      <point x="782" y="246" type="curve"/>
      <point x="773" y="245"/>
      <point x="757" y="247"/>
      <point x="743" y="261" type="curve"/>
      <point x="730" y="275"/>
      <point x="699" y="296"/>
      <point x="699" y="296" type="curve" smooth="yes"/>
    </contour>
  </outline>
</glyph>
<glyph name="uni06E0" format="1">
  <advance width="0"/>
  <unicode hex="06E0"/>
  <outline>
    <contour>
      <point x="49" y="822"/>
      <point x="34" y="854"/>
      <point x="-1" y="854" type="curve"/>
      <point x="-28" y="854"/>
      <point x="-46" y="819"/>
      <point x="-47" y="787" type="curve"/>
      <point x="-47" y="746" type="line"/>
      <point x="-47" y="733"/>
      <point x="-39" y="700"/>
      <point x="-1" y="700" type="curve" smooth="yes"/>
      <point x="20" y="700"/>
      <point x="35" y="707"/>
      <point x="42" y="720" type="curve" smooth="yes"/>
      <point x="49" y="732"/>
      <point x="49" y="745"/>
      <point x="49" y="753" type="curve"/>
      <point x="49" y="792" type="line"/>
    </contour>
    <contour>
      <point x="30" y="752"/>
      <point x="25" y="739"/>
      <point x="0" y="739" type="curve" smooth="yes"/>
      <point x="-18" y="739"/>
      <point x="-24" y="749"/>
      <point x="-24" y="762" type="curve" smooth="yes"/>
      <point x="-24" y="786"/>
      <point x="-25" y="808"/>
      <point x="-13" y="823" type="curve"/>
      <point x="14" y="812"/>
      <point x="30" y="804"/>
      <point x="30" y="769" type="curve"/>
    </contour>
    <contour>
      <point x="1" y="854" type="move" name="top"/>
    </contour>
    <contour>
      <point x="1" y="677" type="move" name="_top"/>
    </contour>
  </outline>
</glyph>
<glyph name="uni06E2" format="1">
  <advance width="0"/>
  <unicode hex="06E2"/>
  <outline>
    <contour>
      <point x="51" y="889"/>
      <point x="42" y="900"/>
      <point x="31" y="908" type="curve" smooth="yes"/>
      <point x="24" y="912"/>
      <point x="16" y="916"/>
      <point x="7" y="916" type="curve" smooth="yes"/>
      <point x="-6" y="916"/>
      <point x="-14" y="909"/>
      <point x="-19" y="896" type="curve" smooth="yes"/>
      <point x="-22" y="891"/>
      <point x="-23" y="885"/>
      <point x="-23" y="881" type="curve"/>
      <point x="-16" y="885"/>
      <point x="-1" y="887"/>
      <point x="12" y="881" type="curve"/>
      <point x="-11" y="878"/>
      <point x="-29" y="867"/>
      <point x="-38" y="851" type="curve" smooth="yes"/>
      <point x="-42" y="842"/>
      <point x="-46" y="830"/>
      <point x="-44" y="813" type="curve" smooth="yes"/>
      <point x="-43" y="800"/>
      <point x="-41" y="787"/>
      <point x="-38" y="772" type="curve" smooth="yes"/>
      <point x="-36" y="758"/>
      <point x="-31" y="728"/>
      <point x="-28" y="703" type="curve"/>
      <point x="-14" y="708" type="line"/>
      <point x="-14" y="739"/>
      <point x="-15" y="773"/>
      <point x="-21" y="810" type="curve" smooth="yes"/>
      <point x="-22" y="820"/>
      <point x="-20" y="827"/>
      <point x="-14" y="833" type="curve" smooth="yes"/>
      <point x="-8" y="840"/>
      <point x="2" y="845"/>
      <point x="15" y="848" type="curve" smooth="yes"/>
      <point x="23" y="849"/>
      <point x="36" y="850"/>
      <point x="46" y="850" type="curve"/>
      <point x="50" y="864"/>
      <point x="51" y="876"/>
      <point x="52" y="888" type="curve"/>
    </contour>
    <contour>
      <point x="4" y="916" type="move" name="top"/>
    </contour>
    <contour>
      <point x="3" y="680" type="move" name="_top"/>
    </contour>
  </outline>
</glyph>
<glyph name="uni06E3" format="1">
  <advance width="0"/>
  <unicode hex="06E3"/>
  <outline>
    <contour>
      <point x="104" y="-236"/>
      <point x="98" y="-243"/>
      <point x="93" y="-252" type="curve"/>
      <point x="109" y="-275" type="line"/>
      <point x="106" y="-282"/>
      <point x="99" y="-288"/>
      <point x="89" y="-288" type="curve" smooth="yes"/>
      <point x="69" y="-288"/>
      <point x="64" y="-274"/>
      <point x="67" y="-253" type="curve"/>
      <point x="53" y="-258" type="line"/>
      <point x="52" y="-272"/>
      <point x="46" y="-288"/>
      <point x="28" y="-288" type="curve" smooth="yes"/>
      <point x="17" y="-288"/>
      <point x="2" y="-279"/>
      <point x="-5" y="-263" type="curve"/>
      <point x="-13" y="-271"/>
      <point x="-21" y="-283"/>
      <point x="-27" y="-294" type="curve"/>
      <point x="-14" y="-311"/>
      <point x="2" y="-334"/>
      <point x="2" y="-347" type="curve" smooth="yes"/>
      <point x="2" y="-355"/>
      <point x="-4" y="-363"/>
      <point x="-14" y="-369" type="curve" smooth="yes"/>
      <point x="-27" y="-375"/>
      <point x="-43" y="-380"/>
      <point x="-63" y="-380" type="curve" smooth="yes"/>
      <point x="-86" y="-380"/>
      <point x="-105" y="-374"/>
      <point x="-115" y="-362" type="curve" smooth="yes"/>
      <point x="-124" y="-350"/>
      <point x="-124" y="-335"/>
      <point x="-120" y="-315" type="curve"/>
      <point x="-132" y="-311" type="line"/>
      <point x="-138" y="-326"/>
      <point x="-143" y="-343"/>
      <point x="-143" y="-356" type="curve" smooth="yes"/>
      <point x="-144" y="-366"/>
      <point x="-143" y="-378"/>
      <point x="-139" y="-389" type="curve" smooth="yes"/>
      <point x="-134" y="-401"/>
      <point x="-124" y="-412"/>
      <point x="-110" y="-419" type="curve" smooth="yes"/>
      <point x="-98" y="-425"/>
      <point x="-83" y="-428"/>
      <point x="-66" y="-428" type="curve" smooth="yes"/>
      <point x="-52" y="-428"/>
      <point x="-40" y="-426"/>
      <point x="-30" y="-422" type="curve" smooth="yes"/>
      <point x="-19" y="-419"/>
      <point x="-11" y="-415"/>
      <point x="-2" y="-406" type="curve" smooth="yes"/>
      <point x="9" y="-396"/>
      <point x="23" y="-376"/>
      <point x="23" y="-341" type="curve" smooth="yes"/>
      <point x="23" y="-336"/>
      <point x="23" y="-331"/>
      <point x="23" y="-326" type="curve"/>
      <point x="31" y="-328"/>
      <point x="39" y="-328"/>
      <point x="46" y="-325" type="curve" smooth="yes"/>
      <point x="52" y="-322"/>
      <point x="56" y="-316"/>
      <point x="58" y="-308" type="curve"/>
      <point x="59" y="-310"/>
      <point x="61" y="-315"/>
      <point x="67" y="-320" type="curve" smooth="yes"/>
      <point x="72" y="-323"/>
      <point x="79" y="-326"/>
      <point x="88" y="-326" type="curve" smooth="yes"/>
      <point x="101" y="-326"/>
      <point x="111" y="-318"/>
      <point x="118" y="-309" type="curve" smooth="yes"/>
      <point x="126" y="-298"/>
      <point x="129" y="-284"/>
      <point x="129" y="-277" type="curve" smooth="yes"/>
      <point x="129" y="-244"/>
      <point x="112" y="-230"/>
      <point x="111" y="-228" type="curve"/>
    </contour>
    <contour>
      <point x="-2" y="-208" type="move" name="_bottom"/>
    </contour>
    <contour>
      <point x="-2" y="-427" type="move" name="bottom"/>
    </contour>
  </outline>
</glyph>
<glyph name="uni06E9" format="1">
  <advance width="608"/>
  <unicode hex="06E9"/>
  <outline>
    <contour>
      <point x="538" y="364"/>
      <point x="502" y="399"/>
      <point x="470" y="430" type="curve"/>
      <point x="304" y="594" type="line"/>
      <point x="138" y="430" type="line"/>
      <point x="107" y="399"/>
      <point x="70" y="364"/>
      <point x="70" y="303" type="curve" smooth="yes"/>
      <point x="70" y="240"/>
      <point x="105" y="203"/>
      <point x="113" y="196" type="curve"/>
      <point x="113" y="68" type="line"/>
      <point x="47" y="1" type="line"/>
      <point x="561" y="1" type="line"/>
      <point x="495" y="69" type="line"/>
      <point x="495" y="196" type="line"/>
      <point x="503" y="203"/>
      <point x="538" y="240"/>
      <point x="538" y="303" type="curve" smooth="yes"/>
    </contour>
    <contour>
      <point x="468" y="254"/>
      <point x="430" y="234"/>
      <point x="426" y="232" type="curve"/>
      <point x="426" y="69" type="line"/>
      <point x="181" y="69" type="line"/>
      <point x="181" y="232" type="line"/>
      <point x="177" y="234"/>
      <point x="140" y="253"/>
      <point x="140" y="301" type="curve" smooth="yes"/>
      <point x="140" y="321"/>
      <point x="144" y="337"/>
      <point x="165" y="359" type="curve" smooth="yes"/>
      <point x="304" y="496" type="line"/>
      <point x="442" y="359" type="line" smooth="yes"/>
      <point x="464" y="337"/>
      <point x="468" y="321"/>
      <point x="468" y="301" type="curve" smooth="yes"/>
    </contour>
    <contour>
      <point x="435" y="318"/>
      <point x="423" y="330"/>
      <point x="419" y="335" type="curve" smooth="yes"/>
      <point x="304" y="449" type="line"/>
      <point x="190" y="335" type="line" smooth="yes"/>
      <point x="185" y="330"/>
      <point x="174" y="318"/>
      <point x="174" y="299" type="curve" smooth="yes"/>
      <point x="174" y="279"/>
      <point x="186" y="270"/>
      <point x="192" y="265" type="curve"/>
      <point x="215" y="248" type="line"/>
      <point x="215" y="105" type="line"/>
      <point x="393" y="105" type="line"/>
      <point x="393" y="248" type="line"/>
      <point x="417" y="265" type="line"/>
      <point x="423" y="270"/>
      <point x="435" y="279"/>
      <point x="435" y="299" type="curve" smooth="yes"/>
    </contour>
    <contour>
      <point x="400" y="297"/>
      <point x="395" y="293"/>
      <point x="394" y="292" type="curve"/>
      <point x="358" y="265" type="line"/>
      <point x="358" y="139" type="line"/>
      <point x="250" y="139" type="line"/>
      <point x="250" y="265" type="line"/>
      <point x="216" y="291" type="line"/>
      <point x="214" y="292"/>
      <point x="208" y="297"/>
      <point x="208" y="300" type="curve" smooth="yes"/>
      <point x="208" y="305"/>
      <point x="212" y="308"/>
      <point x="215" y="311" type="curve" smooth="yes"/>
      <point x="304" y="400" type="line"/>
      <point x="394" y="311" type="line" smooth="yes"/>
      <point x="397" y="308"/>
      <point x="400" y="305"/>
      <point x="400" y="301" type="curve" smooth="yes"/>
    </contour>
  </outline>
</glyph>
<glyph name="uni06EA" format="1">
  <advance width="0"/>
  <unicode hex="06EA"/>
  <outline>
    <contour>
      <point x="82" y="-277" type="line"/>
      <point x="2" y="-198" type="line"/>
      <point x="-77" y="-277" type="line"/>
      <point x="2" y="-357" type="line"/>
    </contour>
    <contour>
      <point x="2" y="-233" type="line"/>
      <point x="46" y="-277" type="line"/>
      <point x="2" y="-321" type="line"/>
      <point x="-41" y="-277" type="line"/>
    </contour>
  </outline>
</glyph>
<glyph name="uni06ED" format="1">
  <advance width="0"/>
  <unicode hex="06ED"/>
  <outline>
    <contour>
      <point x="45" y="-228"/>
      <point x="37" y="-217"/>
      <point x="25" y="-208" type="curve" smooth="yes"/>
      <point x="19" y="-204"/>
      <point x="10" y="-200"/>
      <point x="2" y="-200" type="curve" smooth="yes"/>
      <point x="-11" y="-200"/>
      <point x="-20" y="-207"/>
      <point x="-25" y="-220" type="curve" smooth="yes"/>
      <point x="-27" y="-225"/>
      <point x="-28" y="-231"/>
      <point x="-28" y="-235" type="curve"/>
      <point x="-21" y="-231"/>
      <point x="-7" y="-229"/>
      <point x="6" y="-236" type="curve"/>
      <point x="-16" y="-238"/>
      <point x="-34" y="-249"/>
      <point x="-43" y="-266" type="curve" smooth="yes"/>
      <point x="-48" y="-274"/>
      <point x="-52" y="-286"/>
      <point x="-50" y="-303" type="curve" smooth="yes"/>
      <point x="-48" y="-316"/>
      <point x="-46" y="-329"/>
      <point x="-43" y="-344" type="curve" smooth="yes"/>
      <point x="-41" y="-358"/>
      <point x="-37" y="-388"/>
      <point x="-34" y="-414" type="curve"/>
      <point x="-20" y="-408" type="line"/>
      <point x="-19" y="-377"/>
      <point x="-21" y="-343"/>
      <point x="-27" y="-306" type="curve" smooth="yes"/>
      <point x="-27" y="-297"/>
      <point x="-26" y="-289"/>
      <point x="-20" y="-283" type="curve" smooth="yes"/>
      <point x="-13" y="-277"/>
      <point x="-3" y="-271"/>
      <point x="9" y="-269" type="curve" smooth="yes"/>
      <point x="18" y="-267"/>
      <point x="30" y="-266"/>
      <point x="41" y="-266" type="curve"/>
      <point x="44" y="-253"/>
      <point x="46" y="-240"/>
      <point x="46" y="-229" type="curve"/>
    </contour>
    <contour>
      <point x="-3" y="-180" type="move" name="_bottom"/>
    </contour>
    <contour>
      <point x="-3" y="-414" type="move" name="bottom"/>
    </contour>
  </outline>
</glyph>
<glyph name="uni06F0" format="1">
  <advance width="241"/>
  <unicode hex="06F0"/>
  <outline>
    <contour>
      <point x="47" y="206" type="line"/>
      <point x="127" y="128" type="line"/>
      <point x="205" y="206" type="line"/>
      <point x="127" y="285" type="line"/>
    </contour>
  </outline>
</glyph>
<glyph name="uni06F1" format="1">
  <advance width="255"/>
  <unicode hex="06F1"/>
  <outline>
    <contour>
      <point x="81" y="525"/>
      <point x="65" y="500"/>
      <point x="47" y="462" type="curve"/>
      <point x="79" y="407"/>
      <point x="103" y="345"/>
      <point x="119" y="278" type="curve" smooth="yes"/>
      <point x="140" y="188"/>
      <point x="148" y="100"/>
      <point x="142" y="0" type="curve"/>
      <point x="188" y="0" type="line"/>
      <point x="213" y="111"/>
      <point x="224" y="201"/>
      <point x="212" y="295" type="curve" smooth="yes"/>
      <point x="201" y="386"/>
      <point x="169" y="472"/>
      <point x="111" y="561" type="curve"/>
    </contour>
  </outline>
</glyph>
<glyph name="uni06F6" format="1">
  <advance width="438"/>
  <unicode hex="06F6"/>
  <outline>
    <contour>
      <point x="401" y="346"/>
      <point x="403" y="377"/>
      <point x="402" y="419" type="curve"/>
      <point x="383" y="407"/>
      <point x="364" y="395"/>
      <point x="344" y="384" type="curve" smooth="yes"/>
      <point x="309" y="364"/>
      <point x="286" y="352"/>
      <point x="238" y="352" type="curve" smooth="yes"/>
      <point x="187" y="352"/>
      <point x="137" y="369"/>
      <point x="134" y="412" type="curve"/>
      <point x="157" y="444"/>
      <point x="195" y="470"/>
      <point x="239" y="470" type="curve" smooth="yes"/>
      <point x="262" y="470"/>
      <point x="283" y="466"/>
      <point x="307" y="460" type="curve"/>
      <point x="326" y="489" type="line"/>
      <point x="305" y="524"/>
      <point x="278" y="561"/>
      <point x="224" y="561" type="curve" smooth="yes"/>
      <point x="169" y="561"/>
      <point x="128" y="517"/>
      <point x="102" y="474" type="curve" smooth="yes"/>
      <point x="77" y="431"/>
      <point x="63" y="385"/>
      <point x="63" y="373" type="curve"/>
      <point x="65" y="343"/>
      <point x="72" y="320"/>
      <point x="89" y="298" type="curve" smooth="yes"/>
      <point x="108" y="274"/>
      <point x="137" y="262"/>
      <point x="175" y="257" type="curve"/>
      <point x="147" y="220"/>
      <point x="128" y="192"/>
      <point x="108" y="154" type="curve" smooth="yes"/>
      <point x="80" y="101"/>
      <point x="65" y="64"/>
      <point x="47" y="0" type="curve"/>
      <point x="101" y="0" type="line"/>
      <point x="130" y="68"/>
      <point x="175" y="127"/>
      <point x="223" y="172" type="curve" smooth="yes"/>
      <point x="283" y="232"/>
      <point x="332" y="268"/>
      <point x="392" y="303" type="curve"/>
    </contour>
  </outline>
</glyph>
<glyph name="uni08A0" format="1">
  <advance width="850"/>
  <unicode hex="08A0"/>
  <outline>
    <component base="uni066E"/>
    <component base="vbelow-ar" xOffset="409" yOffset="140"/>
    <contour>
      <point x="409" y="-277" type="move" name="bottom"/>
    </contour>
  </outline>
</glyph>
<glyph name="uni08AA" format="1">
  <advance width="456"/>
  <unicode hex="08AA"/>
  <outline>
    <contour>
      <point x="302" y="232"/>
      <point x="281" y="201"/>
      <point x="261" y="166" type="curve"/>
      <point x="266" y="161"/>
      <point x="285" y="145"/>
      <point x="306" y="118" type="curve" smooth="yes"/>
      <point x="322" y="96"/>
      <point x="337" y="71"/>
      <point x="337" y="39" type="curve" smooth="yes"/>
      <point x="337" y="-6"/>
      <point x="310" y="-40"/>
      <point x="267" y="-69" type="curve"/>
      <point x="257" y="-42"/>
      <point x="220" y="19"/>
      <point x="145" y="20" type="curve" smooth="yes"/>
      <point x="80" y="20"/>
      <point x="37" y="-36"/>
      <point x="37" y="-91" type="curve" smooth="yes"/>
      <point x="37" y="-132"/>
      <point x="52" y="-162"/>
      <point x="76" y="-184" type="curve" smooth="yes"/>
      <point x="103" y="-208"/>
      <point x="141" y="-220"/>
      <point x="178" y="-220" type="curve" smooth="yes"/>
      <point x="203" y="-221"/>
      <point x="228" y="-216"/>
      <point x="249" y="-206" type="curve"/>
      <point x="252" y="-222"/>
      <point x="256" y="-237"/>
      <point x="259" y="-261" type="curve"/>
      <point x="310" y="-216" type="line"/>
      <point x="307" y="-206"/>
      <point x="305" y="-193"/>
      <point x="302" y="-181" type="curve"/>
      <point x="322" y="-165"/>
      <point x="356" y="-139"/>
      <point x="376" y="-82" type="curve" smooth="yes"/>
      <point x="399" y="-27"/>
      <point x="403" y="33"/>
      <point x="403" y="65" type="curve" smooth="yes"/>
      <point x="403" y="141"/>
      <point x="380" y="190"/>
      <point x="357" y="224" type="curve" smooth="yes"/>
      <point x="349" y="238"/>
      <point x="335" y="253"/>
      <point x="326" y="262" type="curve"/>
    </contour>
    <contour>
      <point x="205" y="-108"/>
      <point x="179" y="-117"/>
      <point x="162" y="-119" type="curve" smooth="yes"/>
      <point x="102" y="-129"/>
      <point x="81" y="-104"/>
      <point x="84" y="-78" type="curve" smooth="yes"/>
      <point x="87" y="-60"/>
      <point x="107" y="-45"/>
      <point x="130" y="-45" type="curve" smooth="yes"/>
      <point x="162" y="-45"/>
      <point x="191" y="-64"/>
      <point x="212" y="-102" type="curve"/>
    </contour>
    <contour>
      <point x="265" y="300" type="move" name="top"/>
    </contour>
    <contour>
      <point x="177" y="-280" type="move" name="bottom"/>
    </contour>
  </outline>
</glyph>
<glyph name="uni08E9" format="1">
  <advance width="0"/>
  <unicode hex="08E9"/>
  <outline>
    <contour>
      <point x="-56" y="-332"/>
      <point x="-51" y="-340"/>
      <point x="-31" y="-355" type="curve"/>
      <point x="-35" y="-363"/>
      <point x="-37" y="-371"/>
      <point x="-36" y="-379" type="curve" smooth="yes"/>
      <point x="-35" y="-394"/>
      <point x="-28" y="-404"/>
      <point x="-5" y="-420" type="curve"/>
      <point x="2" y="-406" type="line"/>
      <point x="-3" y="-402"/>
      <point x="-8" y="-397"/>
      <point x="-9" y="-391" type="curve"/>
      <point x="-12" y="-381"/>
      <point x="0" y="-370"/>
      <point x="12" y="-362" type="curve" smooth="yes"/>
      <point x="21" y="-357"/>
      <point x="41" y="-347"/>
      <point x="49" y="-336" type="curve"/>
      <point x="55" y="-328"/>
      <point x="59" y="-317"/>
      <point x="59" y="-306" type="curve" smooth="yes"/>
      <point x="58" y="-289"/>
      <point x="54" y="-282"/>
      <point x="33" y="-266" type="curve"/>
      <point x="36" y="-259"/>
      <point x="38" y="-251"/>
      <point x="38" y="-244" type="curve" smooth="yes"/>
      <point x="37" y="-227"/>
      <point x="31" y="-219"/>
      <point x="7" y="-200" type="curve"/>
      <point x="0" y="-214" type="line"/>
      <point x="5" y="-219"/>
      <point x="10" y="-225"/>
      <point x="11" y="-228" type="curve"/>
      <point x="11" y="-232"/>
      <point x="14" y="-244"/>
      <point x="-14" y="-260" type="curve" smooth="yes"/>
      <point x="-24" y="-266"/>
      <point x="-39" y="-273"/>
      <point x="-48" y="-285" type="curve"/>
      <point x="-55" y="-295"/>
      <point x="-58" y="-306"/>
      <point x="-58" y="-317" type="curve" smooth="yes"/>
    </contour>
    <contour>
      <point x="-35" y="-319"/>
      <point x="-22" y="-308"/>
      <point x="-10" y="-300" type="curve" smooth="yes"/>
      <point x="-2" y="-296"/>
      <point x="14" y="-287"/>
      <point x="23" y="-278" type="curve"/>
      <point x="27" y="-283"/>
      <point x="31" y="-287"/>
      <point x="31" y="-290" type="curve"/>
      <point x="31" y="-294"/>
      <point x="34" y="-305"/>
      <point x="7" y="-322" type="curve" smooth="yes"/>
      <point x="-2" y="-327"/>
      <point x="-14" y="-333"/>
      <point x="-23" y="-343" type="curve"/>
      <point x="-26" y="-339"/>
      <point x="-31" y="-335"/>
      <point x="-31" y="-329" type="curve"/>
    </contour>
    <contour>
      <point x="0" y="-181" type="move" name="_bottom"/>
    </contour>
    <contour>
      <point x="-2" y="-420" type="move" name="bottom"/>
    </contour>
  </outline>
</glyph>
<glyph name="uni08F1" format="1">
  <advance width="0"/>
  <unicode hex="08F1"/>
  <outline>
    <contour>
      <point x="-15" y="764" type="line"/>
      <point x="-3" y="789"/>
      <point x="1" y="819"/>
      <point x="-19" y="828" type="curve" smooth="yes"/>
      <point x="-33" y="837"/>
      <point x="-52" y="830"/>
      <point x="-68" y="809" type="curve" smooth="yes"/>
      <point x="-78" y="797"/>
      <point x="-82" y="786"/>
      <point x="-78" y="777" type="curve" smooth="yes"/>
      <point x="-75" y="764"/>
      <point x="-65" y="755"/>
      <point x="-52" y="750" type="curve"/>
      <point x="-69" y="735"/>
      <point x="-89" y="729"/>
      <point x="-117" y="732" type="curve"/>
      <point x="-122" y="724"/>
      <point x="-125" y="717"/>
      <point x="-129" y="704" type="curve"/>
      <point x="-86" y="701"/>
      <point x="-65" y="709"/>
      <point x="-51" y="720" type="curve" smooth="yes"/>
      <point x="-40" y="727"/>
      <point x="-34" y="734"/>
      <point x="-29" y="741" type="curve"/>
      <point x="-6" y="732" type="line"/>
      <point x="-4" y="745"/>
      <point x="-5" y="750"/>
      <point x="-7" y="760" type="curve"/>
    </contour>
    <contour>
      <point x="-46" y="777" type="line" smooth="yes"/>
      <point x="-56" y="784"/>
      <point x="-57" y="789"/>
      <point x="-57" y="794" type="curve" smooth="yes"/>
      <point x="-58" y="799"/>
      <point x="-54" y="805"/>
      <point x="-46" y="807" type="curve" smooth="yes"/>
      <point x="-41" y="809"/>
      <point x="-36" y="808"/>
      <point x="-30" y="802" type="curve" smooth="yes"/>
      <point x="-24" y="796"/>
      <point x="-24" y="784"/>
      <point x="-32" y="771" type="curve"/>
    </contour>
    <contour>
      <point x="105" y="764" type="line"/>
      <point x="117" y="789"/>
      <point x="123" y="819"/>
      <point x="103" y="828" type="curve" smooth="yes"/>
      <point x="88" y="837"/>
      <point x="69" y="830"/>
      <point x="53" y="809" type="curve" smooth="yes"/>
      <point x="44" y="797"/>
      <point x="40" y="786"/>
      <point x="43" y="777" type="curve" smooth="yes"/>
      <point x="46" y="764"/>
      <point x="57" y="755"/>
      <point x="69" y="750" type="curve"/>
      <point x="53" y="735"/>
      <point x="33" y="729"/>
      <point x="4" y="732" type="curve"/>
      <point x="-1" y="724"/>
      <point x="-4" y="717"/>
      <point x="-8" y="704" type="curve"/>
      <point x="36" y="701"/>
      <point x="56" y="709"/>
      <point x="70" y="720" type="curve" smooth="yes"/>
      <point x="81" y="727"/>
      <point x="87" y="734"/>
      <point x="93" y="741" type="curve"/>
      <point x="116" y="732" type="line"/>
      <point x="117" y="745"/>
      <point x="116" y="750"/>
      <point x="115" y="760" type="curve"/>
    </contour>
    <contour>
      <point x="76" y="777" type="line" smooth="yes"/>
      <point x="65" y="784"/>
      <point x="62" y="789"/>
      <point x="62" y="794" type="curve" smooth="yes"/>
      <point x="62" y="799"/>
      <point x="67" y="805"/>
      <point x="74" y="807" type="curve" smooth="yes"/>
      <point x="80" y="809"/>
      <point x="85" y="808"/>
      <point x="91" y="802" type="curve" smooth="yes"/>
      <point x="97" y="796"/>
      <point x="96" y="784"/>
      <point x="89" y="771" type="curve"/>
    </contour>
    <contour>
      <point x="1" y="837" type="move" name="top"/>
    </contour>
    <contour>
      <point x="1" y="680" type="move" name="_top"/>
    </contour>
  </outline>
</glyph>
<glyph name="uni08F2" format="1">
  <advance width="0"/>
  <unicode hex="08F2"/>
  <outline>
    <contour>
      <point x="9" y="-312"/>
      <point x="-74" y="-344"/>
      <point x="-116" y="-367" type="curve"/>
      <point x="-120" y="-376"/>
      <point x="-124" y="-391"/>
      <point x="-127" y="-404" type="curve"/>
      <point x="-100" y="-393"/>
      <point x="-1" y="-350"/>
      <point x="43" y="-336" type="curve"/>
      <point x="49" y="-322"/>
      <point x="51" y="-314"/>
      <point x="54" y="-300" type="curve"/>
    </contour>
    <contour>
      <point x="80" y="-218"/>
      <point x="-3" y="-250"/>
      <point x="-45" y="-273" type="curve"/>
      <point x="-49" y="-282"/>
      <point x="-54" y="-297"/>
      <point x="-56" y="-310" type="curve"/>
      <point x="-30" y="-299"/>
      <point x="69" y="-256"/>
      <point x="114" y="-242" type="curve"/>
      <point x="120" y="-228"/>
      <point x="122" y="-220"/>
      <point x="124" y="-206" type="curve"/>
    </contour>
    <contour>
      <point x="0" y="-186" type="move" name="_bottom"/>
    </contour>
    <contour>
      <point x="0" y="-404" type="move" name="bottom"/>
    </contour>
  </outline>
</glyph>
<glyph name="uni08F4" format="1">
  <advance width="0"/>
  <unicode hex="08F4"/>
  <outline>
    <contour>
      <point x="40" y="803"/>
      <point x="-31" y="775"/>
      <point x="-71" y="755" type="curve"/>
      <point x="-75" y="750"/>
      <point x="-79" y="734"/>
      <point x="-79" y="724" type="curve"/>
      <point x="-56" y="735"/>
      <point x="34" y="772"/>
      <point x="76" y="784" type="curve"/>
      <point x="81" y="794"/>
      <point x="83" y="805"/>
      <point x="84" y="816" type="curve"/>
    </contour>
    <contour>
      <point x="-42" y="842"/>
      <point x="-61" y="794"/>
      <point x="-61" y="755" type="curve" smooth="yes"/>
      <point x="-61" y="739"/>
      <point x="-50" y="700"/>
      <point x="-2" y="700" type="curve" smooth="yes"/>
      <point x="24" y="700"/>
      <point x="42" y="709"/>
      <point x="51" y="724" type="curve" smooth="yes"/>
      <point x="59" y="737"/>
      <point x="61" y="752"/>
      <point x="61" y="763" type="curve" smooth="yes"/>
      <point x="61" y="798"/>
      <point x="43" y="842"/>
      <point x="-3" y="842" type="curve"/>
    </contour>
    <contour>
      <point x="32" y="805"/>
      <point x="41" y="784"/>
      <point x="41" y="768" type="curve" smooth="yes"/>
      <point x="41" y="746"/>
      <point x="16" y="743"/>
      <point x="-4" y="743" type="curve" smooth="yes"/>
      <point x="-30" y="743"/>
      <point x="-36" y="756"/>
      <point x="-36" y="773" type="curve" smooth="yes"/>
      <point x="-36" y="785"/>
      <point x="-30" y="805"/>
      <point x="-4" y="805" type="curve"/>
    </contour>
    <contour>
      <point x="1" y="842" type="move" name="top"/>
    </contour>
    <contour>
      <point x="1" y="682" type="move" name="_top"/>
    </contour>
  </outline>
</glyph>
<glyph name="uni08F5" format="1">
  <advance width="0"/>
  <unicode hex="08F5"/>
  <outline>
    <contour>
      <point x="-64" y="711"/>
      <point x="35" y="754"/>
      <point x="79" y="768" type="curve"/>
      <point x="85" y="782"/>
      <point x="87" y="790"/>
      <point x="90" y="804" type="curve"/>
      <point x="45" y="792"/>
      <point x="-38" y="760"/>
      <point x="-80" y="737" type="curve"/>
      <point x="-84" y="728"/>
      <point x="-88" y="713"/>
      <point x="-91" y="700" type="curve"/>
    </contour>
    <contour>
      <point x="-17" y="820"/>
      <point x="-7" y="810"/>
      <point x="0" y="801" type="curve"/>
      <point x="10" y="808"/>
      <point x="22" y="821"/>
      <point x="26" y="827" type="curve"/>
      <point x="21" y="837"/>
      <point x="10" y="849"/>
      <point x="-2" y="856" type="curve"/>
      <point x="-7" y="849"/>
      <point x="-21" y="835"/>
      <point x="-29" y="829" type="curve"/>
    </contour>
    <contour>
      <point x="-1" y="856" type="move" name="top"/>
    </contour>
    <contour>
      <point x="-1" y="680" type="move" name="_top"/>
    </contour>
  </outline>
</glyph>
<glyph name="uni08F6" format="1">
  <advance width="0"/>
  <unicode hex="08F6"/>
  <outline>
    <contour>
      <point x="-63" y="-297"/>
      <point x="36" y="-254"/>
      <point x="80" y="-240" type="curve"/>
      <point x="86" y="-226"/>
      <point x="88" y="-218"/>
      <point x="91" y="-204" type="curve"/>
      <point x="46" y="-217"/>
      <point x="-37" y="-249"/>
      <point x="-79" y="-272" type="curve"/>
      <point x="-83" y="-281"/>
      <point x="-87" y="-296"/>
      <point x="-90" y="-309" type="curve"/>
    </contour>
    <contour>
      <point x="-16" y="-335"/>
      <point x="-6" y="-346"/>
      <point x="1" y="-355" type="curve"/>
      <point x="11" y="-347"/>
      <point x="23" y="-334"/>
      <point x="27" y="-329" type="curve"/>
      <point x="22" y="-319"/>
      <point x="11" y="-307"/>
      <point x="-1" y="-300" type="curve"/>
      <point x="-6" y="-306"/>
      <point x="-20" y="-320"/>
      <point x="-28" y="-327" type="curve"/>
    </contour>
    <contour>
      <point x="1" y="-184" type="move" name="_bottom"/>
    </contour>
    <contour>
      <point x="1" y="-355" type="move" name="bottom"/>
    </contour>
  </outline>
</glyph>
<glyph name="filledbox" format="1">
  <advance width="472"/>
  <unicode hex="25A0"/>
  <outline>
    <contour>
      <point x="426" y="443" type="line"/>
      <point x="47" y="443" type="line"/>
      <point x="47" y="64" type="line"/>
      <point x="426" y="64" type="line"/>
    </contour>
  </outline>
</glyph>
<glyph name="uni25A1" format="1">
  <advance width="472"/>
  <unicode hex="25A1"/>
  <outline>
    <contour>
      <point x="426" y="443" type="line"/>
      <point x="47" y="443" type="line"/>
      <point x="47" y="64" type="line"/>
      <point x="426" y="64" type="line"/>
    </contour>
    <contour>
      <point x="107" y="383" type="line"/>
      <point x="366" y="383" type="line"/>
      <point x="366" y="124" type="line"/>
      <point x="107" y="124" type="line"/>
    </contour>
  </outline>
</glyph>
<glyph name="uniFB9F" format="1">
  <advance width="684"/>
  <unicode hex="FB9F"/>
  <outline>
    <contour>
      <point x="684" y="125" type="line"/>
      <point x="582" y="125" type="line" smooth="yes"/>
      <point x="551" y="125"/>
      <point x="512" y="141"/>
      <point x="481" y="184" type="curve" smooth="yes"/>
      <point x="473" y="194" type="line"/>
      <point x="451" y="166"/>
      <point x="433" y="139"/>
      <point x="414" y="107" type="curve"/>
      <point x="461" y="39"/>
      <point x="493" y="-16"/>
      <point x="493" y="-51" type="curve" smooth="yes"/>
      <point x="493" y="-88"/>
      <point x="456" y="-116"/>
      <point x="401" y="-130" type="curve" smooth="yes"/>
      <point x="375" y="-139"/>
      <point x="341" y="-145"/>
      <point x="300" y="-145" type="curve" smooth="yes"/>
      <point x="262" y="-145"/>
      <point x="230" y="-139"/>
      <point x="207" y="-131" type="curve" smooth="yes"/>
      <point x="183" y="-123"/>
      <point x="161" y="-110"/>
      <point x="148" y="-92" type="curve" smooth="yes"/>
      <point x="122" y="-59"/>
      <point x="124" y="-14"/>
      <point x="134" y="40" type="curve"/>
      <point x="99" y="53" type="line"/>
      <point x="80" y="16"/>
      <point x="67" y="-38"/>
      <point x="64" y="-76" type="curve" smooth="yes"/>
      <point x="61" y="-112"/>
      <point x="67" y="-146"/>
      <point x="77" y="-171" type="curve" smooth="yes"/>
      <point x="92" y="-207"/>
      <point x="117" y="-235"/>
      <point x="156" y="-256" type="curve" smooth="yes"/>
      <point x="194" y="-276"/>
      <point x="238" y="-285"/>
      <point x="289" y="-285" type="curve" smooth="yes"/>
      <point x="324" y="-285"/>
      <point x="360" y="-281"/>
      <point x="394" y="-270" type="curve" smooth="yes"/>
      <point x="432" y="-258"/>
      <point x="471" y="-236"/>
      <point x="500" y="-204" type="curve" smooth="yes"/>
      <point x="556" y="-143"/>
      <point x="565" y="-56"/>
      <point x="554" y="10" type="curve"/>
      <point x="569" y="3"/>
      <point x="585" y="0"/>
      <point x="610" y="0" type="curve"/>
      <point x="684" y="0" type="line"/>
    </contour>
    <contour>
      <point x="288" y="-45" type="move" name="top"/>
    </contour>
    <contour>
      <point x="296" y="-316" type="move" name="bottom"/>
    </contour>
  </outline>
</glyph>
<glyph name="uniFBA9" format="1">
  <advance width="484"/>
  <unicode hex="FBA9"/>
  <outline>
    <contour>
      <point x="344" y="125" type="line" smooth="yes"/>
      <point x="299" y="125"/>
      <point x="259" y="114"/>
      <point x="231" y="91" type="curve" smooth="yes"/>
      <point x="206" y="70"/>
      <point x="193" y="40"/>
      <point x="192" y="6" type="curve"/>
      <point x="175" y="37"/>
      <point x="168" y="65"/>
      <point x="164" y="99" type="curve" smooth="yes"/>
      <point x="160" y="129"/>
      <point x="160" y="164"/>
      <point x="165" y="205" type="curve"/>
      <point x="123" y="188" type="line"/>
      <point x="121" y="172"/>
      <point x="117" y="157"/>
      <point x="103" y="144" type="curve" smooth="yes"/>
      <point x="92" y="134"/>
      <point x="77" y="125"/>
      <point x="46" y="125" type="curve" smooth="yes"/>
      <point x="-13" y="125" type="line" smooth="yes"/>
      <point x="-48" y="125"/>
      <point x="-76" y="97"/>
      <point x="-76" y="63" type="curve" smooth="yes"/>
      <point x="-76" y="34"/>
      <point x="-57" y="0"/>
      <point x="-13" y="0" type="curve" smooth="yes"/>
      <point x="29" y="0" type="line" smooth="yes"/>
      <point x="65" y="0"/>
      <point x="87" y="13"/>
      <point x="103" y="33" type="curve"/>
      <point x="103" y="13"/>
      <point x="106" y="-10"/>
      <point x="110" y="-28" type="curve" smooth="yes"/>
      <point x="116" y="-59"/>
      <point x="130" y="-87"/>
      <point x="143" y="-108" type="curve" smooth="yes"/>
      <point x="161" y="-138"/>
      <point x="186" y="-166"/>
      <point x="220" y="-187" type="curve"/>
      <point x="250" y="-161"/>
      <point x="270" y="-140"/>
      <point x="295" y="-108" type="curve"/>
      <point x="280" y="-91"/>
      <point x="268" y="-76"/>
      <point x="262" y="-52" type="curve" smooth="yes"/>
      <point x="258" y="-35"/>
      <point x="257" y="-19"/>
      <point x="264" y="-2" type="curve" smooth="yes"/>
      <point x="271" y="16"/>
      <point x="291" y="32"/>
      <point x="322" y="32" type="curve" smooth="yes"/>
      <point x="344" y="32"/>
      <point x="359" y="24"/>
      <point x="372" y="16" type="curve" smooth="yes"/>
      <point x="389" y="7"/>
      <point x="400" y="0"/>
      <point x="437" y="0" type="curve" smooth="yes"/>
      <point x="484" y="0" type="line"/>
      <point x="484" y="125" type="line"/>
    </contour>
    <contour>
      <point x="195" y="233" type="move" name="top"/>
    </contour>
    <contour>
      <point x="219" y="-217" type="move" name="bottom"/>
    </contour>
  </outline>
</glyph>
<glyph name="uniFBB2" format="1">
  <advance width="0"/>
  <unicode hex="FBB2"/>
  <outline>
    <contour>
      <point x="-14" y="776"/>
      <point x="-45" y="743"/>
      <point x="-63" y="728" type="curve"/>
      <point x="-37" y="709"/>
      <point x="-15" y="686"/>
      <point x="2" y="665" type="curve"/>
      <point x="25" y="683"/>
      <point x="52" y="712"/>
      <point x="62" y="725" type="curve"/>
      <point x="50" y="747"/>
      <point x="25" y="774"/>
      <point x="-2" y="789" type="curve"/>
    </contour>
    <contour>
      <point x="0" y="793" type="move" name="top"/>
    </contour>
    <contour>
      <point x="0" y="642" type="move" name="_top"/>
    </contour>
  </outline>
</glyph>
<glyph name="uniFBB5" format="1">
  <advance width="0"/>
  <unicode hex="FBB5"/>
  <outline>
    <contour>
      <point x="39" y="-189"/>
      <point x="17" y="-211"/>
      <point x="0" y="-227" type="curve"/>
      <point x="-14" y="-209"/>
      <point x="-34" y="-190"/>
      <point x="-55" y="-178" type="curve"/>
      <point x="-66" y="-191"/>
      <point x="-98" y="-223"/>
      <point x="-115" y="-239" type="curve"/>
      <point x="-89" y="-258"/>
      <point x="-68" y="-281"/>
      <point x="-50" y="-302" type="curve"/>
      <point x="-32" y="-287"/>
      <point x="-10" y="-265"/>
      <point x="3" y="-251" type="curve"/>
      <point x="22" y="-267"/>
      <point x="39" y="-286"/>
      <point x="52" y="-302" type="curve"/>
      <point x="75" y="-284"/>
      <point x="102" y="-255"/>
      <point x="112" y="-242" type="curve"/>
      <point x="100" y="-220"/>
      <point x="75" y="-194"/>
      <point x="47" y="-178" type="curve"/>
    </contour>
    <contour>
      <point x="-3" y="-146" type="move" name="_bottom"/>
    </contour>
    <contour>
      <point x="-3" y="-297" type="move" name="bottom"/>
    </contour>
  </outline>
</glyph>
<glyph name="uniFBBB" format="1">
  <advance width="0"/>
  <unicode hex="FBBB"/>
  <outline>
    <contour>
      <point x="-92" y="-173"/>
      <point x="-71" y="-196"/>
      <point x="-53" y="-217" type="curve"/>
      <point x="-35" y="-202"/>
      <point x="-13" y="-180"/>
      <point x="0" y="-166" type="curve"/>
      <point x="19" y="-182"/>
      <point x="36" y="-200"/>
      <point x="49" y="-217" type="curve"/>
      <point x="72" y="-198"/>
      <point x="99" y="-170"/>
      <point x="109" y="-157" type="curve"/>
      <point x="99" y="-138"/>
      <point x="78" y="-115"/>
      <point x="54" y="-99" type="curve"/>
      <point x="77" y="-80"/>
      <point x="100" y="-55"/>
      <point x="109" y="-43" type="curve"/>
      <point x="97" y="-21"/>
      <point x="72" y="6"/>
      <point x="44" y="22" type="curve"/>
      <point x="36" y="11"/>
      <point x="14" y="-11"/>
      <point x="-3" y="-28" type="curve"/>
      <point x="-17" y="-10"/>
      <point x="-37" y="10"/>
      <point x="-58" y="22" type="curve"/>
      <point x="-69" y="9"/>
      <point x="-101" y="-24"/>
      <point x="-118" y="-39" type="curve"/>
      <point x="-96" y="-56"/>
      <point x="-76" y="-76"/>
      <point x="-59" y="-95" type="curve"/>
      <point x="-71" y="-109"/>
      <point x="-102" y="-139"/>
      <point x="-118" y="-154" type="curve"/>
    </contour>
    <contour>
      <point x="-32" y="-84"/>
      <point x="-12" y="-65"/>
      <point x="-1" y="-51" type="curve"/>
      <point x="16" y="-65"/>
      <point x="31" y="-80"/>
      <point x="43" y="-95" type="curve"/>
      <point x="34" y="-106"/>
      <point x="13" y="-127"/>
      <point x="-3" y="-142" type="curve"/>
      <point x="-14" y="-127"/>
      <point x="-31" y="-111"/>
      <point x="-48" y="-99" type="curve"/>
    </contour>
    <contour>
      <point x="-6" y="42" type="move" name="_bottom"/>
    </contour>
    <contour>
      <point x="-6" y="-217" type="move" name="bottom"/>
    </contour>
  </outline>
</glyph>
<glyph name="uniFBBF" format="1">
  <advance width="0"/>
  <unicode hex="FBBF"/>
  <outline>
    <contour>
      <point x="-44" y="-186"/>
      <point x="-64" y="-239"/>
      <point x="-64" y="-282" type="curve" smooth="yes"/>
      <point x="-64" y="-299"/>
      <point x="-52" y="-342"/>
      <point x="1" y="-342" type="curve" smooth="yes"/>
      <point x="30" y="-342"/>
      <point x="49" y="-333"/>
      <point x="59" y="-316" type="curve" smooth="yes"/>
      <point x="69" y="-301"/>
      <point x="70" y="-285"/>
      <point x="70" y="-274" type="curve" smooth="yes"/>
      <point x="70" y="-235"/>
      <point x="51" y="-186"/>
      <point x="-1" y="-186" type="curve"/>
    </contour>
    <contour>
      <point x="34" y="-231"/>
      <point x="42" y="-252"/>
      <point x="42" y="-267" type="curve" smooth="yes"/>
      <point x="42" y="-288"/>
      <point x="18" y="-291"/>
      <point x="-2" y="-291" type="curve" smooth="yes"/>
      <point x="-27" y="-291"/>
      <point x="-33" y="-278"/>
      <point x="-33" y="-262" type="curve" smooth="yes"/>
      <point x="-33" y="-250"/>
      <point x="-27" y="-231"/>
      <point x="-1" y="-231" type="curve"/>
    </contour>
    <contour>
      <point x="-1" y="-164" type="move" name="_bottom"/>
    </contour>
    <contour>
      <point x="1" y="-342" type="move" name="bottom"/>
    </contour>
  </outline>
</glyph>
<glyph name="uniFBC1" format="1">
  <advance width="0"/>
  <unicode hex="FBC1"/>
  <outline>
    <contour>
      <point x="-58" y="-252" type="line"/>
      <point x="-50" y="-267"/>
      <point x="-38" y="-309"/>
      <point x="-36" y="-349" type="curve"/>
      <point x="-43" y="-363" type="line"/>
      <point x="-74" y="-363" type="line"/>
      <point x="-62" y="-408" type="line"/>
      <point x="-18" y="-408" type="line"/>
      <point x="3" y="-408"/>
      <point x="27" y="-399"/>
      <point x="45" y="-386" type="curve" smooth="yes"/>
      <point x="65" y="-370"/>
      <point x="76" y="-351"/>
      <point x="76" y="-331" type="curve" smooth="yes"/>
      <point x="76" y="-312"/>
      <point x="51" y="-296"/>
      <point x="34" y="-296" type="curve" smooth="yes"/>
      <point x="20" y="-296"/>
      <point x="0" y="-306"/>
      <point x="-18" y="-332" type="curve"/>
      <point x="-15" y="-315"/>
      <point x="-16" y="-301"/>
      <point x="-19" y="-282" type="curve"/>
      <point x="-21" y="-266"/>
      <point x="-18" y="-262"/>
      <point x="-7" y="-257" type="curve"/>
      <point x="-18" y="-245"/>
      <point x="-26" y="-233"/>
      <point x="-32" y="-219" type="curve"/>
    </contour>
    <contour>
      <point x="44" y="-355"/>
      <point x="25" y="-365"/>
      <point x="5" y="-365" type="curve" smooth="yes"/>
      <point x="-21" y="-365" type="line"/>
      <point x="-12" y="-349"/>
      <point x="3" y="-330"/>
      <point x="21" y="-330" type="curve" smooth="yes"/>
      <point x="38" y="-330"/>
      <point x="46" y="-339"/>
      <point x="50" y="-346" type="curve"/>
    </contour>
    <contour>
      <point x="0" y="-199" type="move" name="_bottom"/>
    </contour>
    <contour>
      <point x="0" y="-408" type="move" name="bottom"/>
    </contour>
  </outline>
</glyph>
<glyph name="uniFC18" format="1">
  <advance width="711"/>
  <unicode hex="FC18"/>
  <outline>
    <contour>
      <point x="564" y="336"/>
      <point x="494" y="359"/>
      <point x="434" y="391" type="curve" smooth="yes"/>
      <point x="401" y="409"/>
      <point x="367" y="424"/>
      <point x="330" y="424" type="curve" smooth="yes"/>
      <point x="310" y="424"/>
      <point x="291" y="419"/>
      <point x="274" y="411" type="curve" smooth="yes"/>
      <point x="245" y="396"/>
      <point x="227" y="373"/>
      <point x="206" y="337" type="curve"/>
      <point x="226" y="309" type="line"/>
      <point x="247" y="329"/>
      <point x="262" y="338"/>
      <point x="294" y="338" type="curve" smooth="yes"/>
      <point x="324" y="338"/>
      <point x="351" y="320"/>
      <point x="389" y="300" type="curve"/>
      <point x="343" y="300"/>
      <point x="300" y="290"/>
      <point x="263" y="272" type="curve" smooth="yes"/>
      <point x="230" y="256"/>
      <point x="201" y="233"/>
      <point x="181" y="206" type="curve"/>
      <point x="172" y="195"/>
      <point x="160" y="175"/>
      <point x="153" y="152" type="curve"/>
      <point x="120" y="139"/>
      <point x="94" y="119"/>
      <point x="75" y="92" type="curve" smooth="yes"/>
      <point x="51" y="59"/>
      <point x="42" y="15"/>
      <point x="53" y="-37" type="curve" smooth="yes"/>
      <point x="61" y="-88"/>
      <point x="71" y="-153"/>
      <point x="76" y="-193" type="curve" smooth="yes"/>
      <point x="86" y="-274"/>
      <point x="92" y="-326"/>
      <point x="96" y="-374" type="curve"/>
      <point x="144" y="-356" type="line"/>
      <point x="146" y="-280"/>
      <point x="142" y="-190"/>
      <point x="136" y="-134" type="curve" smooth="yes"/>
      <point x="133" y="-96"/>
      <point x="124" y="-26"/>
      <point x="115" y="34" type="curve"/>
      <point x="129" y="51"/>
      <point x="168" y="64"/>
      <point x="226" y="63" type="curve" smooth="yes"/>
      <point x="265" y="62"/>
      <point x="290" y="54"/>
      <point x="330" y="41" type="curve"/>
      <point x="355" y="76"/>
      <point x="362" y="92"/>
      <point x="380" y="139" type="curve"/>
      <point x="348" y="168"/>
      <point x="304" y="185"/>
      <point x="280" y="193" type="curve"/>
      <point x="322" y="229"/>
      <point x="386" y="249"/>
      <point x="442" y="249" type="curve" smooth="yes"/>
      <point x="520" y="249"/>
      <point x="576" y="234"/>
      <point x="591" y="230" type="curve"/>
      <point x="621" y="260"/>
      <point x="632" y="277"/>
      <point x="658" y="323" type="curve"/>
    </contour>
    <contour>
      <point x="356" y="0" type="move" name="caret_1"/>
    </contour>
    <contour>
      <point x="412" y="23" type="move" name="bottom_1"/>
    </contour>
    <contour>
      <point x="350" y="454" type="move" name="top_1"/>
    </contour>
    <contour>
      <point x="77" y="291" type="move" name="top_2"/>
    </contour>
    <contour>
      <point x="122" y="-394" type="move" name="bottom_2"/>
    </contour>
  </outline>
</glyph>
<glyph name="uniFC1F" format="1">
  <advance width="854"/>
  <unicode hex="FC1F"/>
  <outline>
    <contour>
      <point x="729" y="333"/>
      <point x="713" y="312"/>
      <point x="696" y="285" type="curve"/>
      <point x="743" y="219" type="line"/>
      <point x="730" y="191"/>
      <point x="717" y="181"/>
      <point x="686" y="181" type="curve" smooth="yes"/>
      <point x="670" y="181"/>
      <point x="648" y="184"/>
      <point x="634" y="199" type="curve"/>
      <point x="622" y="211"/>
      <point x="619" y="232"/>
      <point x="620" y="251" type="curve"/>
      <point x="620" y="263"/>
      <point x="622" y="273"/>
      <point x="623" y="283" type="curve"/>
      <point x="582" y="267" type="line"/>
      <point x="581" y="261"/>
      <point x="581" y="242"/>
      <point x="575" y="226" type="curve" smooth="yes"/>
      <point x="566" y="203"/>
      <point x="549" y="179"/>
      <point x="497" y="179" type="curve" smooth="yes"/>
      <point x="453" y="179"/>
      <point x="427" y="198"/>
      <point x="395" y="230" type="curve" smooth="yes"/>
      <point x="375" y="251"/>
      <point x="347" y="273"/>
      <point x="310" y="273" type="curve" smooth="yes"/>
      <point x="255" y="273"/>
      <point x="212" y="229"/>
      <point x="192" y="198" type="curve" smooth="yes"/>
      <point x="173" y="170"/>
      <point x="153" y="128"/>
      <point x="147" y="91" type="curve"/>
      <point x="111" y="72"/>
      <point x="87" y="48"/>
      <point x="70" y="18" type="curve" smooth="yes"/>
      <point x="53" y="-14"/>
      <point x="44" y="-56"/>
      <point x="51" y="-99" type="curve" smooth="yes"/>
      <point x="81" y="-286"/>
      <point x="90" y="-372"/>
      <point x="96" y="-437" type="curve"/>
      <point x="148" y="-416" type="line"/>
      <point x="148" y="-388"/>
      <point x="143" y="-286"/>
      <point x="134" y="-192" type="curve" smooth="yes"/>
      <point x="129" y="-135"/>
      <point x="123" y="-85"/>
      <point x="115" y="-31" type="curve"/>
      <point x="132" y="-15"/>
      <point x="156" y="2"/>
      <point x="213" y="2" type="curve" smooth="yes"/>
      <point x="253" y="2"/>
      <point x="279" y="-7"/>
      <point x="315" y="-19" type="curve"/>
      <point x="338" y="11"/>
      <point x="351" y="34"/>
      <point x="363" y="72" type="curve"/>
      <point x="343" y="98"/>
      <point x="287" y="131"/>
      <point x="236" y="141" type="curve"/>
      <point x="250" y="156"/>
      <point x="273" y="177"/>
      <point x="312" y="177" type="curve"/>
      <point x="351" y="177"/>
      <point x="375" y="150"/>
      <point x="396" y="124" type="curve" smooth="yes"/>
      <point x="419" y="94"/>
      <point x="444" y="60"/>
      <point x="503" y="60" type="curve" smooth="yes"/>
      <point x="562" y="60"/>
      <point x="589" y="100"/>
      <point x="596" y="120" type="curve"/>
      <point x="601" y="101"/>
      <point x="629" y="69"/>
      <point x="680" y="69" type="curve" smooth="yes"/>
      <point x="722" y="69"/>
      <point x="754" y="91"/>
      <point x="775" y="127" type="curve" smooth="yes"/>
      <point x="797" y="164"/>
      <point x="801" y="206"/>
      <point x="801" y="227" type="curve" smooth="yes"/>
      <point x="801" y="272"/>
      <point x="782" y="321"/>
      <point x="749" y="355" type="curve"/>
    </contour>
    <contour>
      <point x="424" y="0" type="move" name="caret_1"/>
    </contour>
    <contour>
      <point x="594" y="31" type="move" name="bottom_1"/>
    </contour>
    <contour>
      <point x="595" y="336" type="move" name="top_1"/>
    </contour>
    <contour>
      <point x="164" y="272" type="move" name="top_2"/>
    </contour>
    <contour>
      <point x="121" y="-457" type="move" name="bottom_2"/>
    </contour>
  </outline>
</glyph>
<glyph name="uniFC3B" format="1">
  <advance width="820"/>
  <unicode hex="FC3B"/>
  <outline>
    <contour>
      <point x="732" y="193"/>
      <point x="714" y="239"/>
      <point x="689" y="281" type="curve" smooth="yes"/>
      <point x="668" y="316"/>
      <point x="635" y="350"/>
      <point x="595" y="381" type="curve"/>
      <point x="655" y="414"/>
      <point x="721" y="449"/>
      <point x="778" y="473" type="curve"/>
      <point x="789" y="517"/>
      <point x="794" y="551"/>
      <point x="800" y="595" type="curve"/>
      <point x="698" y="547"/>
      <point x="557" y="475"/>
      <point x="479" y="407" type="curve"/>
      <point x="460" y="594" type="line"/>
      <point x="438" y="574"/>
      <point x="409" y="537"/>
      <point x="376" y="487" type="curve"/>
      <point x="378" y="473"/>
      <point x="445" y="17"/>
      <point x="449" y="-16" type="curve" smooth="yes"/>
      <point x="455" y="-63"/>
      <point x="454" y="-92"/>
      <point x="418" y="-116" type="curve" smooth="yes"/>
      <point x="391" y="-133"/>
      <point x="351" y="-143"/>
      <point x="294" y="-143" type="curve" smooth="yes"/>
      <point x="260" y="-143"/>
      <point x="232" y="-138"/>
      <point x="207" y="-129" type="curve" smooth="yes"/>
      <point x="176" y="-119"/>
      <point x="157" y="-103"/>
      <point x="145" y="-83" type="curve" smooth="yes"/>
      <point x="125" y="-52"/>
      <point x="123" y="-14"/>
      <point x="134" y="42" type="curve"/>
      <point x="99" y="55" type="line"/>
      <point x="79" y="5"/>
      <point x="67" y="-33"/>
      <point x="64" y="-74" type="curve" smooth="yes"/>
      <point x="62" y="-103"/>
      <point x="63" y="-134"/>
      <point x="77" y="-169" type="curve" smooth="yes"/>
      <point x="92" y="-204"/>
      <point x="116" y="-233"/>
      <point x="156" y="-254" type="curve" smooth="yes"/>
      <point x="192" y="-273"/>
      <point x="239" y="-283"/>
      <point x="291" y="-283" type="curve" smooth="yes"/>
      <point x="364" y="-283"/>
      <point x="422" y="-261"/>
      <point x="461" y="-218" type="curve" smooth="yes"/>
      <point x="485" y="-192"/>
      <point x="502" y="-157"/>
      <point x="510" y="-121" type="curve" smooth="yes"/>
      <point x="516" y="-96"/>
      <point x="520" y="-65"/>
      <point x="519" y="-33" type="curve" smooth="yes"/>
      <point x="518" y="-15"/>
      <point x="518" y="-6"/>
      <point x="515" y="29" type="curve"/>
      <point x="530" y="12"/>
      <point x="555" y="0"/>
      <point x="591" y="0" type="curve" smooth="yes"/>
      <point x="681" y="0"/>
      <point x="732" y="53"/>
      <point x="732" y="142" type="curve" smooth="yes"/>
    </contour>
    <contour>
      <point x="648" y="136"/>
      <point x="625" y="121"/>
      <point x="580" y="121" type="curve"/>
      <point x="557" y="121"/>
      <point x="539" y="125"/>
      <point x="526" y="136" type="curve" smooth="yes"/>
      <point x="513" y="148"/>
      <point x="504" y="166"/>
      <point x="502" y="193" type="curve" smooth="yes"/>
      <point x="498" y="231"/>
      <point x="492" y="278"/>
      <point x="487" y="329" type="curve"/>
      <point x="521" y="310"/>
      <point x="566" y="281"/>
      <point x="599" y="250" type="curve" smooth="yes"/>
      <point x="639" y="212"/>
      <point x="663" y="174"/>
      <point x="663" y="157" type="curve"/>
    </contour>
    <contour>
      <point x="393" y="0" type="move" name="caret_1"/>
    </contour>
    <contour>
      <point x="654" y="-28" type="move" name="bottom_1"/>
    </contour>
    <contour>
      <point x="667" y="585" type="move" name="top_1"/>
    </contour>
    <contour>
      <point x="354" y="587" type="move" name="top_2"/>
    </contour>
    <contour>
      <point x="291" y="-313" type="move" name="bottom_2"/>
    </contour>
  </outline>
</glyph>
<glyph name="uniFC40" format="1">
  <advance width="568"/>
  <unicode hex="FC40"/>
  <outline>
    <contour>
      <point x="521" y="273" type="line"/>
      <point x="455" y="273"/>
      <point x="373" y="282"/>
      <point x="320" y="294" type="curve"/>
      <point x="327" y="302"/>
      <point x="336" y="313"/>
      <point x="332" y="349" type="curve" smooth="yes"/>
      <point x="329" y="373"/>
      <point x="328" y="374"/>
      <point x="323" y="406" type="curve" smooth="yes"/>
      <point x="311" y="486"/>
      <point x="345" y="494"/>
      <point x="349" y="497" type="curve"/>
      <point x="320" y="519"/>
      <point x="286" y="570"/>
      <point x="278" y="595" type="curve"/>
      <point x="213" y="501" type="line"/>
      <point x="222" y="477"/>
      <point x="237" y="427"/>
      <point x="245" y="399" type="curve" smooth="yes"/>
      <point x="251" y="374"/>
      <point x="261" y="337"/>
      <point x="257" y="328" type="curve" smooth="yes"/>
      <point x="255" y="321"/>
      <point x="248" y="313"/>
      <point x="233" y="313" type="curve" smooth="yes"/>
      <point x="225" y="313"/>
      <point x="202" y="315"/>
      <point x="184" y="315" type="curve" smooth="yes"/>
      <point x="163" y="315"/>
      <point x="144" y="312"/>
      <point x="139" y="311" type="curve" smooth="yes"/>
      <point x="122" y="283"/>
      <point x="112" y="260"/>
      <point x="108" y="226" type="curve"/>
      <point x="116" y="226"/>
      <point x="139" y="227"/>
      <point x="164" y="226" type="curve" smooth="yes"/>
      <point x="191" y="225"/>
      <point x="230" y="221"/>
      <point x="273" y="212" type="curve"/>
      <point x="241" y="200"/>
      <point x="193" y="174"/>
      <point x="152" y="131" type="curve" smooth="yes"/>
      <point x="108" y="86"/>
      <point x="68" y="18"/>
      <point x="64" y="-61" type="curve" smooth="yes"/>
      <point x="61" y="-126"/>
      <point x="81" y="-189"/>
      <point x="123" y="-235" type="curve" smooth="yes"/>
      <point x="168" y="-285"/>
      <point x="232" y="-310"/>
      <point x="297" y="-310" type="curve" smooth="yes"/>
      <point x="344" y="-310"/>
      <point x="371" y="-297"/>
      <point x="399" y="-283" type="curve" smooth="yes"/>
      <point x="428" y="-268"/>
      <point x="455" y="-257"/>
      <point x="497" y="-256" type="curve"/>
      <point x="510" y="-216" type="line"/>
      <point x="470" y="-209"/>
      <point x="444" y="-208"/>
      <point x="411" y="-206" type="curve"/>
      <point x="391" y="-204"/>
      <point x="350" y="-201"/>
      <point x="317" y="-196" type="curve" smooth="yes"/>
      <point x="260" y="-186"/>
      <point x="209" y="-164"/>
      <point x="179" y="-129" type="curve" smooth="yes"/>
      <point x="153" y="-99"/>
      <point x="141" y="-60"/>
      <point x="141" y="-24" type="curve" smooth="yes"/>
      <point x="141" y="47"/>
      <point x="187" y="103"/>
      <point x="251" y="138" type="curve" smooth="yes"/>
      <point x="302" y="166"/>
      <point x="365" y="181"/>
      <point x="427" y="181" type="curve" smooth="yes"/>
      <point x="466" y="181"/>
      <point x="493" y="179"/>
      <point x="510" y="176" type="curve"/>
      <point x="527" y="209"/>
      <point x="537" y="233"/>
      <point x="545" y="273" type="curve"/>
    </contour>
    <contour>
      <point x="287" y="5" type="move" name="caret_1"/>
    </contour>
    <contour>
      <point x="451" y="-299" type="move" name="bottom_1"/>
    </contour>
    <contour>
      <point x="227" y="617" type="move" name="top_1"/>
    </contour>
    <contour>
      <point x="195" y="-342" type="move" name="bottom_2"/>
    </contour>
    <contour>
      <point x="343" y="7" type="move" name="center_2"/>
    </contour>
    <contour>
      <point x="80" y="352" type="move" name="top_2"/>
    </contour>
  </outline>
</glyph>
<glyph name="uniFCAA" format="1">
  <advance width="656"/>
  <unicode hex="FCAA"/>
  <outline>
    <contour>
      <point x="498" y="336"/>
      <point x="425" y="363"/>
      <point x="369" y="393" type="curve" smooth="yes"/>
      <point x="341" y="408"/>
      <point x="320" y="417"/>
      <point x="294" y="423" type="curve"/>
      <point x="262" y="429"/>
      <point x="234" y="425"/>
      <point x="209" y="413" type="curve" smooth="yes"/>
      <point x="180" y="398"/>
      <point x="161" y="373"/>
      <point x="143" y="342" type="curve"/>
      <point x="162" y="310" type="line"/>
      <point x="175" y="333"/>
      <point x="195" y="346"/>
      <point x="226" y="345" type="curve" smooth="yes"/>
      <point x="259" y="344"/>
      <point x="285" y="325"/>
      <point x="320" y="304" type="curve"/>
      <point x="276" y="301"/>
      <point x="236" y="282"/>
      <point x="201" y="254" type="curve" smooth="yes"/>
      <point x="168" y="228"/>
      <point x="147" y="205"/>
      <point x="118" y="171" type="curve"/>
      <point x="97" y="150"/>
      <point x="78" y="125"/>
      <point x="45" y="125" type="curve" smooth="yes"/>
      <point x="-14" y="125" type="line" smooth="yes"/>
      <point x="-53" y="125"/>
      <point x="-76" y="88"/>
      <point x="-76" y="62" type="curve" smooth="yes"/>
      <point x="-76" y="38"/>
      <point x="-57" y="0"/>
      <point x="-14" y="0" type="curve" smooth="yes"/>
      <point x="16" y="0" type="line" smooth="yes"/>
      <point x="56" y="0"/>
      <point x="83" y="13"/>
      <point x="98" y="46" type="curve"/>
      <point x="145" y="9"/>
      <point x="205" y="-9"/>
      <point x="249" y="-11" type="curve"/>
      <point x="278" y="12"/>
      <point x="301" y="53"/>
      <point x="301" y="93" type="curve" smooth="yes"/>
      <point x="301" y="126"/>
      <point x="284" y="170"/>
      <point x="248" y="196" type="curve"/>
      <point x="276" y="232"/>
      <point x="324" y="247"/>
      <point x="370" y="251" type="curve" smooth="yes"/>
      <point x="422" y="255"/>
      <point x="479" y="248"/>
      <point x="527" y="232" type="curve"/>
      <point x="559" y="267"/>
      <point x="571" y="288"/>
      <point x="593" y="325" type="curve"/>
    </contour>
    <contour>
      <point x="205" y="87"/>
      <point x="174" y="97"/>
      <point x="135" y="123" type="curve"/>
      <point x="145" y="139"/>
      <point x="162" y="154"/>
      <point x="185" y="154" type="curve" smooth="yes"/>
      <point x="234" y="154"/>
      <point x="252" y="103"/>
      <point x="248" y="78" type="curve"/>
    </contour>
    <contour>
      <point x="323" y="0" type="move" name="caret_1"/>
    </contour>
    <contour>
      <point x="443" y="143" type="move" name="bottom_1"/>
    </contour>
    <contour>
      <point x="313" y="453" type="move" name="top_1"/>
    </contour>
    <contour>
      <point x="46" y="314" type="move" name="top_2"/>
    </contour>
    <contour>
      <point x="135" y="-34" type="move" name="bottom_2"/>
    </contour>
  </outline>
</glyph>
<glyph name="uniFCB0" format="1">
  <advance width="731"/>
  <unicode hex="FCB0"/>
  <outline>
    <contour>
      <point x="606" y="388"/>
      <point x="591" y="367"/>
      <point x="574" y="340" type="curve"/>
      <point x="621" y="274" type="line"/>
      <point x="607" y="246"/>
      <point x="594" y="236"/>
      <point x="564" y="236" type="curve" smooth="yes"/>
      <point x="547" y="236"/>
      <point x="525" y="239"/>
      <point x="512" y="253" type="curve"/>
      <point x="500" y="266"/>
      <point x="497" y="287"/>
      <point x="497" y="306" type="curve"/>
      <point x="498" y="315"/>
      <point x="500" y="329"/>
      <point x="501" y="338" type="curve"/>
      <point x="459" y="321" type="line"/>
      <point x="459" y="313"/>
      <point x="458" y="305"/>
      <point x="456" y="297" type="curve" smooth="yes"/>
      <point x="450" y="265"/>
      <point x="430" y="235"/>
      <point x="388" y="235" type="curve" smooth="yes"/>
      <point x="348" y="235"/>
      <point x="333" y="259"/>
      <point x="316" y="281" type="curve" smooth="yes"/>
      <point x="300" y="302"/>
      <point x="281" y="322"/>
      <point x="240" y="322" type="curve" smooth="yes"/>
      <point x="221" y="322"/>
      <point x="200" y="315"/>
      <point x="180" y="303" type="curve" smooth="yes"/>
      <point x="159" y="290"/>
      <point x="139" y="269"/>
      <point x="124" y="249" type="curve" smooth="yes"/>
      <point x="112" y="231"/>
      <point x="99" y="206"/>
      <point x="94" y="187" type="curve" smooth="yes"/>
      <point x="88" y="169"/>
      <point x="85" y="147"/>
      <point x="87" y="125" type="curve"/>
      <point x="75" y="121"/>
      <point x="34" y="124"/>
      <point x="16" y="125" type="curve"/>
      <point x="-13" y="125" type="line" smooth="yes"/>
      <point x="-48" y="125"/>
      <point x="-76" y="102"/>
      <point x="-76" y="63" type="curve" smooth="yes"/>
      <point x="-76" y="23"/>
      <point x="-47" y="0"/>
      <point x="-13" y="0" type="curve" smooth="yes"/>
      <point x="12" y="0" type="line" smooth="yes"/>
      <point x="68" y="0"/>
      <point x="93" y="10"/>
      <point x="135" y="10" type="curve" smooth="yes"/>
      <point x="166" y="10"/>
      <point x="200" y="1"/>
      <point x="243" y="-23" type="curve"/>
      <point x="260" y="26"/>
      <point x="267" y="73"/>
      <point x="266" y="115" type="curve"/>
      <point x="221" y="127"/>
      <point x="163" y="141"/>
      <point x="163" y="173" type="curve" smooth="yes"/>
      <point x="163" y="197"/>
      <point x="189" y="231"/>
      <point x="237" y="231" type="curve" smooth="yes"/>
      <point x="276" y="231"/>
      <point x="296" y="206"/>
      <point x="312" y="180" type="curve" smooth="yes"/>
      <point x="332" y="148"/>
      <point x="351" y="118"/>
      <point x="394" y="118" type="curve" smooth="yes"/>
      <point x="445" y="118"/>
      <point x="465" y="154"/>
      <point x="473" y="175" type="curve"/>
      <point x="479" y="156"/>
      <point x="507" y="124"/>
      <point x="558" y="124" type="curve" smooth="yes"/>
      <point x="599" y="124"/>
      <point x="632" y="145"/>
      <point x="653" y="182" type="curve" smooth="yes"/>
      <point x="675" y="219"/>
      <point x="678" y="261"/>
      <point x="678" y="281" type="curve" smooth="yes"/>
      <point x="678" y="327"/>
      <point x="660" y="376"/>
      <point x="627" y="410" type="curve"/>
    </contour>
    <contour>
      <point x="362" y="0" type="move" name="caret_1"/>
    </contour>
    <contour>
      <point x="469" y="73" type="move" name="bottom_1"/>
    </contour>
    <contour>
      <point x="474" y="382" type="move" name="top_1"/>
    </contour>
    <contour>
      <point x="120" y="329" type="move" name="top_2"/>
    </contour>
    <contour>
      <point x="168" y="-44" type="move" name="bottom_2"/>
    </contour>
  </outline>
</glyph>
<glyph name="uniFCC7" format="1">
  <advance width="504"/>
  <unicode hex="FCC7"/>
  <outline>
    <contour>
      <point x="417" y="193"/>
      <point x="399" y="239"/>
      <point x="374" y="281" type="curve" smooth="yes"/>
      <point x="353" y="316"/>
      <point x="320" y="350"/>
      <point x="274" y="381" type="curve"/>
      <point x="333" y="414"/>
      <point x="406" y="449"/>
      <point x="463" y="473" type="curve"/>
      <point x="474" y="517"/>
      <point x="479" y="551"/>
      <point x="485" y="595" type="curve"/>
      <point x="384" y="548"/>
      <point x="237" y="474"/>
      <point x="161" y="403" type="curve"/>
      <point x="154" y="467"/>
      <point x="148" y="529"/>
      <point x="142" y="595" type="curve"/>
      <point x="108" y="560"/>
      <point x="86" y="530"/>
      <point x="57" y="485" type="curve"/>
      <point x="64" y="448"/>
      <point x="87" y="327"/>
      <point x="98" y="244" type="curve" smooth="yes"/>
      <point x="99" y="230"/>
      <point x="102" y="214"/>
      <point x="103" y="188" type="curve"/>
      <point x="105" y="173"/>
      <point x="101" y="159"/>
      <point x="90" y="147" type="curve" smooth="yes"/>
      <point x="78" y="133"/>
      <point x="58" y="125"/>
      <point x="36" y="125" type="curve" smooth="yes"/>
      <point x="-13" y="125" type="line" smooth="yes"/>
      <point x="-48" y="125"/>
      <point x="-76" y="97"/>
      <point x="-76" y="62" type="curve" smooth="yes"/>
      <point x="-76" y="31"/>
      <point x="-51" y="0"/>
      <point x="-13" y="0" type="curve" smooth="yes"/>
      <point x="57" y="0" type="line" smooth="yes"/>
      <point x="127" y="0"/>
      <point x="154" y="33"/>
      <point x="162" y="63" type="curve"/>
      <point x="181" y="17"/>
      <point x="223" y="0"/>
      <point x="273" y="0" type="curve" smooth="yes"/>
      <point x="360" y="0"/>
      <point x="417" y="51"/>
      <point x="417" y="142" type="curve" smooth="yes"/>
    </contour>
    <contour>
      <point x="331" y="132"/>
      <point x="307" y="121"/>
      <point x="263" y="121" type="curve"/>
      <point x="232" y="121"/>
      <point x="213" y="129"/>
      <point x="199" y="147" type="curve" smooth="yes"/>
      <point x="189" y="160"/>
      <point x="185" y="177"/>
      <point x="183" y="193" type="curve" smooth="yes"/>
      <point x="178" y="237"/>
      <point x="173" y="280"/>
      <point x="169" y="322" type="curve"/>
      <point x="210" y="308"/>
      <point x="259" y="277"/>
      <point x="292" y="244" type="curve" smooth="yes"/>
      <point x="329" y="209"/>
      <point x="347" y="173"/>
      <point x="347" y="157" type="curve"/>
    </contour>
    <contour>
      <point x="236" y="0" type="move" name="caret_1"/>
    </contour>
    <contour>
      <point x="292" y="-28" type="move" name="bottom_1"/>
    </contour>
    <contour>
      <point x="356" y="586" type="move" name="top_1"/>
    </contour>
    <contour>
      <point x="44" y="585" type="move" name="top_2"/>
    </contour>
    <contour>
      <point x="54" y="-28" type="move" name="bottom_2"/>
    </contour>
  </outline>
</glyph>
<glyph name="uniFCCA" format="1">
  <advance width="562"/>
  <unicode hex="FCCA"/>
  <outline>
    <contour>
      <point x="488" y="245" type="line" smooth="yes"/>
      <point x="409" y="246"/>
      <point x="367" y="255"/>
      <point x="324" y="268" type="curve" smooth="yes"/>
      <point x="308" y="273"/>
      <point x="295" y="278"/>
      <point x="268" y="287" type="curve"/>
      <point x="268" y="287"/>
      <point x="292" y="304"/>
      <point x="287" y="353" type="curve" smooth="yes"/>
      <point x="285" y="367"/>
      <point x="281" y="387"/>
      <point x="279" y="401" type="curve" smooth="yes"/>
      <point x="271" y="457"/>
      <point x="276" y="471"/>
      <point x="305" y="494" type="curve"/>
      <point x="273" y="521"/>
      <point x="254" y="552"/>
      <point x="235" y="593" type="curve"/>
      <point x="170" y="499" type="line"/>
      <point x="174" y="488"/>
      <point x="195" y="427"/>
      <point x="207" y="375" type="curve" smooth="yes"/>
      <point x="215" y="338"/>
      <point x="216" y="323"/>
      <point x="209" y="314" type="curve" smooth="yes"/>
      <point x="201" y="304"/>
      <point x="187" y="302"/>
      <point x="157" y="300" type="curve" smooth="yes"/>
      <point x="96" y="296"/>
      <point x="69" y="293"/>
      <point x="57" y="284" type="curve" smooth="yes"/>
      <point x="54" y="275"/>
      <point x="42" y="239"/>
      <point x="32" y="202" type="curve" smooth="yes"/>
      <point x="65" y="211"/>
      <point x="82" y="214"/>
      <point x="111" y="214" type="curve" smooth="yes"/>
      <point x="163" y="214"/>
      <point x="216" y="205"/>
      <point x="285" y="176" type="curve"/>
      <point x="273" y="169"/>
      <point x="225" y="152"/>
      <point x="195" y="145" type="curve" smooth="yes"/>
      <point x="156" y="135"/>
      <point x="106" y="125"/>
      <point x="34" y="125" type="curve" smooth="yes"/>
      <point x="-13" y="125" type="line" smooth="yes"/>
      <point x="-48" y="125"/>
      <point x="-76" y="97"/>
      <point x="-76" y="62" type="curve" smooth="yes"/>
      <point x="-76" y="27"/>
      <point x="-49" y="0"/>
      <point x="-13" y="0" type="curve" smooth="yes"/>
      <point x="39" y="0" type="line" smooth="yes"/>
      <point x="148" y="0"/>
      <point x="212" y="40"/>
      <point x="263" y="73" type="curve" smooth="yes"/>
      <point x="324" y="112"/>
      <point x="365" y="136"/>
      <point x="459" y="139" type="curve"/>
      <point x="480" y="176"/>
      <point x="494" y="208"/>
      <point x="509" y="245" type="curve"/>
    </contour>
    <contour>
      <point x="281" y="0" type="move" name="caret_1"/>
    </contour>
    <contour>
      <point x="331" y="52" type="move" name="bottom_1"/>
    </contour>
    <contour>
      <point x="158" y="607" type="move" name="top_1"/>
    </contour>
    <contour>
      <point x="34" y="347" type="move" name="top_2"/>
    </contour>
    <contour>
      <point x="74" y="-31" type="move" name="bottom_2"/>
    </contour>
  </outline>
</glyph>
<glyph name="uniFCCC" format="1">
  <advance width="354"/>
  <unicode hex="FCCC"/>
  <outline>
    <contour>
      <point x="20" y="493" type="line"/>
      <point x="26" y="479"/>
      <point x="46" y="419"/>
      <point x="55" y="365" type="curve" smooth="yes"/>
      <point x="68" y="295"/>
      <point x="83" y="172"/>
      <point x="107" y="135" type="curve" smooth="yes"/>
      <point x="97" y="132"/>
      <point x="76" y="125"/>
      <point x="45" y="125" type="curve" smooth="yes"/>
      <point x="-13" y="125" type="line" smooth="yes"/>
      <point x="-59" y="125"/>
      <point x="-76" y="91"/>
      <point x="-76" y="61" type="curve" smooth="yes"/>
      <point x="-76" y="21"/>
      <point x="-48" y="0"/>
      <point x="-13" y="0" type="curve" smooth="yes"/>
      <point x="24" y="0" type="line" smooth="yes"/>
      <point x="79" y="0"/>
      <point x="101" y="15"/>
      <point x="152" y="15" type="curve" smooth="yes"/>
      <point x="196" y="15"/>
      <point x="236" y="-10"/>
      <point x="259" y="-28" type="curve"/>
      <point x="279" y="15"/>
      <point x="285" y="97"/>
      <point x="281" y="141" type="curve"/>
      <point x="252" y="149"/>
      <point x="220" y="162"/>
      <point x="205" y="171" type="curve" smooth="yes"/>
      <point x="171" y="192"/>
      <point x="160" y="218"/>
      <point x="149" y="296" type="curve" smooth="yes"/>
      <point x="147" y="312"/>
      <point x="135" y="392"/>
      <point x="134" y="399" type="curve" smooth="yes"/>
      <point x="127" y="450"/>
      <point x="152" y="468"/>
      <point x="168" y="480" type="curve"/>
      <point x="130" y="520"/>
      <point x="107" y="548"/>
      <point x="89" y="595" type="curve"/>
    </contour>
    <contour>
      <point x="166" y="0" type="move" name="caret_1"/>
    </contour>
    <contour>
      <point x="233" y="-197" type="move" name="bottom_1"/>
    </contour>
    <contour>
      <point x="241" y="595" type="move" name="top_1"/>
    </contour>
    <contour>
      <point x="-22" y="595" type="move" name="top_2"/>
    </contour>
    <contour>
      <point x="43" y="-48" type="move" name="bottom_2"/>
    </contour>
  </outline>
</glyph>
<glyph name="uniFCD1" format="1">
  <advance width="400"/>
  <unicode hex="FCD1"/>
  <outline>
    <contour>
      <point x="345" y="365"/>
      <point x="353" y="407"/>
      <point x="341" y="429" type="curve" smooth="yes"/>
      <point x="330" y="448"/>
      <point x="303" y="463"/>
      <point x="270" y="473" type="curve" smooth="yes"/>
      <point x="254" y="478"/>
      <point x="232" y="480"/>
      <point x="208" y="489" type="curve"/>
      <point x="200" y="481"/>
      <point x="183" y="461"/>
      <point x="176" y="421" type="curve" smooth="yes"/>
      <point x="172" y="398"/>
      <point x="171" y="373"/>
      <point x="178" y="355" type="curve"/>
      <point x="161" y="345"/>
      <point x="137" y="331"/>
      <point x="116" y="311" type="curve" smooth="yes"/>
      <point x="91" y="288"/>
      <point x="69" y="256"/>
      <point x="69" y="212" type="curve" smooth="yes"/>
      <point x="69" y="181"/>
      <point x="83" y="158"/>
      <point x="97" y="139" type="curve"/>
      <point x="91" y="137"/>
      <point x="79" y="125"/>
      <point x="35" y="125" type="curve" smooth="yes"/>
      <point x="-13" y="125" type="line" smooth="yes"/>
      <point x="-60" y="125"/>
      <point x="-76" y="82"/>
      <point x="-76" y="63" type="curve" smooth="yes"/>
      <point x="-76" y="28"/>
      <point x="-48" y="0"/>
      <point x="-13" y="0" type="curve" smooth="yes"/>
      <point x="20" y="0" type="line" smooth="yes"/>
      <point x="69" y="0"/>
      <point x="96" y="16"/>
      <point x="141" y="16" type="curve" smooth="yes"/>
      <point x="174" y="16"/>
      <point x="217" y="4"/>
      <point x="256" y="-23" type="curve"/>
      <point x="276" y="20"/>
      <point x="282" y="87"/>
      <point x="278" y="131" type="curve"/>
      <point x="247" y="152"/>
      <point x="224" y="163"/>
      <point x="196" y="174" type="curve" smooth="yes"/>
      <point x="148" y="192"/>
      <point x="133" y="210"/>
      <point x="133" y="223" type="curve"/>
      <point x="149" y="250"/>
      <point x="199" y="278"/>
      <point x="231" y="291" type="curve" smooth="yes"/>
      <point x="254" y="301"/>
      <point x="297" y="315"/>
      <point x="331" y="323" type="curve" smooth="yes"/>
    </contour>
    <contour>
      <point x="190" y="0" type="move" name="caret_1"/>
    </contour>
    <contour>
      <point x="241" y="-117" type="move" name="bottom_1"/>
    </contour>
    <contour>
      <point x="265" y="531" type="move" name="top_1"/>
    </contour>
    <contour>
      <point x="37" y="381" type="move" name="top_2"/>
    </contour>
    <contour>
      <point x="31" y="-53" type="move" name="bottom_2"/>
    </contour>
  </outline>
</glyph>
<glyph name="uniFD0E" format="1">
  <advance width="752"/>
  <unicode hex="FD0E"/>
  <outline>
    <contour>
      <point x="627" y="273"/>
      <point x="611" y="252"/>
      <point x="594" y="225" type="curve"/>
      <point x="642" y="159" type="line"/>
      <point x="633" y="137"/>
      <point x="616" y="121"/>
      <point x="585" y="121" type="curve" smooth="yes"/>
      <point x="562" y="121"/>
      <point x="545" y="126"/>
      <point x="534" y="137" type="curve" smooth="yes"/>
      <point x="521" y="150"/>
      <point x="517" y="170"/>
      <point x="518" y="192" type="curve" smooth="yes"/>
      <point x="519" y="200"/>
      <point x="520" y="214"/>
      <point x="521" y="223" type="curve"/>
      <point x="480" y="206" type="line"/>
      <point x="479" y="198"/>
      <point x="478" y="189"/>
      <point x="476" y="181" type="curve"/>
      <point x="469" y="148"/>
      <point x="453" y="121"/>
      <point x="411" y="121" type="curve" smooth="yes"/>
      <point x="376" y="121"/>
      <point x="361" y="141"/>
      <point x="355" y="162" type="curve"/>
      <point x="353" y="168"/>
      <point x="352" y="174"/>
      <point x="352" y="180" type="curve"/>
      <point x="301" y="160"/>
      <point x="223" y="141"/>
      <point x="153" y="126" type="curve" smooth="yes"/>
      <point x="150" y="98"/>
      <point x="144" y="58"/>
      <point x="137" y="26" type="curve"/>
      <point x="147" y="28"/>
      <point x="163" y="31"/>
      <point x="170" y="33" type="curve"/>
      <point x="172" y="24"/>
      <point x="173" y="14"/>
      <point x="173" y="4" type="curve" smooth="yes"/>
      <point x="173" y="-45"/>
      <point x="136" y="-80"/>
      <point x="73" y="-119" type="curve" smooth="yes"/>
      <point x="36" y="-146"/>
      <point x="7" y="-161"/>
      <point x="-100" y="-219" type="curve"/>
      <point x="-77" y="-252" type="line"/>
      <point x="-58" y="-245"/>
      <point x="-26" y="-242"/>
      <point x="-6" y="-242" type="curve" smooth="yes"/>
      <point x="14" y="-242"/>
      <point x="32" y="-245"/>
      <point x="54" y="-245" type="curve" smooth="yes"/>
      <point x="92" y="-245"/>
      <point x="118" y="-235"/>
      <point x="141" y="-217" type="curve" smooth="yes"/>
      <point x="165" y="-198"/>
      <point x="184" y="-174"/>
      <point x="199" y="-145" type="curve" smooth="yes"/>
      <point x="234" y="-79"/>
      <point x="241" y="-7"/>
      <point x="239" y="46" type="curve"/>
      <point x="271" y="53"/>
      <point x="295" y="59"/>
      <point x="318" y="65" type="curve"/>
      <point x="330" y="30"/>
      <point x="352" y="3"/>
      <point x="402" y="3" type="curve" smooth="yes"/>
      <point x="461" y="3"/>
      <point x="487" y="40"/>
      <point x="494" y="60" type="curve"/>
      <point x="501" y="40"/>
      <point x="529" y="9"/>
      <point x="579" y="9" type="curve" smooth="yes"/>
      <point x="621" y="9"/>
      <point x="653" y="31"/>
      <point x="673" y="66" type="curve" smooth="yes"/>
      <point x="695" y="103"/>
      <point x="699" y="147"/>
      <point x="699" y="162" type="curve" smooth="yes"/>
      <point x="699" y="204"/>
      <point x="683" y="260"/>
      <point x="648" y="295" type="curve"/>
    </contour>
    <contour>
      <point x="383" y="0" type="move" name="caret_1"/>
    </contour>
    <contour>
      <point x="489" y="-28" type="move" name="bottom_1"/>
    </contour>
    <contour>
      <point x="493" y="271" type="move" name="top_1"/>
    </contour>
    <contour>
      <point x="28" y="-275" type="move" name="bottom_2"/>
    </contour>
    <contour>
      <point x="128" y="193" type="move" name="top_2"/>
    </contour>
    <contour>
      <point x="39" y="-33" type="move" name="center_2"/>
    </contour>
  </outline>
</glyph>
<glyph name="uniFD0F" format="1">
  <advance width="837"/>
  <unicode hex="FD0F"/>
  <outline>
    <contour>
      <point x="784" y="270"/>
      <point x="770" y="299"/>
      <point x="742" y="320" type="curve" smooth="yes"/>
      <point x="719" y="339"/>
      <point x="688" y="350"/>
      <point x="661" y="350" type="curve" smooth="yes"/>
      <point x="602" y="350"/>
      <point x="535" y="296"/>
      <point x="484" y="242" type="curve" smooth="yes"/>
      <point x="438" y="192"/>
      <point x="407" y="144"/>
      <point x="396" y="127" type="curve"/>
      <point x="368" y="130"/>
      <point x="353" y="149"/>
      <point x="352" y="181" type="curve"/>
      <point x="301" y="162"/>
      <point x="223" y="141"/>
      <point x="153" y="126" type="curve"/>
      <point x="150" y="98"/>
      <point x="144" y="58"/>
      <point x="137" y="26" type="curve"/>
      <point x="147" y="28"/>
      <point x="163" y="31"/>
      <point x="170" y="33" type="curve"/>
      <point x="172" y="24"/>
      <point x="173" y="14"/>
      <point x="173" y="4" type="curve" smooth="yes"/>
      <point x="173" y="-45"/>
      <point x="136" y="-80"/>
      <point x="73" y="-119" type="curve" smooth="yes"/>
      <point x="36" y="-146"/>
      <point x="7" y="-161"/>
      <point x="-100" y="-219" type="curve"/>
      <point x="-77" y="-252" type="line"/>
      <point x="-58" y="-245"/>
      <point x="-26" y="-242"/>
      <point x="-6" y="-242" type="curve" smooth="yes"/>
      <point x="14" y="-242"/>
      <point x="32" y="-245"/>
      <point x="54" y="-245" type="curve" smooth="yes"/>
      <point x="92" y="-245"/>
      <point x="118" y="-235"/>
      <point x="141" y="-217" type="curve" smooth="yes"/>
      <point x="165" y="-198"/>
      <point x="184" y="-174"/>
      <point x="199" y="-145" type="curve" smooth="yes"/>
      <point x="234" y="-79"/>
      <point x="241" y="-7"/>
      <point x="239" y="46" type="curve"/>
      <point x="263" y="52"/>
      <point x="300" y="62"/>
      <point x="322" y="68" type="curve"/>
      <point x="328" y="52"/>
      <point x="339" y="33"/>
      <point x="361" y="23" type="curve"/>
      <point x="352" y="-15" type="line"/>
      <point x="401" y="-15" type="line"/>
      <point x="408" y="10" type="line"/>
      <point x="429" y="5"/>
      <point x="454" y="6"/>
      <point x="477" y="6" type="curve" smooth="yes"/>
      <point x="555" y="6"/>
      <point x="629" y="33"/>
      <point x="685" y="76" type="curve" smooth="yes"/>
      <point x="715" y="99"/>
      <point x="739" y="125"/>
      <point x="756" y="153" type="curve" smooth="yes"/>
      <point x="775" y="186"/>
      <point x="784" y="217"/>
      <point x="784" y="240" type="curve" smooth="yes"/>
    </contour>
    <contour>
      <point x="691" y="170"/>
      <point x="677" y="158"/>
      <point x="650" y="146" type="curve" smooth="yes"/>
      <point x="623" y="134"/>
      <point x="591" y="127"/>
      <point x="555" y="127" type="curve" smooth="yes"/>
      <point x="457" y="127" type="line"/>
      <point x="465" y="137"/>
      <point x="489" y="170"/>
      <point x="509" y="191" type="curve" smooth="yes"/>
      <point x="540" y="224"/>
      <point x="579" y="250"/>
      <point x="619" y="250" type="curve" smooth="yes"/>
      <point x="649" y="250"/>
      <point x="669" y="236"/>
      <point x="680" y="225" type="curve" smooth="yes"/>
      <point x="693" y="212"/>
      <point x="701" y="193"/>
      <point x="703" y="184" type="curve"/>
    </contour>
    <contour>
      <point x="425" y="0" type="move" name="caret_1"/>
    </contour>
    <contour>
      <point x="538" y="-31" type="move" name="bottom_1"/>
    </contour>
    <contour>
      <point x="651" y="379" type="move" name="top_1"/>
    </contour>
    <contour>
      <point x="119" y="177" type="move" name="top_2"/>
    </contour>
    <contour>
      <point x="27" y="-273" type="move" name="bottom_2"/>
    </contour>
  </outline>
</glyph>
<glyph name="uniFD2A" format="1">
  <advance width="768"/>
  <unicode hex="FD2A"/>
  <outline>
    <contour>
      <point x="727" y="126" type="line" smooth="yes"/>
      <point x="702" y="126"/>
      <point x="685" y="132"/>
      <point x="675" y="143" type="curve"/>
      <point x="659" y="162"/>
      <point x="662" y="186"/>
      <point x="666" y="224" type="curve"/>
      <point x="625" y="207" type="line"/>
      <point x="624" y="164"/>
      <point x="610" y="122"/>
      <point x="565" y="122" type="curve" smooth="yes"/>
      <point x="535" y="122"/>
      <point x="515" y="141"/>
      <point x="520" y="196" type="curve"/>
      <point x="520" y="202"/>
      <point x="522" y="222"/>
      <point x="523" y="224" type="curve"/>
      <point x="481" y="207" type="line"/>
      <point x="479" y="160"/>
      <point x="458" y="122"/>
      <point x="409" y="122" type="curve" smooth="yes"/>
      <point x="383" y="122"/>
      <point x="366" y="134"/>
      <point x="358" y="152" type="curve" smooth="yes"/>
      <point x="354" y="161"/>
      <point x="352" y="169"/>
      <point x="352" y="181" type="curve"/>
      <point x="301" y="161"/>
      <point x="223" y="141"/>
      <point x="153" y="126" type="curve"/>
      <point x="150" y="98"/>
      <point x="144" y="58"/>
      <point x="137" y="26" type="curve"/>
      <point x="147" y="28"/>
      <point x="163" y="31"/>
      <point x="170" y="33" type="curve"/>
      <point x="172" y="24"/>
      <point x="173" y="14"/>
      <point x="173" y="4" type="curve" smooth="yes"/>
      <point x="173" y="-45"/>
      <point x="136" y="-80"/>
      <point x="73" y="-119" type="curve" smooth="yes"/>
      <point x="36" y="-146"/>
      <point x="7" y="-161"/>
      <point x="-100" y="-219" type="curve"/>
      <point x="-77" y="-252" type="line"/>
      <point x="-58" y="-245"/>
      <point x="-26" y="-242"/>
      <point x="-6" y="-242" type="curve" smooth="yes"/>
      <point x="14" y="-242"/>
      <point x="32" y="-245"/>
      <point x="54" y="-245" type="curve" smooth="yes"/>
      <point x="92" y="-245"/>
      <point x="118" y="-235"/>
      <point x="141" y="-217" type="curve" smooth="yes"/>
      <point x="165" y="-198"/>
      <point x="184" y="-174"/>
      <point x="199" y="-145" type="curve" smooth="yes"/>
      <point x="234" y="-79"/>
      <point x="241" y="-7"/>
      <point x="239" y="46" type="curve"/>
      <point x="263" y="52"/>
      <point x="294" y="59"/>
      <point x="317" y="66" type="curve"/>
      <point x="323" y="39"/>
      <point x="346" y="-1"/>
      <point x="401" y="-1" type="curve" smooth="yes"/>
      <point x="452" y="-1"/>
      <point x="482" y="35"/>
      <point x="490" y="57" type="curve"/>
      <point x="494" y="31"/>
      <point x="513" y="-1"/>
      <point x="558" y="-1" type="curve" smooth="yes"/>
      <point x="613" y="-1"/>
      <point x="632" y="43"/>
      <point x="636" y="58" type="curve"/>
      <point x="647" y="22"/>
      <point x="681" y="1"/>
      <point x="725" y="1" type="curve" smooth="yes"/>
      <point x="768" y="1" type="line"/>
      <point x="768" y="126" type="line"/>
    </contour>
    <contour>
      <point x="391" y="0" type="move" name="caret_1"/>
    </contour>
    <contour>
      <point x="491" y="-28" type="move" name="bottom_1"/>
    </contour>
    <contour>
      <point x="497" y="268" type="move" name="top_1"/>
    </contour>
    <contour>
      <point x="27" y="-273" type="move" name="bottom_2"/>
    </contour>
    <contour>
      <point x="39" y="-33" type="move" name="center_2"/>
    </contour>
    <contour>
      <point x="130" y="196" type="move" name="top_2"/>
    </contour>
  </outline>
</glyph>
<glyph name="uniFD2B" format="1">
  <advance width="905"/>
  <unicode hex="FD2B"/>
  <outline>
    <contour>
      <point x="801" y="125" type="line" smooth="yes"/>
      <point x="775" y="125"/>
      <point x="742" y="118"/>
      <point x="723" y="111" type="curve"/>
      <point x="731" y="120"/>
      <point x="739" y="128"/>
      <point x="746" y="138" type="curve" smooth="yes"/>
      <point x="768" y="168"/>
      <point x="784" y="208"/>
      <point x="784" y="239" type="curve" smooth="yes"/>
      <point x="784" y="262"/>
      <point x="772" y="296"/>
      <point x="743" y="319" type="curve" smooth="yes"/>
      <point x="720" y="337"/>
      <point x="689" y="347"/>
      <point x="662" y="347" type="curve" smooth="yes"/>
      <point x="633" y="347"/>
      <point x="604" y="337"/>
      <point x="571" y="316" type="curve" smooth="yes"/>
      <point x="538" y="294"/>
      <point x="506" y="263"/>
      <point x="485" y="241" type="curve" smooth="yes"/>
      <point x="436" y="188"/>
      <point x="404" y="137"/>
      <point x="396" y="125" type="curve"/>
      <point x="367" y="128"/>
      <point x="353" y="148"/>
      <point x="352" y="180" type="curve"/>
      <point x="301" y="160"/>
      <point x="223" y="141"/>
      <point x="153" y="126" type="curve"/>
      <point x="150" y="98"/>
      <point x="144" y="58"/>
      <point x="137" y="26" type="curve"/>
      <point x="147" y="28"/>
      <point x="163" y="31"/>
      <point x="170" y="33" type="curve"/>
      <point x="172" y="24"/>
      <point x="173" y="14"/>
      <point x="173" y="4" type="curve" smooth="yes"/>
      <point x="173" y="-45"/>
      <point x="136" y="-80"/>
      <point x="73" y="-119" type="curve" smooth="yes"/>
      <point x="36" y="-146"/>
      <point x="7" y="-161"/>
      <point x="-100" y="-219" type="curve"/>
      <point x="-77" y="-252" type="line"/>
      <point x="-58" y="-245"/>
      <point x="-26" y="-242"/>
      <point x="-6" y="-242" type="curve" smooth="yes"/>
      <point x="14" y="-242"/>
      <point x="32" y="-245"/>
      <point x="54" y="-245" type="curve" smooth="yes"/>
      <point x="92" y="-245"/>
      <point x="118" y="-235"/>
      <point x="141" y="-217" type="curve" smooth="yes"/>
      <point x="165" y="-198"/>
      <point x="184" y="-174"/>
      <point x="199" y="-145" type="curve" smooth="yes"/>
      <point x="234" y="-79"/>
      <point x="241" y="-7"/>
      <point x="239" y="46" type="curve"/>
      <point x="263" y="52"/>
      <point x="300" y="61"/>
      <point x="323" y="67" type="curve"/>
      <point x="328" y="50"/>
      <point x="338" y="32"/>
      <point x="361" y="21" type="curve"/>
      <point x="352" y="-17" type="line"/>
      <point x="401" y="-17" type="line"/>
      <point x="409" y="8" type="line"/>
      <point x="432" y="4"/>
      <point x="454" y="4"/>
      <point x="484" y="4" type="curve" smooth="yes"/>
      <point x="534" y="4"/>
      <point x="625" y="3"/>
      <point x="678" y="3" type="curve" smooth="yes"/>
      <point x="712" y="3"/>
      <point x="768" y="0"/>
      <point x="791" y="0" type="curve" smooth="yes"/>
      <point x="905" y="0" type="line"/>
      <point x="905" y="125" type="line"/>
    </contour>
    <contour>
      <point x="693" y="165"/>
      <point x="672" y="153"/>
      <point x="644" y="142" type="curve" smooth="yes"/>
      <point x="618" y="132"/>
      <point x="588" y="125"/>
      <point x="555" y="125" type="curve" smooth="yes"/>
      <point x="457" y="125" type="line"/>
      <point x="458" y="127"/>
      <point x="483" y="162"/>
      <point x="510" y="190" type="curve" smooth="yes"/>
      <point x="540" y="221"/>
      <point x="578" y="248"/>
      <point x="621" y="248" type="curve" smooth="yes"/>
      <point x="671" y="248"/>
      <point x="697" y="210"/>
      <point x="700" y="186" type="curve"/>
    </contour>
    <contour>
      <point x="439" y="0" type="move" name="caret_1"/>
    </contour>
    <contour>
      <point x="559" y="-29" type="move" name="bottom_1"/>
    </contour>
    <contour>
      <point x="642" y="377" type="move" name="top_1"/>
    </contour>
    <contour>
      <point x="137" y="190" type="move" name="top_2"/>
    </contour>
    <contour>
      <point x="46" y="-273" type="move" name="bottom_2"/>
    </contour>
  </outline>
</glyph>
